<svg width="16" height="18" viewBox="0 0 16 18" fill="none" xmlns="http://www.w3.org/2000/svg">
<path d="M8 0C3.80021 0 0 2.9453 0 7.50101C0 10.4101 2.45028 13.8318 7.34003 17.7739C7.52481 17.9197 7.76074 18 8.0048 18C8.24886 18 8.48479 17.9197 8.66957 17.7739C13.5497 13.8318 16 10.4101 16 7.50101C16 2.9453 12.1998 0 8 0ZM8 9.14766C6.89966 9.14766 5.9997 8.32434 5.9997 7.31769C5.9997 6.31104 6.89966 5.48772 8 5.48772C9.10035 5.48772 10.0003 6.31104 10.0003 7.31769C10.0003 8.32434 9.10035 9.14766 8 9.14766Z" fill="#3A98FF"/>
</svg>
