<svg width="500" height="438" viewBox="0 0 500 438" fill="none" xmlns="http://www.w3.org/2000/svg">
<path d="M1.33453 293.797L0.889666 289.997V283.585L0 275.984V274.559L0.222434 273.134L1.33453 271.709L1.55697 270.522V267.671V267.197L1.77933 266.959L2.2242 266.722H3.11387L3.3363 266.484L4.00353 265.534L3.78117 264.821L3.11387 263.871L2.66907 262.921L2.89143 261.734L3.3363 261.021L4.00353 260.784L4.89327 261.021L5.33806 261.259L6.00537 261.971L6.45016 262.209L6.6726 262.446H6.89503L7.11746 262.209L7.56226 261.734H7.7847L8.45193 261.259L7.7847 260.309L6.45016 258.646V257.696L7.56226 256.034L7.7847 254.846V253.659L8.22956 252.708L8.67443 251.759L9.56403 251.046L11.121 249.858L12.0107 249.146L12.2331 248.433L12.4555 247.008L13.1228 246.296L13.7901 246.058L14.6797 245.346L15.7918 243.921L16.6815 243.446L18.4608 244.158H19.5729L20.685 243.683L21.5748 243.208L22.0196 242.496L23.1317 240.596L23.5765 240.121H23.799V239.646L24.0213 239.171V238.696L24.2438 238.458L24.0213 237.983V237.033L23.799 236.321L23.3541 235.608V235.37V235.133V234.895V234.658V234.183H23.5765L24.6886 233.233L25.8007 231.808L31.3612 223.258L32.6958 222.545L34.0302 222.07L40.9253 220.645L42.0374 220.407L43.3719 219.457L44.2616 218.982L45.1512 218.507L46.2633 218.27L50.4894 218.507L53.3808 218.982L54.9377 218.745L64.2794 214.707L65.169 214.47L65.8363 213.995L66.5036 213.52L67.1708 212.57H67.3932L67.8381 212.332H68.283H68.5053H68.7278L68.9502 212.57V212.807L69.1725 213.045L69.8399 214.945L70.2846 215.895L71.8416 217.795L72.5088 218.745L73.1762 219.22H73.8434L74.5107 218.745L81.8505 210.907L83.1851 209.245L83.8523 208.532L84.7419 207.82L89.8577 205.682L92.9715 203.782L94.5285 204.019L97.1975 204.732L98.9769 204.969L108.096 204.494L119.217 204.969L122.109 204.732L123.888 204.969L125.89 205.444L127.891 206.394L129.004 207.345L129.671 207.582V207.82L130.116 208.057H130.561H131.673H132.117L132.785 207.82H133.007L133.23 208.057V208.294L133.452 208.532L133.674 208.77L134.119 209.007L134.564 209.245H135.231L136.788 209.482L138.123 209.957L138.345 210.195H138.79H139.235L140.125 209.957L151.246 203.544L151.913 202.832L152.58 201.882L153.247 200.219L153.692 199.507L154.582 198.557L155.694 197.844L161.032 195.707L161.254 195.469L161.477 194.994L161.699 194.757L161.922 194.519H162.144H162.367L162.589 194.282L162.811 194.044L163.034 193.569L163.256 193.331L163.924 193.094L164.368 192.856L164.591 192.619L165.036 191.906L165.258 191.669L165.925 191.194L166.593 190.956L166.815 190.481H167.037L167.927 190.244L166.815 187.869L166.593 186.681V185.731V185.494L166.37 185.256L165.925 184.544L165.703 184.306L165.48 183.594V182.881L165.258 182.406L165.036 181.694L164.813 181.219L164.591 180.031L164.368 179.556V178.844V178.369L164.813 177.893V177.656V177.418V176.943L165.036 176.468V176.231L165.48 175.756V175.518L165.703 174.568V174.093L165.925 173.856L166.148 173.381L166.593 172.668L167.037 171.718L167.26 171.481L167.705 171.243L167.927 171.006L168.149 170.768L168.372 170.531V170.293V168.156V166.968L168.149 166.256L167.705 165.068L167.482 164.593L167.037 164.356L166.593 164.118L165.036 163.168L164.813 162.93H164.368H163.924H163.479L163.256 162.693L162.589 162.218H162.367H162.144H161.922H161.699L161.032 162.455L160.81 162.693H160.587L160.365 162.93L159.92 163.406V163.643H159.697H159.253H159.03L158.808 163.406L158.585 163.168L156.806 161.03V160.555L156.584 160.08V158.655V157.943L156.806 157.468V157.23V156.755L157.028 156.28L157.473 155.33V154.855L157.918 153.668H158.141H158.363L159.03 154.143H159.475L159.697 154.38L159.92 154.618L160.142 154.38H160.365H160.587L160.81 154.143V153.905L160.587 153.668V153.43L160.81 153.193L161.032 152.955L161.254 152.718H161.477L161.699 152.005V151.768L161.477 151.293V151.055V150.818L161.699 150.343L161.922 149.868L162.144 149.63L162.367 149.393L162.589 149.155H162.811H163.034H163.256L163.479 148.918L163.924 148.205L164.591 147.73L164.813 147.255V147.017L165.036 146.78L164.813 146.305V146.067H165.258V145.83V145.592V145.355L165.48 145.117L165.925 144.88V144.642L166.148 144.405H166.37L166.593 144.167H166.815V144.405H167.037H167.26H167.482L167.705 144.167L167.927 143.93L168.149 143.692L168.372 142.742L168.594 142.505L168.817 142.267L169.484 141.555L169.706 141.317L169.929 141.08H170.374H170.818L171.041 140.842L170.818 140.367L170.151 139.417L169.929 139.18V138.942V138.467L170.151 138.23V137.992L170.374 137.755L170.596 137.517L170.818 137.28L171.263 136.805L171.486 136.567H171.708H171.931H172.153L172.375 136.805H172.598H172.82L173.043 136.567H173.265L173.488 136.33V136.092V135.617V134.667L173.043 133.242L172.598 132.054L172.375 131.579L172.153 131.104L171.931 129.204L171.708 128.967L171.486 128.492L171.041 127.779L170.818 127.304L169.929 123.979L169.262 122.317L169.039 121.842L168.372 120.179L168.149 119.942L167.705 119.704H167.482V119.467L167.037 118.754L166.815 118.516L166.593 118.279L165.925 118.041H165.703L165.48 117.804L165.258 117.329L165.036 117.091L164.813 116.854L164.368 116.616L163.479 116.379L162.589 115.904L162.144 115.666L160.81 113.766L160.587 113.291L160.142 112.341V112.104H159.92V111.866L160.81 108.066V107.829L162.589 106.166L162.811 105.929L163.256 104.741L163.479 104.504L163.701 104.266V104.029L163.924 103.791L164.591 102.366L165.703 99.5158V99.2784L165.925 98.5658L165.258 94.5282V94.0532L165.48 93.5781L166.593 90.9656L166.815 89.303L168.149 88.5905H168.372L169.484 88.828H169.706H169.929H170.374H170.596V88.5905L171.041 88.353L171.263 87.878L171.708 87.403L171.931 87.1655V86.9279L172.598 86.4529H172.82L173.043 86.2154L173.932 84.0778L174.155 83.6028H174.377L174.6 83.3653H174.822L175.045 83.6028V83.8404H175.267V84.0778H175.712L175.934 84.3153H176.379H176.601H176.824L177.491 83.8404L177.936 83.6028L178.381 83.3653L178.603 83.1278H178.826L179.048 82.8903H179.493L181.495 83.1278H181.717L181.939 82.8903L182.607 82.6528L182.829 82.4153H183.052H183.941H184.164L184.609 82.1778L185.498 81.7027L185.721 81.4653H186.388L187.5 80.7527L187.722 80.5152V80.0402L187.945 79.5652L187.5 77.4276L187.722 76.2401V75.765L187.5 75.2901L187.055 73.865L186.833 73.39L186.166 66.9773V66.5022H185.943L185.721 66.2647L184.609 66.0273H184.386L183.941 65.5522L183.719 65.3147V65.0772H183.496V64.8397L183.052 59.1395L183.274 58.6645L183.496 58.1895L183.719 57.9519L183.941 57.7145L184.609 57.0019L185.053 56.5269L185.276 56.0519L185.943 55.1019L186.388 54.6268L186.833 53.6768V53.4393V52.9643L186.61 52.2518L185.943 50.8267L185.721 49.8767L185.498 49.6392L185.276 49.4017H185.053H184.609L183.719 49.6392H183.496V48.9267L185.053 40.8514V40.6139L185.276 40.1388V39.9014L185.498 39.6639L185.721 39.4263L186.166 38.9513L186.388 38.7138L187.278 38.4763L187.722 38.2388L189.502 38.0013L190.614 38.2388L191.726 38.4763L192.171 38.7138L196.619 41.0889L197.509 41.5639H197.731L198.176 41.3264H198.621L199.733 40.3764L200.623 39.6639V39.4263V39.1888L200.4 38.0013L200.178 36.5762V35.3887V35.1512V34.9137L199.956 34.6762L199.511 34.2011L199.288 33.7262V33.4886V33.2511V33.0136V32.7761L199.956 31.5886L200.178 31.3511V31.1136V30.876V30.6385L199.956 30.4011L199.288 29.451V29.2135L199.066 28.976V28.026V27.7885V27.5509L199.288 27.3134L199.733 26.3634L201.957 23.5133L202.18 23.2758L202.624 23.5133L203.292 23.7508L204.181 24.4634L207.74 26.3634L208.408 27.0759L209.297 27.7885L210.632 29.451V29.6885L210.854 30.1635L211.744 33.0136V33.2511H212.189L212.856 33.4886H214.19H215.302H215.525V33.7262L216.415 34.4387H216.859L218.861 33.9637H219.529H219.973L220.641 34.2011L220.863 34.4387L221.085 34.2011L221.753 33.7262L221.975 33.2511L222.42 32.3011L222.865 31.8261L223.977 31.1136L224.199 31.5886V32.0636L224.866 33.2511V33.4886V34.6762V34.9137L225.089 35.1512L226.201 36.8137V37.0513V37.2888V37.5263V37.7638V38.0013L225.534 38.7138L225.311 38.9513L224.644 41.0889L224.199 42.7514L223.31 44.889L222.42 46.7891L221.975 47.5016L221.753 47.7391L221.53 48.6891L221.308 48.9267V49.1642V49.4017L221.53 49.6392L221.753 49.8767H222.198L222.642 49.6392L223.087 48.9267L223.31 48.6891L223.754 48.4516L225.979 47.2641H226.201L226.423 47.0266L226.646 46.7891L227.091 46.0765L227.313 45.8391L227.536 45.364L227.98 44.414L228.203 44.1765L228.425 43.939H228.87H229.315L231.762 44.1765L232.429 44.414L235.765 44.889H236.21H236.432L237.989 43.939L239.546 42.2765L239.991 41.5639L240.214 40.6139L240.436 39.9014V39.6639L241.326 39.1888L241.993 38.7138L242.66 38.0013L242.883 37.7638L243.105 37.2888L243.327 37.0513L243.772 36.3388L244.217 35.8637L244.662 35.3887V35.1512V34.9137L244.884 34.6762L245.107 34.4387H246.219H246.441H246.664L246.886 34.6762L247.553 34.9137H247.998L249.11 34.6762L250 34.2011L251.779 33.2511L252.891 32.0636L253.559 31.3511L253.781 31.1136H254.226L254.893 30.876L255.338 30.6385H255.561L256.005 29.6885L256.228 29.451L256.45 29.2135L256.895 28.7385L257.117 28.501L257.34 27.7885L257.562 27.5509L259.119 26.1259L259.342 25.8884V25.6509L259.564 25.1759L259.786 24.9383V24.7008H260.009L260.454 24.4634H261.121H262.011L262.233 24.2258L262.9 23.9883H263.345H263.79H264.012L264.235 24.2258L264.457 23.9883L265.347 23.7508L275.133 17.8131L276.246 16.8631V16.6256V16.1506L276.468 15.9131L277.135 14.7255V14.2505V14.013V13.7755H277.58L278.025 13.538L278.47 13.3005L283.141 10.2129L283.808 9.2628L284.698 8.5503L284.92 8.31278L285.142 8.07526L285.365 7.83781L286.032 7.60028L287.144 6.65027L288.479 5.9377L288.924 5.70018L289.591 5.2252L293.817 3.80014L296.486 2.13756L298.043 1.90011L298.488 1.66258L298.932 1.42506L299.822 0.712567L300.045 0.475045H300.267H300.712L301.379 0.712567H301.824L302.269 0.475045H302.491L302.713 0.712567L303.603 0.950017H303.826H304.048L304.27 0.712567V0.475045L304.493 0.237522L304.715 0H304.938H305.16L305.605 0.475045L306.05 0.950017L306.717 1.42506L307.162 1.66258H307.607L308.052 1.42506L308.274 1.66258H308.496L308.719 1.90011H309.164H309.386L309.831 1.66258H310.053H310.276H310.721L311.166 1.90011H311.61H312.055L312.722 2.37508H313.167H313.39H313.612L314.279 1.90011H314.502V1.66258L314.724 1.90011H315.169L315.836 2.37508L316.726 3.08765L316.948 3.3251H318.061H318.505L318.95 3.08765H319.173H319.395L319.84 3.3251H320.062L320.73 3.80014L321.174 4.03766H321.397L321.619 3.80014H322.064L322.287 4.03766L322.731 4.27519L323.176 4.75016L323.843 4.98768L324.066 5.2252L323.399 6.41274L322.509 7.60028L322.064 9.2628L321.397 11.4004L320.73 12.8254L320.507 13.7755L320.285 14.2505L319.84 15.9131L320.062 16.6256L320.285 16.8631L320.507 17.5756L320.73 17.8131V18.0506V18.7631V19.0006V19.2382V19.4757L320.507 19.7132V19.9507V20.1882L320.73 20.9007V21.1382L320.952 21.3757L321.397 21.8508L321.619 22.0883L322.064 22.3257L322.509 22.5633L326.512 23.2758L326.735 23.5133L327.402 23.9883L327.625 24.4634L327.847 24.7008L337.411 27.3134L339.413 26.6009H339.635L339.858 26.3634L340.08 25.8884L340.302 25.6509L340.525 25.1759L341.192 24.7008L341.415 24.4634V24.2258L341.637 23.5133V23.2758H341.859L342.082 23.0383L342.304 22.8008L346.975 20.4257L348.31 20.1882L349.199 19.7132H349.422L350.089 19.4757H351.646L352.313 19.7132L353.648 19.9507L354.537 20.4257L356.539 20.9007H356.984H357.429H357.874L359.875 21.8508H360.32L360.988 21.6132L361.655 21.8508L361.877 22.0883L362.322 22.3257L362.989 22.8008L363.212 23.2758L363.434 23.5133L363.879 24.7008L364.101 24.9383L364.324 25.1759L367.883 28.026L368.772 28.7385L370.774 30.6385L371.219 31.1136L373.443 32.5386L373.665 33.0136L374.11 33.4886L374.333 33.7262L375.222 34.2011L375.667 34.4387L376.112 34.6762H376.557L378.336 34.2011H378.559L378.781 34.4387L379.448 35.1512L381.005 35.6262L382.117 36.5762L382.562 37.0513L383.007 37.7638L383.674 38.0013L385.009 39.1888L390.569 42.0389L391.459 42.5139L392.571 42.989L394.795 43.464H395.463H395.685L396.352 42.989H396.575H396.797L397.242 43.464L397.464 43.939L397.687 44.1765L397.909 44.414L399.021 44.889L399.244 45.1265L399.689 45.8391L399.911 46.0765V46.3141L400.134 46.5516H400.356L400.801 46.7891L401.023 46.5516L402.135 46.3141L402.358 46.0765H402.802H403.247L404.359 45.8391H405.027L406.361 46.3141H406.806L407.028 46.0765H407.251L407.696 45.8391L407.918 45.6016L409.475 44.889L410.142 44.414L410.365 43.939H410.587L410.81 43.7015H411.032H412.144L412.367 43.464H412.589L413.256 42.989L426.601 56.0519L432.829 62.2271L434.164 73.1525L434.609 74.5775L435.943 74.34L437.945 74.815L440.169 75.2901H440.391L440.614 75.5276L441.948 76.4776L442.838 76.2401L444.84 75.0525L446.619 74.5775L447.731 74.1025L449.288 72.6775L449.733 71.965L449.955 71.7274H450.4L450.623 71.4899L451.068 71.2524L451.29 71.0149H451.512H451.957L452.402 71.2524L453.514 71.965L453.959 72.2024H454.404H454.849L455.294 71.965L456.183 71.4899H456.406H456.628H457.073L457.518 71.7274L458.185 72.2024L458.407 72.4399L458.63 72.6775L459.742 74.34H459.964L460.187 74.5775L460.854 74.34H461.299L462.189 73.865L462.633 73.6275L463.968 73.1525H464.19L464.635 73.39L465.525 73.6275L467.749 74.815L468.194 75.2901L469.084 76.9526L469.306 77.1901H469.528H469.973H470.196L470.418 76.9526V76.7151H470.863H471.53V76.4776L472.42 76.2401L472.642 76.0026L473.087 76.2401L476.646 77.9027L477.98 78.3776L479.093 78.6152H479.982L480.649 78.3776H480.872L483.318 78.1401L483.763 78.3776L483.986 78.6152H484.431L484.653 79.3277V79.5652L484.431 79.8027V80.0402L484.653 80.2777V80.5152H485.098L485.765 80.7527L485.988 80.9902V81.2278V81.7027V81.9403L486.21 82.1778H486.655H486.877L487.322 81.9403H487.767H487.989L488.657 82.1778L489.324 82.6528L490.658 83.6028L491.103 84.3153L491.548 84.5529L491.77 85.5029L491.993 85.7404L492.215 85.9779L492.438 86.2154L493.55 86.9279L493.995 87.1655H494.217H494.439H495.107L495.774 86.9279L496.886 87.403L497.109 87.878V88.1155L497.331 88.5905L497.776 89.303L497.998 89.7781L498.666 90.253L498.888 90.4906L499.11 90.7281V90.9656L499.333 91.6781V91.9156L500 92.8656V93.3407V93.5781V94.0532V94.5282L499.555 94.7657L499.11 95.0032L498.888 95.2407L498.666 95.7158L497.998 97.3783L497.776 98.0908L497.553 99.5158V100.228V100.703L497.109 102.128L496.441 102.841L496.219 103.316L495.107 104.266L494.439 104.979L491.326 106.879L487.989 112.341L487.544 113.054L487.767 113.529V113.766V114.241V114.479L487.544 114.716H487.1H486.877H486.655L486.21 114.479H485.543H485.098L482.651 115.429L482.429 115.666L482.206 115.904L481.984 116.141L481.762 117.091V117.566L481.539 117.804L481.762 119.467V121.367L481.094 124.454V124.692L481.317 124.929V125.167V125.404L482.206 126.354L482.429 126.829L482.874 127.779V128.254V128.492V128.729V129.204L482.429 129.442L481.762 129.917L481.539 130.154L481.094 130.392V130.629L480.872 131.104H480.649L479.982 131.342H479.093H475.534L473.977 131.104L472.865 130.629H472.642H472.42L472.197 130.867L471.975 131.579L471.753 131.817L470.863 132.767L470.641 133.004V133.242L470.418 133.717L469.084 140.13L468.416 142.267L468.194 143.217V143.93L468.639 146.067L468.861 146.542L468.639 147.017V147.492V147.968V148.442V149.63V149.868V150.343V150.58L468.416 150.818H468.194L467.527 151.293H467.304V151.53L466.859 152.243V152.955L466.637 155.33V156.518V156.755V157.23L466.859 157.468L467.527 157.705H467.749H467.972L468.194 157.468V157.23L468.639 156.28L468.861 156.043V155.805H469.084L469.528 155.568H469.973L470.196 155.33H470.418H470.641L470.863 155.805V156.043L470.641 156.518L469.973 157.468V157.705L469.751 157.943V158.18V158.418L469.973 158.655L470.196 158.893L470.418 158.655H470.641L471.085 158.418L471.308 158.18H471.53L471.753 158.418L471.975 158.655L472.197 159.368L472.42 159.843V160.318V160.555L471.753 162.218V162.693V163.168V163.406L471.975 164.593V164.831L472.197 165.068L472.865 165.306H473.087H473.532L473.754 165.068H474.199H474.867H475.311L475.756 165.306L475.979 165.781L476.201 166.256L476.646 167.918L476.868 168.393L477.091 168.868L477.313 169.106L479.315 170.293L479.537 170.531L479.76 170.768L480.205 171.481V171.956L480.427 172.431L480.649 172.668L481.094 173.143L482.874 174.093L483.541 174.331L484.653 175.518L485.098 176.943L485.543 177.893V178.131V178.606V179.081L485.32 180.269L485.098 180.744L484.875 180.981L484.208 181.931L483.986 182.406L483.763 182.881L483.541 183.119L483.763 184.069L484.653 186.206L484.208 185.969L483.318 185.494H483.096L482.874 185.256L482.429 185.019V184.781H482.206L481.984 184.544H481.762H481.539H480.872H480.649H480.205H479.982L479.76 184.306L479.537 184.069L479.315 183.831V183.594L479.093 183.356H478.87H477.98H477.758L477.313 182.881L475.089 182.169H474.867L474.644 181.931V181.694L474.422 181.219V180.981H474.199L473.977 181.219L473.532 181.456V181.931V182.169L473.754 183.119V183.356L473.532 183.594L473.31 183.831H473.087H472.642H472.42L472.197 183.594L471.975 183.356L471.085 182.406H470.863H470.641H470.418H469.973L468.416 182.881H467.749L467.304 183.356L465.303 184.544L464.635 185.019L463.968 185.256L463.523 185.019H462.856L461.521 184.544H461.299H461.077L460.632 184.781L459.964 185.256L459.297 185.494L458.63 185.969H458.407H458.185H457.963L457.74 185.731L457.295 185.494L457.073 185.256H456.851H456.628H456.406L455.516 185.494L455.071 185.731H454.626L454.404 185.494H454.182L453.959 185.256L453.514 184.781H453.292H453.069L452.847 185.019V185.494V185.731L453.069 185.969L459.075 192.144H459.297V192.619V192.856L459.52 193.331V194.282V194.757L459.297 194.994H458.63H458.407H457.74H456.628H456.406L455.961 194.757L455.516 194.282L455.294 194.044L454.626 193.807L454.404 193.569L453.959 192.856H453.737L453.514 192.619H453.292H453.069H452.625H452.402H452.18L451.735 192.856L451.29 193.331L448.398 196.182H448.176H447.954H447.064H446.619L446.397 196.419L446.174 196.894L445.73 197.607L444.84 199.507L443.95 200.694L442.838 201.644V201.882L442.616 202.357L442.838 203.069V203.544L443.283 204.257V204.969L442.393 206.869L442.838 207.107H443.061L443.728 206.632L445.062 205.207L445.285 205.682L445.73 205.919L446.174 206.157L446.842 206.632L447.286 206.869L447.731 207.345L447.954 207.582L448.621 208.532V208.77L448.843 209.245L449.066 210.195L448.843 210.907V212.332L448.621 214.47L448.176 217.082L447.731 219.457V219.695V220.17L447.954 220.407V220.645H448.176L448.398 220.883H448.843L451.29 221.12H451.512H451.735L451.957 221.357V221.595L452.18 221.832V222.07L452.402 222.307L452.847 225.633V226.345V226.583L452.625 227.058L452.402 227.533V227.77L452.18 228.008L451.735 228.483H451.512L450.845 228.72L449.955 228.958L445.062 229.195L444.617 228.958L444.395 228.72V228.483V228.245L444.173 228.008H443.95H443.505H442.616H441.504H440.169L439.724 228.245L439.279 228.483H439.057L438.834 228.72L438.612 229.195V229.433L438.39 229.67V229.908V230.145L438.612 230.383L439.279 230.858L439.724 231.808V232.045L439.947 232.283L440.614 232.52L441.059 232.758L441.504 232.995H441.726H441.948H442.171L442.616 232.52L442.838 232.283L443.283 232.045H443.505H443.728H444.173H444.395L444.617 232.283L444.84 232.52H445.062L445.507 233.47V233.708H445.73L445.952 233.945L446.619 234.183L446.842 234.42L446.619 234.895V235.37V235.845H446.842L447.286 236.083H447.509L447.731 236.321L447.954 236.558V236.795L447.731 237.745L446.842 239.408V239.883V240.121L447.064 240.596H447.286L447.731 240.833H448.176L448.398 241.071L450.623 243.446L450.845 243.921L451.512 244.871L451.735 245.108L451.957 246.533V248.196V249.621L451.735 250.808V251.283L451.957 251.759H452.18V251.996L452.402 252.233V252.708L452.18 254.134V255.559V256.034L451.957 256.271L451.068 258.884L450.845 259.596V260.071L451.068 260.546V260.784V261.021V261.496L450.845 261.734L450.623 261.971L450.4 262.446L449.955 262.921L449.511 263.159L449.288 263.396L448.843 263.159H448.621H448.398L447.509 262.446H447.286L447.064 262.684L446.842 263.159V263.396V263.634L447.064 263.871L447.731 265.296V265.534V265.771L447.509 266.246L446.174 267.909L445.952 268.147H445.73H445.507H445.285L445.062 268.384L444.617 268.859L444.395 269.572L443.95 269.809L442.616 270.759H442.393L441.948 271.234L441.726 272.659L441.059 277.647V278.122V278.834L440.836 281.684L440.614 281.922L440.391 282.16L439.724 282.635L439.502 282.872L438.612 284.06L438.167 284.297H437.945H437.5H437.278H437.055H436.833L436.61 284.535L436.388 284.772L435.943 285.485L435.498 285.96V286.197L435.276 286.435V287.147V288.335L435.053 289.047L434.164 292.372L433.719 294.035V294.51V294.985V295.222L432.607 298.073L432.384 298.31L432.162 298.548L431.495 298.785L430.827 299.26H429.493L417.037 299.023L416.37 299.26L415.925 299.498L415.703 299.735L415.258 300.21V300.448L414.591 302.823L414.368 303.298L413.923 303.535L412.589 304.485L411.699 304.96L411.477 305.435L411.032 305.91L410.81 306.148V306.385V306.86V307.335L411.032 307.573L411.255 308.285L411.477 308.998L411.699 309.235L411.922 309.473L413.479 310.185L412.811 312.561V313.986L413.034 314.223L413.479 315.411V315.648L413.256 315.886L413.034 316.123L412.589 316.361L412.367 316.598V316.836L411.699 318.973L411.477 319.448L410.81 320.398V320.636V320.873H411.032H411.255H411.477L411.922 320.636L412.144 320.398H412.367L412.589 320.636L412.811 320.873V321.111V321.586L411.699 323.011L411.477 323.486L410.587 325.861L410.142 326.336L409.92 326.811H409.698L409.475 327.048L409.698 327.524V327.761L410.365 328.236L409.92 328.711L409.698 328.949L409.475 329.186L408.808 329.424H408.363L407.918 329.661L407.473 330.849L407.696 331.324L407.473 331.561L406.806 332.986L405.916 334.886L405.694 335.124L405.471 335.599L405.027 335.836L404.804 336.074H404.582H404.359H403.915H403.692L403.47 335.836V335.599H403.247H403.025L402.135 335.836H401.69H401.468H401.246H400.801L400.578 335.361H400.356L399.911 335.599L399.689 336.074L399.244 336.549L398.799 336.786L398.354 337.024L398.132 337.261L397.909 337.736L398.132 338.449V338.924L398.354 339.161H398.577L398.799 339.399H399.021H399.689L399.911 339.637V340.111L399.689 341.061L398.799 342.962L398.354 343.674L397.687 344.624L397.464 345.099L397.242 346.049L397.02 346.524L396.797 346.762L396.352 347.237V347.474L396.13 347.949V348.662V349.137L396.352 349.612V350.087L396.13 350.562L395.018 353.174L394.795 354.124L394.35 356.975L391.904 358.875L391.681 359.112L391.014 360.537V360.775V361.25V362.912V363.862L390.792 364.337V364.575L388.79 368.137L387.9 370.038L387.678 371.462V371.938V372.175H388.123H388.345H388.568L389.013 372.413L389.457 372.65H389.68H390.125L390.347 372.413H390.569H390.792H391.014H391.237L391.681 372.65V372.888H391.904L392.126 373.363L392.349 373.838L392.571 374.075L392.349 374.788L391.681 376.213L391.237 376.45L390.347 377.4L389.902 377.638H389.235L388.568 377.163H387.9L387.456 377.638L387.011 378.113L386.121 378.825L383.674 379.538L379.448 382.15L373.888 384.288L370.552 386.425L364.546 389.038L363.879 389.513L362.322 390.938L361.655 391.413L358.763 391.651L357.874 392.363L357.429 393.076L357.206 393.788L356.762 394.738L356.539 394.976L355.427 394.501H354.76L354.315 394.976L353.87 395.688L353.203 395.926V395.451L352.98 395.213V394.976V394.738V394.501L353.203 394.263V394.026L353.425 393.788L353.648 393.551V393.313V393.076V392.601V392.363H353.425L353.203 392.126H352.091H350.979L350.311 392.363L349.644 392.126H349.199L348.977 391.888L348.532 391.651L348.31 391.413H348.087H347.642H346.308H345.641H345.418L345.196 391.176H344.973H344.751H344.084L342.972 391.413L339.413 393.551L338.746 393.788L338.523 394.026H337.856H336.966H336.521L335.854 394.263L335.187 394.501H334.52L334.297 394.263H334.075L333.852 394.026L333.408 393.551L333.185 393.313L332.963 393.551L332.518 393.788L332.295 394.026H332.073H331.628L331.183 393.788H330.738H330.516L330.071 394.263L329.626 394.738H329.404L329.181 394.501L328.737 394.263H328.514H328.069L327.18 394.738H326.735L326.068 394.976L325.845 394.738H325.623L325.4 394.501L325.178 394.263V394.026H324.955L324.733 393.788H324.288L322.954 394.263L320.507 395.451L319.84 395.926L319.395 396.401L318.728 396.638L317.171 397.113L311.833 399.488H311.61L311.166 399.726H310.943L310.498 399.963L309.609 401.151L309.164 401.389L304.938 404.001L303.826 404.239H303.158L302.936 404.001L302.713 403.764L302.491 403.526H302.269H301.824H301.601L299.6 403.764H298.932L296.708 404.239L296.263 404.001H295.819H295.374L294.929 404.239L291.37 406.376L291.148 406.614H290.925L290.258 406.851L289.146 407.089L287.811 407.326H287.367L287.144 407.564L286.477 408.276L285.81 409.464L285.587 409.701V409.939H284.92L284.03 409.701L282.918 409.464H282.473H282.028L280.027 410.176L279.137 410.651L277.358 412.076L274.466 413.739L273.354 414.214H273.132H272.464H271.13H270.685L270.24 414.452L269.573 414.926L269.128 415.164H268.683L267.794 414.926L267.349 415.164L264.68 416.352L264.235 416.827L261.788 418.252L261.566 418.489L260.676 419.202L260.009 419.914L259.786 420.152H259.342H258.897H258.674V420.389V421.102V421.339L258.452 421.814L258.007 422.052L257.785 422.289L254.448 423.239L252.447 424.427L252.002 424.664H251.779L251.557 424.427L251.335 424.189V423.952V423.239V423.002L251.112 422.764V422.527L250.667 422.052H250.445L250.222 421.814H249.778H249.555L249.333 422.052L248.665 423.239L248.443 423.477L247.998 423.714L247.108 424.427L246.664 424.664H246.219L244.662 424.427L244.44 424.189V423.952L244.217 423.714V423.477V423.239L243.995 423.002H243.772H243.55H243.327L242.438 423.714L241.326 424.427L240.881 424.664H240.436H240.214H239.991L239.769 424.427H239.546L239.324 424.189V423.714V423.477L239.546 423.239L239.769 423.002L240.214 422.527L240.436 422.052L240.658 421.577L240.881 421.339L240.658 421.102H239.991L238.212 421.339H237.322L236.877 421.814L237.1 422.052V422.289L237.322 422.527L237.989 423.239V423.477V423.714L238.212 423.952L237.989 424.427L237.767 424.664L233.986 427.277H233.763V427.514V427.989V428.227H233.986L234.208 428.464H234.431H234.653H235.765H236.432H236.655H236.877L237.1 428.702L237.322 428.939V429.177V429.414V429.89V430.364V431.315L237.1 431.552L236.877 432.027L236.655 432.265L236.432 432.027L235.987 431.79H235.543H235.32V432.027L235.098 432.265L235.32 432.74V432.977V433.215L235.543 433.452V433.69L235.32 434.165V434.402L234.875 434.877H234.653H234.431H234.208L233.986 434.64V434.402L233.763 434.165V433.927L233.541 433.69H233.096L232.874 433.927L232.429 434.165L231.984 434.877L231.762 435.115L231.539 435.59H231.094L230.649 435.115L230.205 434.877L229.76 434.64V434.402L229.537 434.165L229.315 433.69V433.452L228.87 433.215L228.648 433.452V433.69L228.203 434.165L227.98 434.402H227.758L227.313 434.165H226.868H226.423V434.402L225.979 434.877V435.115L225.534 435.59L225.089 435.827L224.644 436.065L224.199 436.302L223.087 436.54L219.529 437.252L218.639 437.015L218.416 436.777V436.54V436.302L218.639 436.065L218.861 435.827V435.59V435.352L218.639 435.115L218.416 434.877H218.194L216.637 435.115L216.415 435.352H216.192L215.97 435.59L215.747 435.827L215.302 436.065L214.858 436.302H214.635L214.19 436.065L213.968 435.827H213.745L213.523 436.065L213.301 436.302L213.078 436.54H212.633H212.189L211.744 436.302L211.299 436.065H210.409L209.964 435.827H209.742L209.52 435.59L209.297 435.352L209.075 434.64L208.852 434.165V433.452V432.977V431.79V431.552V431.315L209.297 430.602L209.075 430.127L208.63 429.652L205.961 427.989L205.294 427.277L203.959 426.327V426.089L203.737 425.614L203.959 425.377V425.139H204.181L204.626 424.664L206.851 423.952L207.073 423.714L207.295 423.477L207.518 423.002V422.764L206.851 421.814L206.628 421.577L206.406 421.102V420.389V420.152L206.628 419.677H206.851L207.295 419.439L207.518 419.202V418.964L207.74 418.489V418.252H207.518H206.851H206.183L205.294 418.014L204.849 417.777L202.847 416.352L201.957 415.876H201.068L200.845 415.639L200.623 415.401V414.926V414.214V413.739L200.4 413.501H200.178L198.621 413.264L196.397 412.314L195.952 411.839L195.507 411.601V411.126L195.73 410.176L195.507 409.939V409.464L193.95 407.564L193.728 407.326L193.505 406.851L193.728 405.664L195.285 401.626L196.174 400.201L196.842 399.726L197.954 398.538L198.176 398.063V397.826L197.064 396.163L196.842 395.926H196.619L196.397 395.688H195.062H194.617L194.395 395.451L194.173 395.213L193.95 394.738L193.728 394.501L193.95 394.263L194.173 394.026H195.062L195.285 393.788L195.507 393.551V393.313L195.285 393.076L195.062 392.601V392.363L195.285 392.126L195.507 391.651L195.73 391.413H195.952H196.174H196.397H196.619L197.064 391.176L197.286 390.701L197.509 390.463V390.226L196.619 388.801L195.507 385.951V385.475V385.238L195.952 384.763L196.174 384.288V384.05V383.813L195.952 383.576V383.338H195.73L195.507 383.1L195.285 382.863L195.062 382.15V381.675V381.438L195.285 381.2L195.507 380.963L195.73 380.488L196.619 380.013L196.842 379.775V379.063L197.731 375.025L197.954 374.55H198.176L199.288 374.788H199.511L199.733 374.55L199.956 374.313L200.845 371.7L201.068 371.462V371.225H201.29L201.735 370.75L201.957 370.513V370.275L201.735 370.038V368.612L201.957 367.9L202.18 367.425V367.187H202.402L202.847 366.712L203.069 366.475V366.237H202.847V365.762L202.624 365.525L202.402 363.15V362.912L202.18 362.675L201.957 362.437L201.735 362.2L201.512 361.962H201.29L200.623 361.725L200.178 361.487H199.733H199.511L199.288 361.725H198.843H198.621H198.399H198.176L197.954 361.25V361.012L197.731 360.537H197.509L196.842 360.3L196.619 360.062L196.397 359.587V358.637H196.174H195.952H195.73L195.285 359.112L194.84 359.825H194.617L194.395 360.062L194.173 359.825H193.95L193.06 359.112L191.948 358.4L190.836 358.162L190.614 357.924H190.391L189.947 358.162L188.612 357.924L188.39 358.162H188.167V358.4L187.945 358.875L187.722 359.112L187.5 359.35H187.278L187.055 359.587H186.61H186.388L186.166 359.825L185.721 360.062L185.498 360.3H185.276H185.053L181.495 360.775L180.827 360.537L180.383 360.3V360.062V359.825V359.587L180.605 358.4L180.827 358.162L180.605 357.687V357.45V357.212L179.715 355.787L179.493 355.312L179.27 354.124L179.048 353.649L178.381 351.512L177.936 350.087V349.612H177.491L177.269 349.374L176.824 349.137L174.822 346.287L174.6 345.812L174.377 345.574V344.149V343.674L173.488 340.349V339.874V339.637V339.399L173.71 338.924L173.932 338.686L173.71 338.449L173.265 337.974L172.82 337.499L172.375 336.549L171.931 336.074L171.708 335.836H171.486H171.041L170.818 335.599L170.374 335.124V334.886L170.151 334.411L170.596 333.461L170.818 329.661L171.263 328.711L171.931 328.236L172.153 327.999L172.375 327.761L172.82 326.811L173.043 326.099V325.623L173.265 324.436L173.488 324.198L173.71 323.961H174.155L174.6 323.723L174.822 323.486L175.267 323.011V322.536L175.489 322.061V321.111V320.873L174.377 316.598L174.155 316.123L173.932 315.886L173.71 315.648V315.411L173.488 315.173L169.039 313.036L168.594 312.561L167.482 311.136L167.26 310.898V310.423V310.185L167.482 309.71V308.998L167.705 307.81L167.927 304.723V303.773L168.149 303.298V303.06H168.372L169.039 302.348L169.262 302.11V301.873L169.484 301.398L169.706 300.685V300.21V299.973V299.023L169.262 298.073L168.817 296.885L167.037 295.46L166.593 294.747L163.479 292.372H162.811L162.367 292.135L161.699 291.66L160.587 290.472V290.235L160.81 289.997V289.522V289.047L161.032 288.81V288.335L160.81 287.86L160.587 287.622L159.697 286.91L159.253 286.435L158.585 286.91L157.473 287.385L156.584 287.622L155.472 287.86L154.359 288.097L153.915 288.81L153.47 289.522L152.803 290.235L151.913 290.472L151.023 289.997L149.911 288.335L149.021 287.385L148.354 287.147L142.571 287.385L142.126 287.622L141.682 288.097L141.459 288.572L141.014 288.81V289.285L141.459 290.235V291.185L141.237 292.372L140.792 293.56L140.125 294.035L139.68 294.272H139.235H138.79L138.345 294.035L138.123 293.322L137.9 292.847V292.135V291.66L137.455 290.947L137.011 290.472L136.566 290.235L135.899 289.997V292.372L135.676 293.322L135.231 294.272L135.009 294.51L134.342 294.747H134.119L133.897 294.985L133.674 295.46L133.452 295.698L132.785 296.172H132.34H131.895L130.561 295.222L128.781 294.51L127.891 293.797L127.447 292.61L127.002 291.185L126.557 290.235L125.445 289.285L124.555 290.71L125.667 294.272L124.555 295.46H123.888L122.331 294.51L121.441 294.035H117.66L115.658 294.51L114.546 294.747L114.101 294.985L113.657 295.222L110.098 294.747L109.208 295.222L107.651 296.41L106.984 296.647L106.094 296.41L103.425 295.935H102.758L100.979 296.172H98.7545L97.6424 296.885L97.1975 298.073L96.7527 299.498L96.3078 300.923L95.6406 301.873V302.348L95.8629 302.823L96.0854 303.773V306.385L96.3078 307.098L96.5303 308.523L96.7527 309.235L96.5303 309.71L95.1957 310.898L94.5285 310.423L92.5266 309.473L92.0819 308.998L91.8594 304.96L92.0819 300.21L91.637 297.835L90.5249 296.172L88.968 295.935L87.6335 297.123L86.2989 300.685L85.4093 302.11L84.0747 303.535L82.5177 304.248L80.9609 303.535L80.516 302.823L79.8488 300.923L78.7367 299.26L77.6246 296.885L77.4021 295.935L76.9572 293.56V292.372L77.4021 290.947V290.472L77.6246 289.76L77.847 289.522H78.0693L79.6263 288.81L79.8488 287.86L79.4039 287.385L78.5142 286.91L77.6246 286.672L76.5125 286.91L73.3986 287.622L72.5088 286.91L68.5053 285.485L66.2811 285.01H51.1566L45.1512 284.06L30.6939 281.922L29.5818 281.209L28.0249 279.072L26.9128 277.884L25.5783 277.409H24.0213L22.4644 277.884L20.9075 278.834L20.0178 280.734L16.6815 284.297L15.7918 284.772L14.6797 285.247L6.89503 288.335L6.00537 288.81L3.3363 291.185L1.33453 293.797Z" fill="#72B5FF"/>
<path d="M244.6 206C246.173 206.294 247.467 207.08 248.48 208.36C249.493 209.64 250 211.107 250 212.76C250 214.254 249.627 215.574 248.88 216.72C248.16 217.84 247.107 218.72 245.72 219.36C244.333 220 242.693 220.32 240.8 220.32H228.76V192.4H240.28C242.173 192.4 243.8 192.707 245.16 193.32C246.547 193.934 247.587 194.787 248.28 195.88C249 196.974 249.36 198.214 249.36 199.6C249.36 201.227 248.92 202.587 248.04 203.68C247.187 204.774 246.04 205.547 244.6 206ZM234.36 203.92H239.48C240.813 203.92 241.84 203.627 242.56 203.04C243.28 202.427 243.64 201.56 243.64 200.44C243.64 199.32 243.28 198.454 242.56 197.84C241.84 197.227 240.813 196.92 239.48 196.92H234.36V203.92ZM240 215.76C241.36 215.76 242.413 215.44 243.16 214.8C243.933 214.16 244.32 213.254 244.32 212.08C244.32 210.88 243.92 209.947 243.12 209.28C242.32 208.587 241.24 208.24 239.88 208.24H234.36V215.76H240ZM268.863 220.32L262.703 209.44H260.063V220.32H254.463V192.4H264.943C267.103 192.4 268.943 192.787 270.463 193.56C271.983 194.307 273.116 195.334 273.863 196.64C274.636 197.92 275.023 199.36 275.023 200.96C275.023 202.8 274.49 204.467 273.423 205.96C272.356 207.427 270.77 208.44 268.663 209L275.343 220.32H268.863ZM260.063 205.24H264.743C266.263 205.24 267.396 204.88 268.143 204.16C268.89 203.414 269.263 202.387 269.263 201.08C269.263 199.8 268.89 198.814 268.143 198.12C267.396 197.4 266.263 197.04 264.743 197.04H260.063V205.24ZM297.128 203.68V208.4H280.168V203.68H297.128ZM304.528 214C307.088 211.867 309.128 210.094 310.648 208.68C312.168 207.24 313.435 205.747 314.448 204.2C315.462 202.654 315.968 201.134 315.968 199.64C315.968 198.28 315.648 197.214 315.008 196.44C314.368 195.667 313.382 195.28 312.048 195.28C310.715 195.28 309.688 195.734 308.968 196.64C308.248 197.52 307.875 198.734 307.848 200.28H302.408C302.515 197.08 303.462 194.654 305.248 193C307.062 191.347 309.355 190.52 312.128 190.52C315.168 190.52 317.502 191.334 319.128 192.96C320.755 194.56 321.568 196.68 321.568 199.32C321.568 201.4 321.008 203.387 319.888 205.28C318.768 207.174 317.488 208.827 316.048 210.24C314.608 211.627 312.728 213.307 310.408 215.28H322.208V219.92H302.448V215.76L304.528 214ZM340.857 198.44C340.591 197.32 340.124 196.48 339.457 195.92C338.817 195.36 337.884 195.08 336.657 195.08C334.817 195.08 333.457 195.827 332.577 197.32C331.724 198.787 331.284 201.187 331.257 204.52C331.897 203.454 332.831 202.627 334.057 202.04C335.284 201.427 336.617 201.12 338.057 201.12C339.791 201.12 341.324 201.494 342.657 202.24C343.991 202.987 345.031 204.08 345.777 205.52C346.524 206.934 346.897 208.64 346.897 210.64C346.897 212.534 346.511 214.227 345.737 215.72C344.991 217.187 343.884 218.334 342.417 219.16C340.951 219.987 339.204 220.4 337.177 220.4C334.404 220.4 332.217 219.787 330.617 218.56C329.044 217.334 327.937 215.627 327.297 213.44C326.684 211.227 326.377 208.507 326.377 205.28C326.377 200.4 327.217 196.72 328.897 194.24C330.577 191.734 333.231 190.48 336.857 190.48C339.657 190.48 341.831 191.24 343.377 192.76C344.924 194.28 345.817 196.174 346.057 198.44H340.857ZM336.777 205.72C335.364 205.72 334.177 206.134 333.217 206.96C332.257 207.787 331.777 208.987 331.777 210.56C331.777 212.134 332.217 213.374 333.097 214.28C334.004 215.187 335.271 215.64 336.897 215.64C338.337 215.64 339.471 215.2 340.297 214.32C341.151 213.44 341.577 212.254 341.577 210.76C341.577 209.214 341.164 207.987 340.337 207.08C339.537 206.174 338.351 205.72 336.777 205.72ZM353.083 214C355.643 211.867 357.683 210.094 359.203 208.68C360.723 207.24 361.99 205.747 363.003 204.2C364.016 202.654 364.523 201.134 364.523 199.64C364.523 198.28 364.203 197.214 363.563 196.44C362.923 195.667 361.936 195.28 360.603 195.28C359.27 195.28 358.243 195.734 357.523 196.64C356.803 197.52 356.43 198.734 356.403 200.28H350.963C351.07 197.08 352.016 194.654 353.803 193C355.616 191.347 357.91 190.52 360.683 190.52C363.723 190.52 366.056 191.334 367.683 192.96C369.31 194.56 370.123 196.68 370.123 199.32C370.123 201.4 369.563 203.387 368.443 205.28C367.323 207.174 366.043 208.827 364.603 210.24C363.163 211.627 361.283 213.307 358.963 215.28H370.763V219.92H351.003V215.76L353.083 214Z" fill="white"/>
</svg>
