<svg xmlns="http://www.w3.org/2000/svg" width="500" height="438" fill="none"><path fill="#72B5FF" d="m1.335 293.797-.445-3.8v-6.412L0 275.984v-1.425l.222-1.425 1.113-1.425.222-1.187v-3.325l.222-.238.445-.237h.89l.222-.238.668-.95-.223-.713-.667-.95-.445-.95.222-1.187.445-.713.668-.237.89.237.444.238.667.712.445.238.223.237h.222l.222-.237.445-.475h.223l.667-.475-.667-.95-1.335-1.663v-.95l1.112-1.662.223-1.188v-1.187l.445-.951.444-.949.89-.713 1.557-1.188.89-.712.222-.713.223-1.425.667-.712.667-.238.89-.712 1.112-1.425.89-.475 1.779.712h1.112l1.112-.475.89-.475.445-.712 1.112-1.9.444-.475h.223v-.475l.222-.475v-.475l.223-.238-.223-.475v-.95l-.222-.712-.445-.713v-1.425h.223l1.112-.95 1.112-1.425 5.56-8.55 1.335-.713 1.334-.475 6.895-1.425 1.112-.238 1.335-.95.89-.475.89-.475 1.111-.237 4.226.237 2.892.475 1.557-.237 9.341-4.038.89-.237.667-.475.668-.475.667-.95h.222l.445-.238h.89l.222.238v.237l.222.238.668 1.9.445.95 1.557 1.9.667.95.667.475h.667l.668-.475 7.34-7.838 1.334-1.662.667-.713.89-.712 5.116-2.138 3.114-1.9 1.556.237 2.67.713 1.779.237 9.119-.475 11.121.475 2.892-.237 1.779.237 2.002.475 2.001.95 1.113.951.667.237v.238l.445.237h2.001l.668-.237h.222l.223.237v.237l.222.238.222.238.445.237.445.238h.667l1.557.237 1.335.475.222.238h.89l.89-.238 11.121-6.413.667-.712.667-.95.667-1.663.445-.712.89-.95 1.112-.713 5.338-2.137.222-.238.223-.475.222-.237.223-.238h.445l.222-.237.222-.238.223-.475.222-.238.668-.237.444-.238.223-.237.445-.713.222-.237.667-.475.668-.238.222-.475h.222l.89-.237-1.112-2.375-.222-1.188v-1.187l-.223-.238-.445-.712-.222-.238-.223-.712v-.713l-.222-.475-.222-.712-.223-.475-.222-1.188-.223-.475v-1.187l.445-.476v-.95l.223-.475v-.237l.444-.475v-.238l.223-.95v-.475l.222-.237.223-.475.445-.713.444-.95.223-.237.445-.238.222-.237.222-.238.223-.237v-3.563l-.223-.712-.444-1.188-.223-.475-.445-.237-.444-.238-1.557-.95-.223-.238h-1.334l-.223-.237-.667-.475h-.89l-.667.237-.222.238h-.223l-.222.237-.445.476v.237h-.89l-.222-.237-.223-.238-1.779-2.138v-.475l-.222-.475v-2.137l.222-.475v-.713l.222-.475.445-.95v-.475l.445-1.187h.445l.667.475h.445l.222.237.223.238.222-.238h.445l.223-.237v-.238l-.223-.237v-.238l.223-.237.222-.238.222-.237h.223l.222-.713v-.237l-.222-.475v-.475l.222-.475.223-.475.222-.238.223-.237.222-.238h.667l.223-.237.445-.713.667-.475.222-.475v-.238l.223-.237-.223-.475v-.238h.445v-.712l.222-.238.445-.237v-.238l.223-.237h.222l.223-.238h.222v.238h.667l.223-.238.222-.237.222-.238.223-.95.222-.237.223-.238.667-.712.222-.238.223-.237h.889l.223-.238-.223-.475-.667-.95-.222-.237v-.713l.222-.237v-.238l.223-.237.222-.238.222-.237.445-.475.223-.238h.667l.222.238h.445l.223-.238h.222l.223-.237v-1.663l-.445-1.425-.445-1.188-.223-.475-.222-.475-.222-1.9-.223-.237-.222-.475-.445-.713-.223-.475-.889-3.325-.667-1.662-.223-.475-.667-1.663-.223-.237-.444-.238h-.223v-.237l-.445-.713-.222-.238-.222-.237-.668-.238h-.222l-.223-.237-.222-.475-.222-.238-.223-.237-.445-.238-.889-.237-.89-.475-.445-.238-1.334-1.9-.223-.475-.445-.95v-.237h-.222v-.238l.89-3.8v-.237l1.779-1.663.222-.237.445-1.188.223-.237.222-.238v-.237l.223-.238.667-1.425 1.112-2.85v-.238l.222-.712-.667-4.038v-.475l.222-.475 1.113-2.612.222-1.663 1.334-.712h.223l1.112.237h1.112v-.237l.445-.238.222-.475.445-.475.223-.238v-.237l.667-.475h.222l.223-.238.889-2.137.223-.475h.222l.223-.238h.222l.223.238v.237h.222v.238h.445l.222.237h.89l.667-.475.445-.237.445-.238.222-.237h.223l.222-.238h.445l2.002.238h.222l.222-.238.668-.237.222-.238h1.335l.445-.237.889-.475.223-.238h.667l1.112-.712.222-.238v-.475l.223-.475-.445-2.137.222-1.188v-.475l-.222-.475-.445-1.425-.222-.475-.667-6.413v-.475h-.223l-.222-.237-1.112-.238h-.223l-.445-.475-.222-.237v-.238h-.223v-.237l-.444-5.7.222-.476.222-.474.223-.238.222-.237.668-.713.444-.475.223-.475.667-.95.445-.475.445-.95v-.713l-.223-.712-.667-1.425-.222-.95-.223-.238-.222-.237h-.667l-.89.237h-.223v-.712l1.557-8.076v-.237l.223-.475V39.9l.222-.237.223-.238.445-.475.222-.237.89-.238.444-.237 1.78-.238 1.112.238 1.112.237.445.238 4.448 2.375.89.475h.222l.445-.238h.445l1.112-.95.89-.712v-.475L200.4 38l-.222-1.425v-1.662l-.222-.238-.445-.475-.223-.475v-.95l.668-1.187.222-.238v-.713l-.222-.237-.668-.95v-.238l-.222-.237v-1.425l.222-.238.445-.95 2.224-2.85.223-.237.444.237.668.238.889.712 3.559 1.9.668.713.889.712 1.335 1.663v.238l.222.474.89 2.85v.238h.445l.667.238h2.669v.237l.89.713h.444l2.002-.475h1.112l.668.237.222.238.222-.238.668-.475.222-.475.445-.95.445-.475 1.112-.712.222.475v.475l.667 1.187v1.663l.223.237 1.112 1.663V38l-.667.713-.223.237-.667 2.138-.445 1.662-.889 2.138-.89 1.9-.445.713-.222.237-.223.95-.222.238v.475l.222.237.223.238h.445l.444-.238.445-.712.223-.238.444-.237 2.225-1.188h.222l.222-.237.223-.238.445-.712.222-.238.223-.475.444-.95.223-.238.222-.237h.89l2.447.237.667.238 3.336.475h.667l1.557-.95 1.557-1.663.445-.712.223-.95.222-.713v-.237l.89-.475.667-.475.667-.713.223-.237.222-.475.222-.238.445-.712.445-.475.445-.475v-.475l.222-.238.223-.237h1.557l.222.237.667.238h.445l1.112-.238.89-.475 1.779-.95 1.112-1.187.668-.713.222-.237h.445l.667-.238.445-.238h.223l.444-.95.223-.237.222-.238.445-.475.222-.237.223-.713.222-.237 1.557-1.425.223-.238v-.237l.222-.475.222-.238v-.237h.223l.445-.238h1.557l.222-.237.667-.238h1.112l.223.238.222-.238.89-.237 9.786-5.938 1.113-.95v-.712l.222-.238.667-1.187v-.951h.445l.445-.237.445-.238 4.671-3.087.667-.95.89-.713.222-.237.222-.238.223-.237.667-.238 1.112-.95 1.335-.712.445-.238.667-.475 4.226-1.425 2.669-1.662 1.557-.238.445-.237.444-.238.89-.712.223-.238h.667l.667.238h.445l.445-.238h.222l.222.238.89.237h.445l.222-.237V.475l.223-.237.222-.238h.445l.445.475.445.475.667.475.445.238h.445l.445-.238.222.238h.222l.223.237h.667l.445-.237h.89l.445.237h.889l.667.475h.89l.667-.475h.223v-.237l.222.237h.445l.667.475.89.713.222.237h1.557l.445-.237h.445l.445.237h.222l.668.475.444.238h.223l.222-.238h.445l.223.238.444.237.445.475.667.238.223.237-.667 1.188-.89 1.187-.445 1.663-.667 2.137-.667 1.425-.223.95-.222.476-.445 1.662.222.713.223.237.222.713.223.237v1.663l-.223.237v.475l.223.713v.237l.222.238.445.475.222.237.445.238.445.237 4.003.713.223.237.667.475.223.475.222.238 9.564 2.612 2.002-.712h.222l.223-.238.222-.475.222-.237.223-.475.667-.475.223-.238v-.237l.222-.713v-.237h.222l.223-.238.222-.237 4.671-2.375 1.335-.238.889-.475h.223l.667-.237h1.557l.667.237 1.335.238.889.475 2.002.475h1.335l2.001.95h.445l.668-.238.667.238.222.237.445.238.667.475.223.475.222.237.445 1.188.222.237.223.238 3.559 2.85.889.712 2.002 1.9.445.476 2.224 1.425.222.475.445.475.223.237.889.475.445.238.445.237h.445l1.779-.475h.223l.222.238.667.712 1.557.475 1.112.95.445.475.445.713.667.237 1.335 1.188 5.56 2.85.89.475 1.112.475 2.224.475h.89l.667-.475h.445l.445.475.222.475.223.237.222.238 1.112.475.223.237.445.713.222.238v.237l.223.238h.222l.445.237.222-.237 1.112-.238.223-.237h.889l1.112-.238h.668l1.334.475h.445l.222-.237h.223l.445-.238.222-.237 1.557-.713.667-.475.223-.475h.222l.223-.237h1.334l.223-.238h.222l.667-.475 13.345 13.063 6.228 6.175 1.335 10.926.445 1.424 1.334-.237 2.002.475 2.224.475h.222l.223.238 1.334.95.89-.238 2.002-1.187 1.779-.475 1.112-.475 1.557-1.425.445-.713.222-.238h.445l.223-.237.445-.238.222-.237h.667l.445.237 1.112.713.445.237h.89l.445-.237.889-.475h.89l.445.237.667.475.222.238.223.237 1.112 1.663h.222l.223.237.667-.237h.445l.89-.475.444-.237 1.335-.475h.222l.445.237.89.237 2.224 1.188.445.475.89 1.663.222.237h.89l.222-.237v-.238h1.112v-.237l.89-.238.222-.237.445.237 3.559 1.663 1.334.475 1.113.237h.889l.667-.237h.223l2.446-.238.445.238.223.237h.445l.222.713v.237l-.222.238v.237l.222.238v.237h.445l.667.238.223.237v.95l.222.238h.667l.445-.238h.667l.668.238.667.475 1.334.95.445.712.445.238.222.95.223.237.222.238.223.237 1.112.713.445.237h1.112l.667-.237 1.112.475.223.475v.237l.222.476.445.712.222.475.668.475.222.238.222.237v.238l.223.712v.238l.667.95v1.662l-.445.238-.445.237-.222.238-.222.475-.668 1.662-.222.713-.223 1.425v1.187l-.444 1.425-.668.713-.222.475-1.112.95-.668.713-3.113 1.9-3.337 5.462-.445.713.223.475v.95l-.223.237h-.889l-.445-.237h-1.112l-2.447.95-.222.237-.223.238-.222.237-.222.95v.475l-.223.238.223 1.663v1.9l-.668 3.087v.238l.223.237v.475l.889.95.223.475.445.95v1.425l-.445.238-.667.475-.223.237-.445.238v.237l-.222.475h-.223l-.667.238h-4.448l-1.557-.238-1.112-.475h-.445l-.223.238-.222.712-.222.238-.89.95-.222.237v.238l-.223.475-1.334 6.413-.668 2.137-.222.95v.713l.445 2.137.222.475-.222.475v3.563l-.223.238h-.222l-.667.475h-.223v.237l-.445.713v.712l-.222 2.375v1.9l.222.238.668.237h.445l.222-.237v-.238l.445-.95.222-.237v-.238h.223l.444-.237h.445l.223-.238h.445l.222.475v.238l-.222.475-.668.95v.237l-.222.238v.475l.222.237.223.238.222-.238h.223l.444-.237.223-.238h.222l.223.238.222.237.222.713.223.475v.712l-.667 1.663v1.188l.222 1.187v.238l.222.237.668.238h.667l.222-.238h1.557l.445.238.223.475.222.475.445 1.662.222.475.223.475.222.238 2.002 1.187.222.238.223.237.445.713v.475l.222.475.222.237.445.475 1.78.95.667.238 1.112 1.187.445 1.425.445.95v1.188l-.223 1.188-.222.475-.223.237-.667.95-.222.475-.223.475-.222.238.222.95.89 2.137-.445-.237-.89-.475h-.222l-.222-.238-.445-.237v-.238h-.223l-.222-.237h-2.002l-.222-.238-.223-.237-.222-.238v-.237l-.222-.238h-1.335l-.445-.475-2.224-.712h-.222l-.223-.238v-.237l-.222-.475v-.238h-.223l-.222.238-.445.237v.713l.222.95v.237l-.222.238-.222.237h-.89l-.223-.237-.222-.238-.89-.95h-1.112l-1.557.475h-.667l-.445.475-2.001 1.188-.668.475-.667.237-.445-.237h-.667l-1.335-.475h-.444l-.445.237-.668.475-.667.238-.667.475h-.667l-.223-.238-.445-.237-.222-.238h-.667l-.89.238-.445.237h-.445l-.222-.237h-.222l-.223-.238-.445-.475h-.445l-.222.238v.712l.222.238 6.006 6.175h.222v.712l.223.475v1.426l-.223.237h-2.891l-.445-.237-.445-.475-.222-.238-.668-.237-.222-.238-.445-.713h-.222l-.223-.237h-1.334l-.445.237-.445.475-2.892 2.851h-1.779l-.222.237-.223.475-.444.713-.89 1.9-.89 1.187-1.112.95v.238l-.222.475.222.712v.475l.445.713v.712l-.89 1.9.445.238h.223l.667-.475 1.334-1.425.223.475.445.237.444.238.668.475.444.237.445.476.223.237.667.95v.238l.222.475.223.95-.223.712v1.425l-.222 2.138-.445 2.612-.445 2.375v.713l.223.237v.238h.222l.222.238h.445l2.447.237h.445l.222.237v.238l.223.237v.238l.222.237.445 3.326v.95l-.222.475-.223.475v.237l-.222.238-.445.475h-.223l-.667.237-.89.238-4.893.237-.445-.237-.222-.238v-.475l-.222-.237h-4.004l-.445.237-.445.238h-.222l-.223.237-.222.475v.238l-.222.237v.475l.222.238.667.475.445.95v.237l.223.238.667.237.445.238.445.237h.667l.445-.475.222-.237.445-.238h1.112l.222.238.223.237h.222l.445.95v.238h.223l.222.237.667.238.223.237-.223.475v.95h.223l.444.238h.223l.222.238.223.237v.237l-.223.95-.889 1.663v.713l.222.475h.222l.445.237h.445l.222.238 2.225 2.375.222.475.667.95.223.237.222 1.425v3.088l-.222 1.187v.475l.222.476h.223v.237l.222.237v.475l-.222 1.426v1.9l-.223.237-.889 2.613-.223.712v.475l.223.475v.95l-.223.238-.222.237-.223.475-.445.475-.444.238-.223.237-.445-.237h-.445l-.889-.713h-.223l-.222.238-.222.475v.475l.222.237.667 1.425v.475l-.222.475-1.335 1.663-.222.238h-.667l-.223.237-.445.475-.222.713-.445.237-1.334.95h-.223l-.445.475-.222 1.425-.667 4.988v1.187l-.223 2.85-.222.238-.223.238-.667.475-.222.237-.89 1.188-.445.237h-1.334l-.223.238-.222.237-.445.713-.445.475v.237l-.222.238v1.9l-.223.712-.889 3.325-.445 1.663v1.187l-1.112 2.851-.223.237-.222.238-.667.237-.668.475h-1.334l-12.456-.237-.667.237-.445.238-.222.237-.445.475v.238l-.667 2.375-.223.475-.445.237-1.334.95-.89.475-.222.475-.445.475-.222.238v1.187l.222.238.223.712.222.713.222.237.223.238 1.557.712-.668 2.376v1.425l.223.237.445 1.188v.237l-.223.238-.222.237-.445.238-.222.237v.238l-.668 2.137-.222.475-.667.95v.475h.667l.445-.237.222-.238h.223l.222.238.222.237v.713l-1.112 1.425-.222.475-.89 2.375-.445.475-.222.475h-.222l-.223.237.223.476v.237l.667.475-.445.475-.222.238-.223.237-.667.238h-.445l-.445.237-.445 1.188.223.475-.223.237-.667 1.425-.89 1.9-.222.238-.223.475-.444.237-.223.238h-1.112l-.222-.238v-.237h-.445l-.89.237h-1.334l-.223-.475h-.222l-.445.238-.222.475-.445.475-.445.237-.445.238-.222.237-.223.475.223.713v.475l.222.237h.223l.222.238h.89l.222.238v.474l-.222.95-.89 1.901-.445.712-.667.95-.223.475-.222.95-.222.475-.223.238-.445.475v.237l-.222.475v1.188l.222.475v.475l-.222.475-1.112 2.612-.223.95-.445 2.851-2.446 1.9-.223.237-.667 1.425v3.325l-.222.475v.238l-2.002 3.562-.89 1.901-.222 1.424v.713h.89l.445.238.444.237h.668l.222-.237h.89l.444.237v.238h.223l.222.475.223.475.222.237-.222.713-.668 1.425-.444.237-.89.95-.445.238h-.667l-.667-.475h-.668l-.444.475-.445.475-.89.712-2.447.713-4.226 2.612-5.56 2.138-3.336 2.137-6.006 2.613-.667.475-1.557 1.425-.667.475-2.892.238-.889.712-.445.713-.223.712-.444.95-.223.238-1.112-.475h-.667l-.445.475-.445.712-.667.238v-.475l-.223-.238v-.712l.223-.238v-.237l.222-.238.223-.237v-1.188h-.223l-.222-.237h-2.224l-.668.237-.667-.237h-.445l-.222-.238-.445-.237-.222-.238h-2.892l-.222-.237h-1.112l-1.112.237-3.559 2.138-.667.237-.223.238h-2.002l-.667.237-.667.238h-.667l-.223-.238h-.222l-.223-.237-.444-.475-.223-.238-.222.238-.445.237-.223.238h-.667l-.445-.238h-.667l-.445.475-.445.475h-.222l-.223-.237-.444-.238h-.668l-.889.475h-.445l-.667.238-.223-.238h-.222l-.223-.237-.222-.238v-.237h-.223l-.222-.238h-.445l-1.334.475-2.447 1.188-.667.475-.445.475-.667.237-1.557.475-5.338 2.375h-.223l-.444.238h-.223l-.445.237-.889 1.188-.445.238-4.226 2.612-1.112.238h-.668l-.222-.238-.223-.237-.222-.238h-.89l-2.001.238h-.668l-2.224.475-.445-.238h-.889l-.445.238-3.559 2.137-.222.238h-.223l-.667.237-1.112.238-1.335.237h-.444l-.223.238-.667.712-.667 1.188-.223.237v.238h-.667l-.89-.238-1.112-.237h-.89l-2.001.712-.89.475-1.779 1.425-2.892 1.663-1.112.475h-2.669l-.445.238-.667.474-.445.238h-.445l-.889-.238-.445.238-2.669 1.188-.445.475-2.447 1.425-.222.237-.89.713-.667.712-.223.238h-1.112v1.187l-.222.475-.445.238-.222.237-3.337.95-2.001 1.188-.445.237h-.223l-.222-.237-.222-.238v-1.187l-.223-.238v-.237l-.445-.475h-.222l-.223-.238h-.667l-.222.238-.668 1.187-.222.238-.445.237-.89.713-.444.237h-.445l-1.557-.237-.222-.238v-.237l-.223-.238v-.475l-.222-.237h-.668l-.889.712-1.112.713-.445.237h-.89l-.222-.237h-.223l-.222-.238v-.712l.222-.238.223-.237.445-.475.222-.475.222-.475.223-.238-.223-.237h-.667l-1.779.237h-.89l-.445.475.223.238v.237l.222.238.667.712v.475l.223.238-.223.475-.222.237-3.781 2.613h-.223v.95h.223l.222.237h2.669l.223.238.222.237v2.376l-.222.237-.223.475-.222.238-.223-.238-.445-.237h-.667v.237l-.222.238.222.475v.475l.223.237v.238l-.223.475v.237l-.445.475h-.667l-.222-.237v-.238l-.223-.237v-.238l-.222-.237h-.445l-.222.237-.445.238-.445.712-.222.238-.223.475h-.445l-.445-.475-.444-.238-.445-.237v-.238l-.223-.237-.222-.475v-.238l-.445-.237-.222.237v.238l-.445.475-.223.237h-.222l-.445-.237h-.89v.237l-.444.475v.238l-.445.475-.445.237-.445.238-.445.237-1.112.238-3.558.712-.89-.237-.223-.238v-.475l.223-.237.222-.238v-.475l-.222-.237-.223-.238h-.222l-1.557.238-.222.237h-.223l-.222.238-.223.237-.445.238-.444.237h-.223l-.445-.237-.222-.238h-.223l-.222.238-.222.237-.223.238h-.889l-.445-.238-.445-.237h-.89l-.445-.238h-.222l-.222-.237-.223-.238-.222-.712-.223-.475v-2.85l.445-.713-.222-.475-.445-.475-2.669-1.663-.667-.712-1.335-.95v-.238l-.222-.475.222-.237v-.238h.222l.445-.475 2.225-.712.222-.238.222-.237.223-.475v-.238l-.667-.95-.223-.237-.222-.475v-.95l.222-.475h.223l.444-.238.223-.237v-.238l.222-.475v-.237h-1.557l-.889-.238-.445-.237-2.002-1.425-.89-.476h-.889l-.223-.237-.222-.238v-1.662l-.223-.238h-.222l-1.557-.237-2.224-.95-.445-.475-.445-.238v-.475l.223-.95-.223-.237v-.475l-1.557-1.9-.222-.238-.223-.475.223-1.187 1.557-4.038.889-1.425.668-.475 1.112-1.188.222-.475v-.237l-1.112-1.663-.222-.237h-.223l-.222-.238h-1.78l-.222-.237-.222-.238-.223-.475-.222-.237.222-.238.223-.237h.889l.223-.238.222-.237v-.238l-.222-.237-.223-.475v-.238l.223-.237.222-.475.223-.238h.889l.445-.237.222-.475.223-.238v-.237l-.89-1.425-1.112-2.85v-.713l.445-.475.222-.475v-.475l-.222-.237v-.238h-.222l-.223-.238-.222-.237-.223-.713v-.712l.223-.238.222-.237.223-.475.889-.475.223-.238v-.712l.889-4.038.223-.475h.222l1.112.238h.223l.222-.238.223-.237.889-2.613.223-.238v-.237h.222l.445-.475.222-.237v-.238l-.222-.237v-1.426l.222-.712.223-.475v-.238h.222l.445-.475.222-.237v-.238h-.222v-.475l-.223-.237-.222-2.375v-.238l-.222-.237-.223-.238-.222-.237-.223-.238h-.222l-.667-.237-.445-.238h-.667l-.223.238h-1.112l-.222-.475v-.238l-.223-.475h-.222l-.667-.237-.223-.238-.222-.475v-.95h-.667l-.445.475-.445.713h-.223l-.222.237-.222-.237h-.223l-.89-.713-1.112-.712-1.112-.238-.222-.238h-.223l-.444.238-1.335-.238-.222.238h-.223v.238l-.222.475-.223.237-.222.238h-.222l-.223.237h-.667l-.222.238-.445.237-.223.238h-.445l-3.558.475-.668-.238-.444-.237v-.713l.222-1.187.222-.238-.222-.475v-.475l-.89-1.425-.222-.475-.223-1.188-.222-.475-.667-2.137-.445-1.425v-.475h-.445l-.222-.238-.445-.237-2.002-2.85-.222-.475-.223-.238v-1.9l-.889-3.325v-.95l.222-.475.222-.238-.222-.237-.445-.475-.445-.475-.445-.95-.444-.475-.223-.238h-.667l-.223-.237-.444-.475v-.238l-.223-.475.445-.95.222-3.8.445-.95.668-.475.222-.237.222-.238.445-.95.223-.712v-.476l.222-1.187.223-.238.222-.237h.445l.445-.238.222-.237.445-.475v-.475l.222-.475v-1.188l-1.112-4.275-.222-.475-.223-.237-.222-.238v-.237l-.222-.238-4.449-2.137-.445-.475-1.112-1.425-.222-.238v-.713l.222-.475v-.712l.223-1.188.222-3.087v-.95l.222-.475v-.238h.223l.667-.712.223-.238v-.237l.222-.475.222-.713v-1.662l-.444-.95-.445-1.188-1.78-1.425-.444-.713-3.114-2.375h-.668l-.444-.237-.668-.475-1.112-1.188v-.237l.223-.238v-.95l.222-.237v-.475l-.222-.475-.223-.238-.89-.712-.444-.475-.668.475-1.112.475-.889.237-1.112.238-1.113.237-.444.713-.445.712-.667.713-.89.237-.89-.475-1.112-1.662-.89-.95-.667-.238-5.783.238-.445.237-.444.475-.223.475-.445.238v.475l.445.95v.95l-.222 1.187-.445 1.188-.667.475-.445.237h-.89l-.445-.237-.222-.713-.223-.475v-1.187l-.445-.713-.444-.475-.445-.237-.667-.238v2.375l-.223.95-.445.95-.222.238-.667.237h-.223l-.222.238-.223.475-.222.238-.667.474h-.89l-1.334-.95-1.78-.712-.89-.713-.444-1.187-.445-1.425-.445-.95-1.112-.95-.89 1.425 1.112 3.562-1.112 1.188h-.667l-1.557-.95-.89-.475h-3.781l-2.002.475-1.112.237-.445.238-.444.237-3.559-.475-.89.475-1.557 1.188-.667.237-.89-.237-2.669-.475h-.667l-1.779.237h-2.225l-1.112.713-.444 1.188-.445 1.425-.445 1.425-.667.95v.475l.222.475.222.95v2.612l.223.713.222 1.425.223.712-.223.475-1.334 1.188-.668-.475-2.001-.95-.445-.475-.223-4.038.223-4.75-.445-2.375-1.112-1.663-1.557-.237-1.335 1.188-1.334 3.562-.89 1.425-1.334 1.425-1.557.713-1.557-.713-.445-.712-.667-1.9-1.112-1.663-1.112-2.375-.223-.95-.445-2.375v-1.188l.445-1.425v-.475l.223-.712.222-.238h.222l1.557-.712.223-.95-.445-.475-.89-.475-.89-.238-1.111.238-3.114.712-.89-.712-4.004-1.425-2.224-.475H51.157l-6.006-.95-14.457-2.138-1.112-.713-1.557-2.137-1.112-1.188-1.335-.475h-1.557l-1.557.475-1.556.95-.89 1.9-3.337 3.563-.89.475-1.111.475-7.785 3.088-.89.475-2.669 2.375z"/><path fill="#fff" d="M244.6 206q2.36.44 3.88 2.36t1.52 4.4q0 2.241-1.12 3.96-1.08 1.68-3.16 2.64t-4.92.96h-12.04V192.4h11.52q2.84 0 4.88.92 2.08.92 3.12 2.56 1.08 1.641 1.08 3.72 0 2.44-1.32 4.08-1.28 1.64-3.44 2.32m-10.24-2.08h5.12q2 0 3.08-.88 1.08-.92 1.08-2.6t-1.08-2.6-3.08-.92h-5.12zm5.64 11.84q2.04 0 3.16-.96 1.16-.96 1.16-2.72 0-1.8-1.2-2.8-1.2-1.04-3.24-1.04h-5.52v7.52zm28.863 4.56-6.16-10.88h-2.64v10.88h-5.6V192.4h10.48q3.24 0 5.52 1.16 2.28 1.12 3.4 3.08 1.16 1.92 1.16 4.32 0 2.76-1.6 5-1.6 2.2-4.76 3.04l6.68 11.32zm-8.8-15.08h4.68q2.28 0 3.4-1.08 1.12-1.12 1.12-3.08 0-1.92-1.12-2.96-1.12-1.08-3.4-1.08h-4.68zm37.065-1.56v4.72h-16.96v-4.72zm7.4 10.32q3.84-3.2 6.12-5.32 2.28-2.16 3.8-4.48 1.52-2.319 1.52-4.56 0-2.04-.96-3.2t-2.96-1.16-3.08 1.36q-1.08 1.32-1.12 3.64h-5.44q.16-4.8 2.84-7.28 2.72-2.48 6.88-2.48 4.56 0 7 2.44 2.44 2.4 2.44 6.36 0 3.12-1.68 5.96t-3.84 4.96q-2.16 2.08-5.64 5.04h11.8v4.64h-19.76v-4.16zm36.329-15.56q-.4-1.68-1.4-2.52-.96-.84-2.8-.84-2.76 0-4.08 2.24-1.28 2.2-1.32 7.2.96-1.6 2.8-2.48 1.84-.92 4-.92 2.6 0 4.6 1.12 2.001 1.12 3.12 3.28 1.12 2.12 1.12 5.12 0 2.84-1.16 5.08-1.12 2.2-3.32 3.44t-5.24 1.24q-4.16 0-6.56-1.84-2.36-1.84-3.32-5.12-.92-3.32-.92-8.16 0-7.32 2.52-11.04 2.52-3.76 7.96-3.76 4.2 0 6.52 2.28t2.68 5.68zm-4.08 7.28q-2.12 0-3.56 1.24t-1.44 3.6q0 2.361 1.32 3.72 1.36 1.36 3.8 1.36 2.16 0 3.4-1.32 1.28-1.32 1.28-3.56 0-2.32-1.24-3.68-1.2-1.36-3.56-1.36m16.306 8.28q3.84-3.2 6.12-5.32 2.28-2.16 3.8-4.48 1.52-2.319 1.52-4.56 0-2.04-.96-3.2t-2.96-1.16-3.08 1.36q-1.08 1.32-1.12 3.64h-5.44q.16-4.8 2.84-7.28 2.72-2.48 6.88-2.48 4.56 0 7 2.44 2.44 2.4 2.44 6.36 0 3.12-1.68 5.96t-3.84 4.96q-2.16 2.08-5.64 5.04h11.8v4.64h-19.76v-4.16z"/></svg>