<svg width="40" height="41" viewBox="0 0 40 41" fill="none" xmlns="http://www.w3.org/2000/svg">
<path d="M0 40.626L2.82509 30.1936C1.0818 27.1398 0.165787 23.6782 0.167462 20.1285C0.172486 9.03081 9.10659 0 20.0837 0C25.4107 0.00169275 30.4111 2.09901 34.1723 5.90431C37.9318 9.70961 40.0017 14.7675 40 20.1471C39.995 31.2464 31.0609 40.2773 20.0837 40.2773C16.7512 40.2756 13.4673 39.4309 10.5585 37.8262L0 40.626ZM11.0475 34.1817C13.8541 35.866 16.5335 36.8748 20.077 36.8765C29.2004 36.8765 36.6323 29.3709 36.6374 20.1437C36.6407 10.8979 29.2439 3.40242 20.0904 3.39904C10.9604 3.39904 3.53345 10.9047 3.5301 20.1302C3.52843 23.8965 4.62028 26.7166 6.45399 29.6671L4.78104 35.8423L11.0475 34.1817ZM30.1164 24.9325C29.9925 24.7226 29.6609 24.5973 29.1619 24.3451C28.6645 24.0929 26.2179 22.8758 25.7607 22.7082C25.3052 22.5406 24.9736 22.456 24.6404 22.9604C24.3088 23.4632 23.3543 24.5973 23.0646 24.9325C22.7748 25.2677 22.4835 25.31 21.9861 25.0578C21.4887 24.8055 19.8844 24.2757 17.9838 22.561C16.5051 21.2271 15.5053 19.58 15.2156 19.0756C14.9259 18.5728 15.1855 18.3003 15.4333 18.0498C15.6577 17.8246 15.9307 17.4624 16.1802 17.1679C16.4331 16.8767 16.5151 16.6668 16.6826 16.3299C16.8484 15.9948 16.7663 15.7002 16.6407 15.448C16.5151 15.1975 15.5204 12.721 15.1068 11.7138C14.7015 10.7337 14.2912 10.8658 13.9864 10.8505L13.0319 10.8336C12.7003 10.8336 12.1611 10.9589 11.7056 11.4633C11.2501 11.9677 9.96399 13.1831 9.96399 15.6596C9.96399 18.1361 11.7475 20.528 11.9953 20.8631C12.2448 21.1983 15.5036 26.2799 20.4957 28.4585C21.683 28.9765 22.6107 29.2862 23.3325 29.5181C24.5248 29.9007 25.61 29.8465 26.4674 29.7179C27.4236 29.574 29.4114 28.5008 29.8267 27.326C30.242 26.1496 30.242 25.1424 30.1164 24.9325Z" fill="#2A5687"/>
</svg>
