<svg width="25" height="25" viewBox="0 0 25 25" fill="none" xmlns="http://www.w3.org/2000/svg">
<g clip-path="url(#clip0_4697_140)">
<path d="M5.54053 15.1079L4.67031 18.3565L1.4897 18.4238C0.53916 16.6608 0 14.6437 0 12.5001C0 10.4273 0.504102 8.47261 1.39766 6.75146H1.39834L4.22998 7.2706L5.47041 10.0853C5.21079 10.8421 5.06929 11.6546 5.06929 12.5001C5.06938 13.4177 5.2356 14.2968 5.54053 15.1079Z" fill="#FBBB00"/>
<path d="M24.7816 10.1648C24.9251 10.9209 25 11.7019 25 12.5C25 13.3949 24.9059 14.2678 24.7266 15.1099C24.1181 17.9752 22.5282 20.4773 20.3256 22.2479L20.3249 22.2472L16.7583 22.0652L16.2535 18.9141C17.715 18.057 18.8572 16.7156 19.4589 15.1099H12.7748V10.1648H24.7816Z" fill="#518EF8"/>
<path d="M20.3249 22.2473L20.3256 22.248C18.1834 23.9698 15.4623 25 12.5 25C7.73975 25 3.60103 22.3394 1.48975 18.4238L5.54058 15.1079C6.59619 17.9252 9.31392 19.9307 12.5 19.9307C13.8695 19.9307 15.1525 19.5605 16.2535 18.9142L20.3249 22.2473Z" fill="#28B446"/>
<path d="M20.4788 2.87773L16.4293 6.19297C15.2899 5.48076 13.943 5.06934 12.5 5.06934C9.2418 5.06934 6.47324 7.16685 5.47051 10.0852L1.39839 6.75137H1.39771C3.47808 2.74038 7.66899 0 12.5 0C15.533 0 18.3139 1.08037 20.4788 2.87773Z" fill="#F14336"/>
</g>
<defs>
<clipPath id="clip0_4697_140">
<rect width="25" height="25" fill="white"/>
</clipPath>
</defs>
</svg>
