<svg width="24" height="22" viewBox="0 0 24 22" fill="none" xmlns="http://www.w3.org/2000/svg">
<path d="M11 9.41415L7 3.06165" stroke="#3A98FF" stroke-width="2" stroke-linecap="round" stroke-linejoin="round"/>
<path d="M11 12.5858L7 18.9383" stroke="#3A98FF" stroke-width="2" stroke-linecap="round" stroke-linejoin="round"/>
<path d="M12 20.1667V18.3334" stroke="#3A98FF" stroke-width="2" stroke-linecap="round" stroke-linejoin="round"/>
<path d="M12 1.83337V3.66671" stroke="#3A98FF" stroke-width="2" stroke-linecap="round" stroke-linejoin="round"/>
<path d="M14 11H22" stroke="#3A98FF" stroke-width="2" stroke-linecap="round" stroke-linejoin="round"/>
<path d="M17 18.9384L16 17.3525" stroke="#3A98FF" stroke-width="2" stroke-linecap="round" stroke-linejoin="round"/>
<path d="M17 3.06165L16 4.64748" stroke="#3A98FF" stroke-width="2" stroke-linecap="round" stroke-linejoin="round"/>
<path d="M2 11H4" stroke="#3A98FF" stroke-width="2" stroke-linecap="round" stroke-linejoin="round"/>
<path d="M20.66 15.5833L18.93 14.6666" stroke="#3A98FF" stroke-width="2" stroke-linecap="round" stroke-linejoin="round"/>
<path d="M20.66 6.41663L18.93 7.33329" stroke="#3A98FF" stroke-width="2" stroke-linecap="round" stroke-linejoin="round"/>
<path d="M3.34003 15.5833L5.07003 14.6666" stroke="#3A98FF" stroke-width="2" stroke-linecap="round" stroke-linejoin="round"/>
<path d="M3.34003 6.41663L5.07003 7.33329" stroke="#3A98FF" stroke-width="2" stroke-linecap="round" stroke-linejoin="round"/>
<path d="M12 12.8333C13.1046 12.8333 14 12.0125 14 11C14 9.98744 13.1046 9.16663 12 9.16663C10.8954 9.16663 10 9.98744 10 11C10 12.0125 10.8954 12.8333 12 12.8333Z" stroke="#3A98FF" stroke-width="2" stroke-linecap="round" stroke-linejoin="round"/>
<path d="M12 18.3333C16.4183 18.3333 20 15.05 20 11C20 6.94987 16.4183 3.66663 12 3.66663C7.58172 3.66663 4 6.94987 4 11C4 15.05 7.58172 18.3333 12 18.3333Z" stroke="#3A98FF" stroke-width="2" stroke-linecap="round" stroke-linejoin="round"/>
</svg>
