<svg width="40" height="40" viewBox="0 0 40 40" fill="none" xmlns="http://www.w3.org/2000/svg">
<path d="M6.66675 36.6666V6.66659C6.66675 6.40784 6.72699 6.15265 6.8427 5.92123C6.95842 5.6898 7.12642 5.4885 7.33341 5.33325C9.06438 4.03503 11.1697 3.33325 13.3334 3.33325C18.3334 3.33325 21.6667 6.66659 25.5551 6.66659C27.7773 6.66659 29.4812 6.22214 30.6667 5.33325C30.9144 5.14754 31.2088 5.03445 31.5171 5.00665C31.8253 4.97886 32.1353 5.03745 32.4121 5.17587C32.6889 5.31429 32.9218 5.52707 33.0845 5.79037C33.2472 6.05366 33.3334 6.35707 33.3334 6.66659V23.3333C33.3334 23.592 33.2732 23.8472 33.1575 24.0786C33.0417 24.31 32.8737 24.5113 32.6667 24.6666C30.9358 25.9648 28.8304 26.6666 26.6667 26.6666C21.6667 26.6666 18.3334 23.3333 13.3334 23.3333C10.8736 23.3333 8.50012 24.24 6.66675 25.8799" stroke="#1A62B2" stroke-width="4" stroke-linecap="round" stroke-linejoin="round"/>
</svg>
