<svg width="40" height="40" viewBox="0 0 40 40" fill="none" xmlns="http://www.w3.org/2000/svg">
<path d="M35.2901 11.3534C36.1712 10.4724 36.6664 9.27751 36.6665 8.03149C36.6667 6.78546 36.1718 5.59041 35.2909 4.70923C34.4099 3.82805 33.215 3.33292 31.969 3.33276C30.723 3.33261 29.5279 3.82744 28.6467 4.7084L6.40339 26.9567C6.01642 27.3426 5.73024 27.8176 5.57005 28.3401L3.36839 35.5934C3.32531 35.7375 3.32206 35.8906 3.35897 36.0365C3.39588 36.1823 3.47159 36.3154 3.57805 36.4217C3.68451 36.528 3.81775 36.6035 3.96365 36.6402C4.10955 36.6769 4.26265 36.6734 4.40672 36.6301L11.6617 34.4301C12.1837 34.2713 12.6587 33.9869 13.0451 33.6017L35.2901 11.3534Z" stroke="#1A62B2" stroke-width="4" stroke-linecap="round" stroke-linejoin="round"/>
</svg>
