<svg width="40" height="40" viewBox="0 0 40 40" fill="none" xmlns="http://www.w3.org/2000/svg">
<path d="M20 13.3333C22.7614 13.3333 25 11.0947 25 8.33325C25 5.57183 22.7614 3.33325 20 3.33325C17.2386 3.33325 15 5.57183 15 8.33325C15 11.0947 17.2386 13.3333 20 13.3333Z" stroke="#1A62B2" stroke-width="4" stroke-linecap="round" stroke-linejoin="round"/>
<path d="M10.8334 13.3333C10.1121 13.3407 9.41277 13.582 8.84028 14.0207C8.2678 14.4595 7.85307 15.0721 7.65837 15.7666L3.50003 30.8333C3.37404 31.3209 3.36018 31.8307 3.4595 32.3245C3.55883 32.8183 3.76875 33.2831 4.0735 33.6841C4.37825 34.0851 4.76991 34.4118 5.21905 34.6397C5.66819 34.8676 6.16313 34.9908 6.6667 34.9999H33.3334C33.8478 34.9997 34.3552 34.8805 34.8159 34.6515C35.2766 34.4225 35.678 34.09 35.9888 33.6799C36.2995 33.2699 36.5111 32.7936 36.607 32.2881C36.703 31.7827 36.6806 31.2619 36.5417 30.7666L32.3334 15.8333C32.1498 15.1223 31.7366 14.4918 31.158 14.0397C30.5794 13.5877 29.8676 13.3393 29.1334 13.3333H10.8334Z" stroke="#1A62B2" stroke-width="4" stroke-linecap="round" stroke-linejoin="round"/>
</svg>
