<svg width="128" height="20" viewBox="0 0 128 20" fill="none" xmlns="http://www.w3.org/2000/svg">
<path fill-rule="evenodd" clip-rule="evenodd" d="M9.99996 1L7.56963 6.46401C7.47627 6.67387 7.3293 6.85542 7.14347 6.99045C6.95764 7.12548 6.73953 7.20913 6.5111 7.23308L0.563517 7.85596L5.00908 11.8558C5.17983 12.0095 5.30709 12.2053 5.37809 12.4238C5.44905 12.6422 5.46126 12.8755 5.41341 13.1002L4.16791 18.9492L9.34577 15.9572C9.54465 15.8423 9.77025 15.7818 9.99996 15.7818C10.2297 15.7818 10.4553 15.8423 10.6542 15.9572L15.832 18.9492L14.5865 13.1002C14.5387 12.8755 14.5509 12.6422 14.6218 12.4238C14.6928 12.2053 14.8201 12.0095 14.9908 11.8558L19.4364 7.85596L13.4888 7.23308C13.2604 7.20913 13.0423 7.12548 12.8565 6.99045C12.6706 6.85542 12.5236 6.67387 12.4303 6.46401L9.99996 1Z" fill="#F4C01E"/>
<path fill-rule="evenodd" clip-rule="evenodd" d="M37 1L34.5696 6.46401C34.4763 6.67387 34.3293 6.85542 34.1435 6.99045C33.9576 7.12548 33.7395 7.20913 33.5111 7.23308L27.5635 7.85596L32.0091 11.8558C32.1798 12.0095 32.3071 12.2053 32.3781 12.4238C32.449 12.6422 32.4613 12.8755 32.4134 13.1002L31.1679 18.9492L36.3458 15.9572C36.5446 15.8423 36.7703 15.7818 37 15.7818C37.2297 15.7818 37.4553 15.8423 37.6542 15.9572L42.832 18.9492L41.5865 13.1002C41.5387 12.8755 41.5509 12.6422 41.6218 12.4238C41.6928 12.2053 41.8201 12.0095 41.9908 11.8558L46.4364 7.85596L40.4888 7.23308C40.2604 7.20913 40.0423 7.12548 39.8565 6.99045C39.6706 6.85542 39.5236 6.67387 39.4303 6.46401L37 1Z" fill="#F4C01E"/>
<path fill-rule="evenodd" clip-rule="evenodd" d="M64 1L61.5696 6.46401C61.4763 6.67387 61.3293 6.85542 61.1435 6.99045C60.9576 7.12548 60.7395 7.20913 60.5111 7.23308L54.5635 7.85596L59.0091 11.8558C59.1798 12.0095 59.3071 12.2053 59.3781 12.4238C59.449 12.6422 59.4613 12.8755 59.4134 13.1002L58.1679 18.9492L63.3458 15.9572C63.5446 15.8423 63.7703 15.7818 64 15.7818C64.2297 15.7818 64.4553 15.8423 64.6542 15.9572L69.832 18.9492L68.5865 13.1002C68.5387 12.8755 68.5509 12.6422 68.6218 12.4238C68.6928 12.2053 68.8201 12.0095 68.9908 11.8558L73.4364 7.85596L67.4888 7.23308C67.2604 7.20913 67.0423 7.12548 66.8565 6.99045C66.6706 6.85542 66.5236 6.67387 66.4303 6.46401L64 1Z" fill="#F4C01E"/>
<path fill-rule="evenodd" clip-rule="evenodd" d="M91 1L88.5696 6.46401C88.4763 6.67387 88.3293 6.85542 88.1435 6.99045C87.9576 7.12548 87.7395 7.20913 87.5111 7.23308L81.5635 7.85596L86.0091 11.8558C86.1798 12.0095 86.3071 12.2053 86.3781 12.4238C86.449 12.6422 86.4613 12.8755 86.4134 13.1002L85.1679 18.9492L90.3458 15.9572C90.5446 15.8423 90.7703 15.7818 91 15.7818C91.2297 15.7818 91.4553 15.8423 91.6542 15.9572L96.832 18.9492L95.5865 13.1002C95.5387 12.8755 95.5509 12.6422 95.6218 12.4238C95.6928 12.2053 95.8201 12.0095 95.9908 11.8558L100.436 7.85596L94.4888 7.23308C94.2604 7.20913 94.0423 7.12548 93.8565 6.99045C93.6706 6.85542 93.5236 6.67387 93.4303 6.46401L91 1Z" fill="#F4C01E"/>
<path fill-rule="evenodd" clip-rule="evenodd" d="M118 1L115.57 6.46401C115.476 6.67387 115.329 6.85542 115.143 6.99045C114.958 7.12548 114.74 7.20913 114.511 7.23308L108.564 7.85596L113.009 11.8558C113.18 12.0095 113.307 12.2053 113.378 12.4238C113.449 12.6422 113.461 12.8755 113.413 13.1002L112.168 18.9492L117.346 15.9572C117.545 15.8423 117.77 15.7818 118 15.7818C118.23 15.7818 118.455 15.8423 118.654 15.9572L123.832 18.9492L122.587 13.1002C122.539 12.8755 122.551 12.6422 122.622 12.4238C122.693 12.2053 122.82 12.0095 122.991 11.8558L127.436 7.85596L121.489 7.23308C121.26 7.20913 121.042 7.12548 120.856 6.99045C120.671 6.85542 120.524 6.67387 120.43 6.46401L118 1Z" fill="#F4C01E"/>
</svg>
