<svg width="40" height="40" viewBox="0 0 40 40" fill="none" xmlns="http://www.w3.org/2000/svg">
<path d="M31.6666 28.3334H34.9999C35.9999 28.3334 36.6666 27.6667 36.6666 26.6667V21.6667C36.6666 20.1667 35.4999 18.8334 34.1666 18.5001C31.1666 17.6667 26.6666 16.6667 26.6666 16.6667C26.6666 16.6667 24.4999 14.3334 22.9999 12.8334C22.1666 12.1667 21.1666 11.6667 19.9999 11.6667H8.33325C7.33325 11.6667 6.49992 12.3334 5.99992 13.1667L3.66659 18.0001C3.44589 18.6438 3.33325 19.3196 3.33325 20.0001V26.6667C3.33325 27.6667 3.99992 28.3334 4.99992 28.3334H8.33325" stroke="#1A62B2" stroke-width="4" stroke-linecap="round" stroke-linejoin="round"/>
<path d="M11.6666 31.6667C13.5075 31.6667 14.9999 30.1743 14.9999 28.3333C14.9999 26.4924 13.5075 25 11.6666 25C9.82564 25 8.33325 26.4924 8.33325 28.3333C8.33325 30.1743 9.82564 31.6667 11.6666 31.6667Z" stroke="#1A62B2" stroke-width="4" stroke-linecap="round" stroke-linejoin="round"/>
<path d="M15 28.3333H25" stroke="#1A62B2" stroke-width="4" stroke-linecap="round" stroke-linejoin="round"/>
<path d="M28.3333 31.6667C30.1743 31.6667 31.6667 30.1743 31.6667 28.3333C31.6667 26.4924 30.1743 25 28.3333 25C26.4924 25 25 26.4924 25 28.3333C25 30.1743 26.4924 31.6667 28.3333 31.6667Z" stroke="#1A62B2" stroke-width="4" stroke-linecap="round" stroke-linejoin="round"/>
</svg>
