<svg width="60" height="60" viewBox="0 0 60 60" fill="none" xmlns="http://www.w3.org/2000/svg">
<path d="M2.5 13.8462C3.88071 13.8462 5 14.8793 5 16.1538C5 17.4283 3.88071 18.4615 2.5 18.4615C1.11929 18.4615 0 17.4283 0 16.1538C0 14.8793 1.11929 13.8462 2.5 13.8462Z" fill="#818181" fill-opacity="0.3"/>
<path d="M2.5 4.76837e-07C3.88071 4.76837e-07 5 1.03319 5 2.30769C5 3.5822 3.88071 4.61539 2.5 4.61539C1.11929 4.61539 0 3.5822 0 2.30769C0 1.03319 1.11929 4.76837e-07 2.5 4.76837e-07Z" fill="#818181" fill-opacity="0.3"/>
<path d="M16.25 41.5385C17.6307 41.5385 18.75 42.5717 18.75 43.8462C18.75 45.1207 17.6307 46.1538 16.25 46.1538C14.8693 46.1538 13.75 45.1207 13.75 43.8462C13.75 42.5717 14.8693 41.5385 16.25 41.5385Z" fill="#818181" fill-opacity="0.3"/>
<path d="M16.25 27.6923C17.6307 27.6923 18.75 28.7255 18.75 30C18.75 31.2745 17.6307 32.3077 16.25 32.3077C14.8693 32.3077 13.75 31.2745 13.75 30C13.75 28.7255 14.8693 27.6923 16.25 27.6923Z" fill="#818181" fill-opacity="0.3"/>
<path d="M16.25 13.8462C17.6307 13.8462 18.75 14.8793 18.75 16.1538C18.75 17.4283 17.6307 18.4615 16.25 18.4615C14.8693 18.4615 13.75 17.4283 13.75 16.1538C13.75 14.8793 14.8693 13.8462 16.25 13.8462Z" fill="#818181" fill-opacity="0.3"/>
<path d="M16.25 4.76837e-07C17.6307 4.76837e-07 18.75 1.03319 18.75 2.30769C18.75 3.5822 17.6307 4.61539 16.25 4.61539C14.8693 4.61539 13.75 3.5822 13.75 2.30769C13.75 1.03319 14.8693 4.76837e-07 16.25 4.76837e-07Z" fill="#818181" fill-opacity="0.3"/>
<path d="M30 41.5385C31.3807 41.5385 32.5 42.5717 32.5 43.8462C32.5 45.1207 31.3807 46.1538 30 46.1538C28.6193 46.1538 27.5 45.1207 27.5 43.8462C27.5 42.5717 28.6193 41.5385 30 41.5385Z" fill="#818181" fill-opacity="0.3"/>
<path d="M30 27.6923C31.3807 27.6923 32.5 28.7255 32.5 30C32.5 31.2745 31.3807 32.3077 30 32.3077C28.6193 32.3077 27.5 31.2745 27.5 30C27.5 28.7255 28.6193 27.6923 30 27.6923Z" fill="#818181" fill-opacity="0.3"/>
<path d="M30 13.8462C31.3807 13.8462 32.5 14.8793 32.5 16.1538C32.5 17.4283 31.3807 18.4615 30 18.4615C28.6193 18.4615 27.5 17.4283 27.5 16.1538C27.5 14.8793 28.6193 13.8462 30 13.8462Z" fill="#818181" fill-opacity="0.3"/>
<path d="M30 4.76837e-07C31.3807 4.76837e-07 32.5 1.03319 32.5 2.30769C32.5 3.5822 31.3807 4.61539 30 4.61539C28.6193 4.61539 27.5 3.5822 27.5 2.30769C27.5 1.03319 28.6193 4.76837e-07 30 4.76837e-07Z" fill="#818181" fill-opacity="0.3"/>
<path d="M43.75 55.3846C45.1307 55.3846 46.25 56.4178 46.25 57.6923C46.25 58.9668 45.1307 60 43.75 60C42.3693 60 41.25 58.9668 41.25 57.6923C41.25 56.4178 42.3693 55.3846 43.75 55.3846Z" fill="#818181" fill-opacity="0.3"/>
<path d="M43.75 41.5385C45.1307 41.5385 46.25 42.5717 46.25 43.8462C46.25 45.1207 45.1307 46.1538 43.75 46.1538C42.3693 46.1538 41.25 45.1207 41.25 43.8462C41.25 42.5717 42.3693 41.5385 43.75 41.5385Z" fill="#818181" fill-opacity="0.3"/>
<path d="M43.75 27.6923C45.1307 27.6923 46.25 28.7255 46.25 30C46.25 31.2745 45.1307 32.3077 43.75 32.3077C42.3693 32.3077 41.25 31.2745 41.25 30C41.25 28.7255 42.3693 27.6923 43.75 27.6923Z" fill="#818181" fill-opacity="0.3"/>
<path d="M43.75 13.8462C45.1307 13.8462 46.25 14.8793 46.25 16.1538C46.25 17.4283 45.1307 18.4615 43.75 18.4615C42.3693 18.4615 41.25 17.4283 41.25 16.1538C41.25 14.8793 42.3693 13.8462 43.75 13.8462Z" fill="#818181" fill-opacity="0.3"/>
<path d="M43.75 4.76837e-07C45.1307 4.76837e-07 46.25 1.03319 46.25 2.30769C46.25 3.5822 45.1307 4.61539 43.75 4.61539C42.3693 4.61539 41.25 3.5822 41.25 2.30769C41.25 1.03319 42.3693 4.76837e-07 43.75 4.76837e-07Z" fill="#818181" fill-opacity="0.3"/>
<path d="M57.5 55.3846C58.8807 55.3846 60 56.4178 60 57.6923C60 58.9668 58.8807 60 57.5 60C56.1193 60 55 58.9668 55 57.6923C55 56.4178 56.1193 55.3846 57.5 55.3846Z" fill="#818181" fill-opacity="0.3"/>
<path d="M57.5 41.5385C58.8807 41.5385 60 42.5717 60 43.8462C60 45.1207 58.8807 46.1538 57.5 46.1538C56.1193 46.1538 55 45.1207 55 43.8462C55 42.5717 56.1193 41.5385 57.5 41.5385Z" fill="#818181" fill-opacity="0.3"/>
<path d="M57.5 27.6923C58.8807 27.6923 60 28.7255 60 30C60 31.2745 58.8807 32.3077 57.5 32.3077C56.1193 32.3077 55 31.2745 55 30C55 28.7255 56.1193 27.6923 57.5 27.6923Z" fill="#818181" fill-opacity="0.3"/>
<path d="M57.5 13.8462C58.8807 13.8462 60 14.8793 60 16.1538C60 17.4283 58.8807 18.4615 57.5 18.4615C56.1193 18.4615 55 17.4283 55 16.1538C55 14.8793 56.1193 13.8462 57.5 13.8462Z" fill="#818181" fill-opacity="0.3"/>
<path d="M57.5 4.76837e-07C58.8807 4.76837e-07 60 1.03319 60 2.30769C60 3.5822 58.8807 4.61539 57.5 4.61539C56.1193 4.61539 55 3.5822 55 2.30769C55 1.03319 56.1193 4.76837e-07 57.5 4.76837e-07Z" fill="#818181" fill-opacity="0.3"/>
</svg>
