<svg width="32" height="32" viewBox="0 0 32 32" fill="none" xmlns="http://www.w3.org/2000/svg">
<path d="M0.0854101 21.5014L0.0569386 21.2233V20.7539L0 20.1977V20.0934L0.0142357 19.9891L0.0854101 19.8848L0.0996459 19.7979V19.5894V19.5546L0.113877 19.5372L0.142349 19.5198H0.199287L0.213523 19.5024L0.256226 19.4329L0.241995 19.3808L0.199287 19.3112L0.17082 19.2417L0.185052 19.1548L0.213523 19.1027L0.256226 19.0853L0.313169 19.1027L0.341636 19.12L0.384343 19.1722L0.412811 19.1896L0.427046 19.207H0.441282L0.455518 19.1896L0.483985 19.1548H0.498221L0.540924 19.12L0.498221 19.0505L0.412811 18.9288V18.8593L0.483985 18.7376L0.498221 18.6507V18.5638L0.526692 18.4943L0.555164 18.4248L0.612098 18.3726L0.711744 18.2857L0.768687 18.2336L0.782918 18.1814L0.79715 18.0771L0.839861 18.025L0.882564 18.0076L0.939498 17.9555L1.01067 17.8512L1.06762 17.8164L1.18149 17.8686H1.25267L1.32384 17.8338L1.38078 17.799L1.40926 17.7469L1.48043 17.6078L1.50889 17.5731H1.52313V17.5383L1.53736 17.5035V17.4688L1.5516 17.4514L1.53736 17.4166V17.3471L1.52313 17.295L1.49466 17.2428V17.2254V17.208V17.1907V17.1733V17.1385H1.50889L1.58007 17.069L1.65124 16.9647L2.00711 16.339L2.09253 16.2868L2.17793 16.252L2.61922 16.1477L2.69039 16.1304L2.7758 16.0608L2.83274 16.0261L2.88968 15.9913L2.96085 15.9739L3.23132 15.9913L3.41637 16.0261L3.51602 16.0087L4.11388 15.7132L4.17082 15.6958L4.21352 15.6611L4.25623 15.6263L4.29893 15.5568H4.31317L4.34164 15.5394H4.37011H4.38434H4.39858L4.41281 15.5568V15.5741L4.42704 15.5915L4.46975 15.7306L4.49822 15.8001L4.59786 15.9392L4.64057 16.0087L4.68328 16.0435H4.72598L4.76868 16.0087L5.23843 15.4351L5.32385 15.3134L5.36655 15.2613L5.42348 15.2091L5.75089 15.0527L5.95018 14.9136L6.04982 14.931L6.22064 14.9832L6.33452 15.0005L6.91815 14.9658L7.62989 15.0005L7.81495 14.9832L7.92883 15.0005L8.05694 15.0353L8.18505 15.1048L8.25623 15.1744L8.29893 15.1917V15.2091L8.3274 15.2265H8.35587H8.42705H8.45552L8.49822 15.2091H8.51245L8.52669 15.2265V15.2439L8.54093 15.2613L8.55516 15.2787L8.58363 15.296L8.6121 15.3134H8.6548L8.75445 15.3308L8.83985 15.3656L8.85409 15.3829H8.88257H8.91103L8.96797 15.3656L9.67972 14.8962L9.72242 14.8441L9.76512 14.7746L9.80783 14.6529L9.8363 14.6008L9.89324 14.5312L9.96441 14.4791L10.3061 14.3227L10.3203 14.3053L10.3345 14.2705L10.3488 14.2531L10.363 14.2357H10.3772H10.3915L10.4057 14.2184L10.4199 14.201L10.4342 14.1662L10.4484 14.1488L10.4911 14.1315L10.5196 14.1141L10.5338 14.0967L10.5623 14.0445L10.5765 14.0272L10.6192 13.9924L10.6619 13.975L10.6762 13.9402H10.6904L10.7473 13.9229L10.6762 13.7491L10.6619 13.6621V13.5926V13.5752L10.6477 13.5579L10.6192 13.5057L10.605 13.4883L10.5908 13.4362V13.384L10.5765 13.3493L10.5623 13.2971L10.548 13.2624L10.5338 13.1755L10.5196 13.1407V13.0885V13.0538L10.548 13.019V13.0016V12.9842V12.9495L10.5623 12.9147V12.8973L10.5908 12.8626V12.8452L10.605 12.7757V12.7409L10.6192 12.7235L10.6335 12.6888L10.6619 12.6366L10.6904 12.5671L10.7046 12.5497L10.7331 12.5323L10.7473 12.5149L10.7616 12.4976L10.7758 12.4802V12.4628V12.3064V12.2194L10.7616 12.1673L10.7331 12.0804L10.7189 12.0456L10.6904 12.0282L10.6619 12.0109L10.5623 11.9413L10.548 11.924H10.5196H10.4911H10.4626L10.4484 11.9066L10.4057 11.8718H10.3915H10.3772H10.363H10.3488L10.3061 11.8892L10.2918 11.9066H10.2776L10.2633 11.924L10.2349 11.9587V11.9761H10.2206H10.1922H10.1779L10.1637 11.9587L10.1495 11.9413L10.0356 11.7849V11.7501L10.0214 11.7154V11.6111V11.5589L10.0356 11.5242V11.5068V11.472L10.0498 11.4373L10.0783 11.3677V11.333L10.1068 11.2461H10.121H10.1352L10.1779 11.2808H10.2064L10.2206 11.2982L10.2349 11.3156L10.2491 11.2982H10.2633H10.2776L10.2918 11.2808V11.2634L10.2776 11.2461V11.2287L10.2918 11.2113L10.3061 11.1939L10.3203 11.1765H10.3345L10.3488 11.1244V11.107L10.3345 11.0722V11.0549V11.0375L10.3488 11.0027L10.363 10.968L10.3772 10.9506L10.3915 10.9332L10.4057 10.9158H10.4199H10.4342H10.4484L10.4626 10.8984L10.4911 10.8463L10.5338 10.8115L10.548 10.7768V10.7594L10.5623 10.742L10.548 10.7072V10.6898H10.5765V10.6725V10.6551V10.6377L10.5908 10.6203L10.6192 10.6029V10.5856L10.6335 10.5682H10.6477L10.6619 10.5508H10.6762V10.5682H10.6904H10.7046H10.7189L10.7331 10.5508L10.7473 10.5334L10.7616 10.516L10.7758 10.4465L10.79 10.4291L10.8043 10.4117L10.847 10.3596L10.8612 10.3422L10.8754 10.3248H10.9039H10.9324L10.9466 10.3074L10.9324 10.2727L10.8897 10.2032L10.8754 10.1858V10.1684V10.1336L10.8897 10.1162V10.0989L10.9039 10.0815L10.9182 10.0641L10.9324 10.0467L10.9609 10.012L10.9751 9.99457H10.9893H11.0036H11.0178L11.032 10.012H11.0463H11.0605L11.0747 9.99457H11.089L11.1032 9.97719V9.95981V9.92504V9.85552L11.0747 9.75122L11.0463 9.66431L11.032 9.62955L11.0178 9.59479L11.0036 9.45573L10.9893 9.43835L10.9751 9.40359L10.9466 9.35144L10.9324 9.31668L10.8754 9.07333L10.8327 8.95166L10.8185 8.9169L10.7758 8.79522L10.7616 8.77784L10.7331 8.76046H10.7189V8.74308L10.6904 8.69093L10.6762 8.67355L10.6619 8.65617L10.6192 8.63879H10.605L10.5908 8.6214L10.5765 8.58664L10.5623 8.56926L10.548 8.55188L10.5196 8.53449L10.4626 8.51711L10.4057 8.48235L10.3772 8.46497L10.2918 8.32591L10.2776 8.29115L10.2491 8.22162V8.20424H10.2349V8.18686L10.2918 7.90875V7.89136L10.4057 7.76969L10.4199 7.75231L10.4484 7.6654L10.4626 7.64802L10.4769 7.63063V7.61326L10.4911 7.59587L10.5338 7.49158L10.605 7.283V7.26562L10.6192 7.21347L10.5765 6.91798V6.88322L10.5908 6.84845L10.6619 6.65725L10.6762 6.53558L10.7616 6.48344H10.7758L10.847 6.50081H10.8612H10.8754H10.9039H10.9182V6.48344L10.9466 6.46605L10.9609 6.43129L10.9893 6.39653L11.0036 6.37914V6.36176L11.0463 6.327H11.0605L11.0747 6.30962L11.1317 6.15318L11.1459 6.11842H11.1601L11.1744 6.10103H11.1886L11.2028 6.11842V6.1358H11.2171V6.15318H11.2456L11.2598 6.17056H11.2883H11.3025H11.3167L11.3594 6.1358L11.3879 6.11842L11.4164 6.10103L11.4306 6.08365H11.4448L11.4591 6.06627H11.4875L11.6157 6.08365H11.6299L11.6441 6.06627L11.6868 6.04889L11.7011 6.03151H11.7153H11.7722H11.7865L11.8149 6.01412L11.8719 5.97936L11.8861 5.96198H11.9288L12 5.90983L12.0142 5.89245V5.85769L12.0285 5.82292L12 5.66649L12.0142 5.57958V5.54481L12 5.51005L11.9715 5.40576L11.9573 5.37099L11.9146 4.90169V4.86692H11.9004L11.8861 4.84954L11.8149 4.83216H11.8007L11.7722 4.79739L11.758 4.78001V4.76263H11.7438V4.74525L11.7153 4.32808L11.7295 4.29332L11.7438 4.25856L11.758 4.24117L11.7722 4.22379L11.8149 4.17165L11.8434 4.13689L11.8576 4.10212L11.9004 4.03259L11.9288 3.99783L11.9573 3.9283V3.91092V3.87616L11.9431 3.82401L11.9004 3.71972L11.8861 3.65019L11.8719 3.63281L11.8576 3.61543H11.8434H11.8149L11.758 3.63281H11.7438V3.58066L11.8434 2.98968V2.9723L11.8576 2.93753V2.92016L11.8719 2.90277L11.8861 2.88539L11.9146 2.85062L11.9288 2.83325L11.9858 2.81586L12.0142 2.79848L12.1281 2.7811L12.1993 2.79848L12.2705 2.81586L12.2989 2.83325L12.5836 3.00706L12.6406 3.04183H12.6548L12.6833 3.02444H12.7117L12.7829 2.95492L12.8399 2.90277V2.88539V2.86801L12.8256 2.7811L12.8114 2.67681V2.5899V2.57252V2.55514L12.7972 2.53775L12.7687 2.50299L12.7544 2.46823V2.45084V2.43346V2.41608V2.3987L12.7972 2.31179L12.8114 2.29441V2.27702V2.25964V2.24226L12.7972 2.22488L12.7544 2.15535V2.13797L12.7402 2.12059V2.05106V2.03368V2.0163L12.7544 1.99891L12.7829 1.92939L12.9253 1.7208L12.9395 1.70343L12.968 1.7208L13.0107 1.73819L13.0676 1.79033L13.2954 1.92939L13.3381 1.98153L13.395 2.03368L13.4804 2.15535V2.17273L13.4947 2.2075L13.5516 2.41608V2.43346H13.5801L13.6228 2.45084H13.7082H13.7794H13.7936V2.46823L13.8505 2.52037H13.879L14.0071 2.48561H14.0498H14.0783L14.121 2.50299L14.1352 2.52037L14.1495 2.50299L14.1922 2.46823L14.2064 2.43346L14.2349 2.36393L14.2633 2.32917L14.3345 2.27702L14.3488 2.31179V2.34655L14.3915 2.43346V2.45084V2.53775V2.55514L14.4057 2.57252L14.4769 2.69419V2.71157V2.72895V2.74634V2.76371V2.7811L14.4342 2.83325L14.4199 2.85062L14.3772 3.00706L14.3488 3.12873L14.2918 3.28517L14.2349 3.42423L14.2064 3.47637L14.1922 3.49375L14.1779 3.56328L14.1637 3.58066V3.59805V3.61543L14.1779 3.63281L14.1922 3.65019H14.2206L14.2491 3.63281L14.2776 3.58066L14.2918 3.56328L14.3203 3.5459L14.4626 3.45899H14.4769L14.4911 3.44161L14.5053 3.42423L14.5338 3.37208L14.548 3.3547L14.5623 3.31994L14.5907 3.25041L14.605 3.23303L14.6192 3.21564H14.6477H14.6762L14.8327 3.23303L14.8754 3.25041L15.089 3.28517H15.1174H15.1317L15.2313 3.21564L15.331 3.09397L15.3594 3.04183L15.3737 2.9723L15.3879 2.92016V2.90277L15.4448 2.86801L15.4875 2.83325L15.5302 2.7811L15.5445 2.76371L15.5587 2.72895L15.573 2.71157L15.6014 2.65943L15.6299 2.62466L15.6584 2.5899V2.57252V2.55514L15.6726 2.53775L15.6868 2.52037H15.758H15.7722H15.7865L15.8007 2.53775L15.8434 2.55514H15.8719L15.9431 2.53775L16 2.50299L16.1139 2.43346L16.1851 2.34655L16.2278 2.29441L16.242 2.27702H16.2705L16.3132 2.25964L16.3416 2.24226H16.3559L16.3843 2.17273L16.3986 2.15535L16.4128 2.13797L16.4413 2.10321L16.4555 2.08582L16.4698 2.03368L16.484 2.0163L16.5836 1.912L16.5979 1.89462V1.87724L16.6121 1.84248L16.6263 1.8251V1.80771H16.6406L16.669 1.79033H16.7117H16.7687L16.7829 1.77295L16.8256 1.75557H16.8541H16.8826H16.8968L16.911 1.77295L16.9253 1.75557L16.9822 1.73819L17.6085 1.30364L17.6797 1.23411V1.21673V1.18197L17.6939 1.16459L17.7367 1.07768V1.04291V1.02553V1.00815H17.7651L17.7936 0.990768L17.8221 0.973385L18.121 0.747423L18.1637 0.677891L18.2206 0.625748L18.2349 0.608365L18.2491 0.590982L18.2633 0.573605L18.306 0.556222L18.3772 0.486695L18.4626 0.434546L18.4911 0.417164L18.5338 0.382403L18.8043 0.278111L18.9751 0.156436L19.0747 0.139058L19.1032 0.121675L19.1317 0.104292L19.1886 0.0521488L19.2029 0.0347658H19.2171H19.2456L19.2883 0.0521488H19.3167L19.3452 0.0347658H19.3594L19.3737 0.0521488L19.4306 0.0695264H19.4448H19.4591L19.4733 0.0521488V0.0347658L19.4875 0.0173829L19.5018 0H19.516H19.5303L19.5587 0.0347658L19.5872 0.0695264L19.6299 0.104292L19.6584 0.121675H19.6868L19.7153 0.104292L19.7295 0.121675H19.7438L19.758 0.139058H19.7865H19.8007L19.8292 0.121675H19.8434H19.8577H19.8861L19.9146 0.139058H19.9431H19.9715L20.0142 0.173819H20.0427H20.0569H20.0712L20.1139 0.139058H20.1281V0.121675L20.1423 0.139058H20.1708L20.2135 0.173819L20.2705 0.225967L20.2847 0.243345H20.3559H20.3843L20.4128 0.225967H20.427H20.4413L20.4698 0.243345H20.484L20.5267 0.278111L20.5552 0.295494H20.5694L20.5836 0.278111H20.6121L20.6263 0.295494L20.6548 0.312877L20.6833 0.347637L20.726 0.36502L20.7402 0.382403L20.6975 0.469312L20.6406 0.556222L20.6121 0.677891L20.5694 0.834332L20.5267 0.938619L20.5125 1.00815L20.4982 1.04291L20.4698 1.16459L20.484 1.21673L20.4982 1.23411L20.5125 1.28626L20.5267 1.30364V1.32102V1.37317V1.39055V1.40793V1.42531L20.5125 1.4427V1.46008V1.47746L20.5267 1.52961V1.54698L20.5409 1.56437L20.5694 1.59913L20.5836 1.61652L20.6121 1.63389L20.6406 1.65128L20.8968 1.70343L20.911 1.7208L20.9537 1.75557L20.968 1.79033L20.9822 1.80771L21.5943 1.99891L21.7224 1.94677H21.7367L21.7509 1.92939L21.7651 1.89462L21.7794 1.87724L21.7936 1.84248L21.8363 1.80771L21.8505 1.79033V1.77295L21.8648 1.7208V1.70343H21.879L21.8932 1.68604L21.9075 1.66866L22.2064 1.49484L22.2918 1.47746L22.3488 1.4427H22.363L22.4057 1.42531H22.5053L22.548 1.4427L22.6335 1.46008L22.6904 1.49484L22.8185 1.52961H22.847H22.8754H22.9039L23.032 1.59913H23.0605L23.1032 1.58175L23.1459 1.59913L23.1601 1.61652L23.1886 1.63389L23.2313 1.66866L23.2455 1.70343L23.2598 1.7208L23.2883 1.80771L23.3025 1.8251L23.3167 1.84248L23.5445 2.05106L23.6014 2.10321L23.7295 2.24226L23.758 2.27702L23.9004 2.38132L23.9146 2.41608L23.9431 2.45084L23.9573 2.46823L24.0142 2.50299L24.0427 2.52037L24.0712 2.53775H24.0996L24.2135 2.50299H24.2278L24.242 2.52037L24.2847 2.57252L24.3843 2.60728L24.4555 2.67681L24.484 2.71157L24.5125 2.76371L24.5552 2.7811L24.6406 2.86801L24.9964 3.07659L25.0534 3.11135L25.1246 3.14612L25.2669 3.18088H25.3096H25.3238L25.3665 3.14612H25.3808H25.395L25.4235 3.18088L25.4377 3.21564L25.452 3.23303L25.4662 3.25041L25.5374 3.28517L25.5516 3.30255L25.5801 3.3547L25.5943 3.37208V3.38946L25.6085 3.40685H25.6228L25.6512 3.42423L25.6655 3.40685L25.7367 3.38946L25.7509 3.37208H25.7794H25.8078L25.879 3.3547H25.9217L26.0071 3.38946H26.0356L26.0498 3.37208H26.0641L26.0925 3.3547L26.1068 3.33732L26.2064 3.28517L26.2491 3.25041L26.2633 3.21564H26.2776L26.2918 3.19826H26.306H26.3772L26.3915 3.18088H26.4057L26.4484 3.14612L27.3025 4.10212L27.7011 4.55405L27.7865 5.35362L27.8149 5.4579L27.9004 5.44052L28.0285 5.47529L28.1708 5.51005H28.1851L28.1993 5.52743L28.2847 5.59696L28.3416 5.57958L28.4698 5.49267L28.5836 5.4579L28.6548 5.42314L28.7544 5.31885L28.7829 5.26671L28.7972 5.24932H28.8256L28.8399 5.23194L28.8683 5.21456L28.8826 5.19717H28.8968H28.9253L28.9537 5.21456L29.0249 5.26671L29.0534 5.28408H29.0818H29.1103L29.1388 5.26671L29.1957 5.23194H29.21H29.2242H29.2527L29.2811 5.24932L29.3238 5.28408L29.3381 5.30147L29.3523 5.31885L29.4235 5.44052H29.4377L29.452 5.4579L29.4947 5.44052H29.5231L29.5801 5.40576L29.6085 5.38838L29.6939 5.35362H29.7082L29.7367 5.37099L29.7936 5.38838L29.9359 5.47529L29.9644 5.51005L30.0214 5.63172L30.0356 5.6491H30.0498H30.0783H30.0925L30.1068 5.63172V5.61434H30.1352H30.1779V5.59696L30.2349 5.57958L30.2491 5.56219L30.2776 5.57958L30.5053 5.70125L30.5907 5.73601L30.6619 5.7534H30.7189L30.7616 5.73601H30.7758L30.9324 5.71863L30.9609 5.73601L30.9751 5.7534H31.0036L31.0178 5.80554V5.82292L31.0036 5.84031V5.85769L31.0178 5.87507V5.89245H31.0463L31.089 5.90983L31.1032 5.92721V5.9446V5.97936V5.99674L31.1174 6.01412H31.1459H31.1601L31.1886 5.99674H31.2171H31.2313L31.274 6.01412L31.3167 6.04889L31.4021 6.11842L31.4306 6.17056L31.4591 6.18794L31.4733 6.25747L31.4875 6.27485L31.5018 6.29223L31.516 6.30962L31.5872 6.36176L31.6157 6.37914H31.6299H31.6441H31.6868L31.7295 6.36176L31.8007 6.39653L31.8149 6.43129V6.44867L31.8292 6.48344L31.8577 6.53558L31.8719 6.57035L31.9146 6.60511L31.9288 6.62249L31.9431 6.63987V6.65725L31.9573 6.7094V6.72678L32 6.79631V6.83107V6.84845V6.88322V6.91798L31.9715 6.93536L31.9431 6.95274L31.9288 6.97013L31.9146 7.00489L31.8719 7.12656L31.8577 7.17871L31.8434 7.283V7.33515V7.36991L31.8149 7.4742L31.7722 7.52635L31.758 7.56111L31.6868 7.63063L31.6441 7.68278L31.4448 7.82184L31.2313 8.22162L31.2028 8.27377L31.2171 8.30853V8.32591V8.36067V8.37806L31.2028 8.39544H31.1744H31.1601H31.1459L31.1174 8.37806H31.0747H31.0463L30.8897 8.44758L30.8754 8.46497L30.8612 8.48235L30.847 8.49973L30.8327 8.56926V8.60402L30.8185 8.6214L30.8327 8.74308V8.88213L30.79 9.10809V9.12548L30.8043 9.14286V9.16024V9.17762L30.8612 9.24715L30.8754 9.28191L30.9039 9.35144V9.3862V9.40359V9.42097V9.45573L30.8754 9.47311L30.8327 9.50788L30.8185 9.52526L30.79 9.54264V9.56002L30.7758 9.59479H30.7616L30.7189 9.61217H30.6619H30.4342L30.3345 9.59479L30.2633 9.56002H30.2491H30.2349L30.2206 9.57741L30.2064 9.62955L30.1922 9.64693L30.1352 9.71646L30.121 9.73384V9.75122L30.1068 9.78599L30.0214 10.2553L29.9786 10.4117L29.9644 10.4813V10.5334L29.9929 10.6898L30.0071 10.7246L29.9929 10.7594V10.7941V10.8289V10.8637V10.9506V10.968V11.0027V11.0201L29.9786 11.0375H29.9644L29.9217 11.0722H29.9075V11.0896L29.879 11.1418V11.1939L29.8648 11.3677V11.4546V11.472V11.5068L29.879 11.5242L29.9217 11.5416H29.9359H29.9502L29.9644 11.5242V11.5068L29.9929 11.4373L30.0071 11.4199V11.4025H30.0214L30.0498 11.3851H30.0783L30.0925 11.3677H30.1068H30.121L30.1352 11.4025V11.4199L30.121 11.4546L30.0783 11.5242V11.5416L30.0641 11.5589V11.5763V11.5937L30.0783 11.6111L30.0925 11.6285L30.1068 11.6111H30.121L30.1495 11.5937L30.1637 11.5763H30.1779L30.1922 11.5937L30.2064 11.6111L30.2206 11.6632L30.2349 11.698V11.7328V11.7501L30.1922 11.8718V11.9066V11.9413V11.9587L30.2064 12.0456V12.063L30.2206 12.0804L30.2633 12.0978H30.2776H30.3061L30.3203 12.0804H30.3488H30.3915H30.4199L30.4484 12.0978L30.4626 12.1325L30.4769 12.1673L30.5053 12.289L30.5196 12.3237L30.5338 12.3585L30.548 12.3759L30.6762 12.4628L30.6904 12.4802L30.7046 12.4976L30.7331 12.5497V12.5845L30.7473 12.6192L30.7616 12.6366L30.79 12.6714L30.9039 12.7409L30.9466 12.7583L31.0178 12.8452L31.0463 12.9495L31.0747 13.019V13.0364V13.0712V13.1059L31.0605 13.1928L31.0463 13.2276L31.032 13.245L30.9893 13.3145L30.9751 13.3493L30.9609 13.384L30.9466 13.4014L30.9609 13.4709L31.0178 13.6274L30.9893 13.61L30.9324 13.5752H30.9182L30.9039 13.5579L30.8754 13.5405V13.5231H30.8612L30.847 13.5057H30.8327H30.8185H30.7758H30.7616H30.7331H30.7189L30.7046 13.4883L30.6904 13.4709L30.6762 13.4536V13.4362L30.6619 13.4188H30.6477H30.5907H30.5765L30.548 13.384L30.4057 13.3319H30.3915L30.3772 13.3145V13.2971L30.363 13.2624V13.245H30.3488L30.3345 13.2624L30.3061 13.2797V13.3145V13.3319L30.3203 13.4014V13.4188L30.3061 13.4362L30.2918 13.4536H30.2776H30.2491H30.2349L30.2206 13.4362L30.2064 13.4188L30.1495 13.3493H30.1352H30.121H30.1068H30.0783L29.9786 13.384H29.9359L29.9075 13.4188L29.7794 13.5057L29.7367 13.5405L29.6939 13.5579L29.6655 13.5405H29.6228L29.5374 13.5057H29.5231H29.5089L29.4804 13.5231L29.4377 13.5579L29.395 13.5752L29.3523 13.61H29.3381H29.3238H29.3096L29.2954 13.5926L29.2669 13.5752L29.2527 13.5579H29.2384H29.2242H29.21L29.153 13.5752L29.1246 13.5926H29.0961L29.0818 13.5752H29.0676L29.0534 13.5579L29.0249 13.5231H29.0107H28.9964L28.9822 13.5405V13.5752V13.5926L28.9964 13.61L29.3808 14.0619H29.395V14.0967V14.1141L29.4093 14.1488V14.2184V14.2531L29.395 14.2705H29.3523H29.3381H29.2954H29.2242H29.21L29.1815 14.2531L29.153 14.2184L29.1388 14.201L29.0961 14.1836L29.0818 14.1662L29.0534 14.1141H29.0391L29.0249 14.0967H29.0107H28.9964H28.968H28.9537H28.9395L28.911 14.1141L28.8826 14.1488L28.6975 14.3574H28.6833H28.669H28.6121H28.5836L28.5694 14.3748L28.5552 14.4096L28.5267 14.4617L28.4698 14.6008L28.4128 14.6877L28.3416 14.7572V14.7746L28.3274 14.8093L28.3416 14.8615V14.8962L28.3701 14.9484V15.0005L28.3132 15.1396L28.3416 15.157H28.3559L28.3986 15.1222L28.484 15.0179L28.4982 15.0527L28.5267 15.0701L28.5552 15.0875L28.5979 15.1222L28.6263 15.1396L28.6548 15.1744L28.669 15.1917L28.7117 15.2613V15.2787L28.726 15.3134L28.7402 15.3829L28.726 15.4351V15.5394L28.7117 15.6958L28.6833 15.887L28.6548 16.0608V16.0782V16.113L28.669 16.1304V16.1477H28.6833L28.6975 16.1651H28.726L28.8826 16.1825H28.8968H28.911L28.9253 16.1999V16.2173L28.9395 16.2347V16.252L28.9537 16.2694L28.9822 16.5128V16.5649V16.5823L28.968 16.6171L28.9537 16.6518V16.6692L28.9395 16.6866L28.911 16.7213H28.8968L28.8541 16.7387L28.7972 16.7561L28.484 16.7735L28.4555 16.7561L28.4413 16.7387V16.7213V16.704L28.427 16.6866H28.4128H28.3843H28.3274H28.2562H28.1708L28.1424 16.704L28.1139 16.7213H28.0996L28.0854 16.7387L28.0712 16.7735V16.7909L28.0569 16.8083V16.8256V16.843L28.0712 16.8604L28.1139 16.8952L28.1424 16.9647V16.9821L28.1566 16.9995L28.1993 17.0168L28.2278 17.0342L28.2562 17.0516H28.2705H28.2847H28.2989L28.3274 17.0168L28.3416 16.9995L28.3701 16.9821H28.3843H28.3986H28.427H28.4413L28.4555 16.9995L28.4698 17.0168H28.484L28.5125 17.0864V17.1037H28.5267L28.5409 17.1211L28.5836 17.1385L28.5979 17.1559L28.5836 17.1907V17.2254V17.2602H28.5979L28.6263 17.2776H28.6406L28.6548 17.295L28.669 17.3123V17.3297L28.6548 17.3992L28.5979 17.5209V17.5557V17.5731L28.6121 17.6078H28.6263L28.6548 17.6252H28.6833L28.6975 17.6426L28.8399 17.8164L28.8541 17.8512L28.8968 17.9207L28.911 17.9381L28.9253 18.0424V18.164V18.2683L28.911 18.3552V18.39L28.9253 18.4248H28.9395V18.4422L28.9537 18.4595V18.4943L28.9395 18.5986V18.7029V18.7376L28.9253 18.755L28.8683 18.9462L28.8541 18.9984V19.0331L28.8683 19.0679V19.0853V19.1027V19.1374L28.8541 19.1548L28.8399 19.1722L28.8256 19.207L28.7972 19.2417L28.7687 19.2591L28.7544 19.2765L28.726 19.2591H28.7117H28.6975L28.6406 19.207H28.6263L28.6121 19.2243L28.5979 19.2591V19.2765V19.2939L28.6121 19.3112L28.6548 19.4155V19.4329V19.4503L28.6406 19.4851L28.5552 19.6067L28.5409 19.6241H28.5267H28.5125H28.4982L28.484 19.6415L28.4555 19.6763L28.4413 19.7284L28.4128 19.7458L28.3274 19.8153H28.3132L28.2847 19.8501L28.2705 19.9544L28.2278 20.3194V20.3542V20.4063L28.2135 20.6149L28.1993 20.6323L28.1851 20.6497L28.1424 20.6844L28.1281 20.7018L28.0712 20.7887L28.0427 20.8061H28.0285H28H27.9858H27.9715H27.9573L27.9431 20.8235L27.9288 20.8408L27.9004 20.893L27.8719 20.9278V20.9451L27.8577 20.9625V21.0147V21.1016L27.8434 21.1537L27.7865 21.3971L27.758 21.5187V21.5535V21.5883V21.6057L27.6868 21.8142L27.6726 21.8316L27.6584 21.849L27.6157 21.8664L27.573 21.9011H27.4875L26.6904 21.8838L26.6477 21.9011L26.6192 21.9185L26.605 21.9359L26.5765 21.9707V21.9881L26.5338 22.1619L26.5196 22.1966L26.4911 22.214L26.4057 22.2835L26.3488 22.3183L26.3345 22.3531L26.306 22.3878L26.2918 22.4052V22.4226V22.4574V22.4921L26.306 22.5095L26.3203 22.5617L26.3345 22.6138L26.3488 22.6312L26.363 22.6486L26.4626 22.7007L26.4199 22.8745V22.9788L26.4342 22.9962L26.4626 23.0831V23.1005L26.4484 23.1179L26.4342 23.1353L26.4057 23.1526L26.3915 23.17V23.1874L26.3488 23.3438L26.3345 23.3786L26.2918 23.4481V23.4655V23.4829H26.306H26.3203H26.3345L26.363 23.4655L26.3772 23.4481H26.3915L26.4057 23.4655L26.4199 23.4829V23.5003V23.535L26.3488 23.6393L26.3345 23.6741L26.2776 23.8479L26.2491 23.8827L26.2349 23.9174H26.2206L26.2064 23.9348L26.2206 23.9696V23.987L26.2633 24.0217L26.2349 24.0565L26.2206 24.0739L26.2064 24.0913L26.1637 24.1086H26.1352L26.1068 24.126L26.0783 24.2129L26.0925 24.2477L26.0783 24.2651L26.0356 24.3694L25.9786 24.5084L25.9644 24.5258L25.9502 24.5606L25.9217 24.5779L25.9075 24.5953H25.8932H25.879H25.8505H25.8363L25.8221 24.5779V24.5606H25.8078H25.7936L25.7367 24.5779H25.7082H25.694H25.6797H25.6512L25.637 24.5432H25.6228L25.5943 24.5606L25.5801 24.5953L25.5516 24.6301L25.5231 24.6475L25.4947 24.6649L25.4804 24.6822L25.4662 24.717L25.4804 24.7692V24.8039L25.4947 24.8213H25.5089L25.5231 24.8387H25.5374H25.5801L25.5943 24.8561V24.8908L25.5801 24.9603L25.5231 25.0994L25.4947 25.1515L25.452 25.2211L25.4377 25.2558L25.4235 25.3254L25.4093 25.3601L25.395 25.3775L25.3665 25.4123V25.4297L25.3523 25.4644V25.5166V25.5513L25.3665 25.5861V25.6209L25.3523 25.6556L25.2811 25.8468L25.2669 25.9164L25.2384 26.1249L25.0819 26.264L25.0676 26.2814L25.0249 26.3857V26.403V26.4378V26.5595V26.629L25.0107 26.6638V26.6812L24.8826 26.9419L24.8256 27.0809L24.8114 27.1852V27.22V27.2374H24.8399H24.8541H24.8683L24.8968 27.2548L24.9253 27.2721H24.9395H24.968L24.9822 27.2548H24.9964H25.0107H25.0249H25.0391L25.0676 27.2721V27.2895H25.0819L25.0961 27.3243L25.1103 27.359L25.1246 27.3764L25.1103 27.4286L25.0676 27.5329L25.0391 27.5503L24.9822 27.6198L24.9537 27.6372H24.911L24.8683 27.6024H24.8256L24.7972 27.6372L24.7687 27.6719L24.7117 27.7241L24.5552 27.7762L24.2847 27.9674L23.9288 28.1239L23.7153 28.2803L23.331 28.4715L23.2883 28.5063L23.1886 28.6105L23.1459 28.6453L22.9609 28.6627L22.9039 28.7148L22.8754 28.767L22.8612 28.8191L22.8327 28.8886L22.8185 28.906L22.7473 28.8713H22.7046L22.6762 28.906L22.6477 28.9582L22.605 28.9756V28.9408L22.5907 28.9234V28.906V28.8886V28.8713L22.605 28.8539V28.8365L22.6192 28.8191L22.6335 28.8017V28.7844V28.767V28.7322V28.7148H22.6192L22.605 28.6974H22.5338H22.4626L22.4199 28.7148L22.3772 28.6974H22.3488L22.3345 28.6801L22.3061 28.6627L22.2918 28.6453H22.2776H22.2491H22.1637H22.121H22.1068L22.0925 28.6279H22.0783H22.0641H22.0214L21.9502 28.6453L21.7224 28.8017L21.6797 28.8191L21.6655 28.8365H21.6228H21.5658H21.5374L21.4947 28.8539L21.452 28.8713H21.4093L21.395 28.8539H21.3808L21.3665 28.8365L21.3381 28.8017L21.3238 28.7844L21.3096 28.8017L21.2811 28.8191L21.2669 28.8365H21.2527H21.2242L21.1957 28.8191H21.1673H21.153L21.1246 28.8539L21.0961 28.8886H21.0818L21.0676 28.8713L21.0391 28.8539H21.0249H20.9964L20.9395 28.8886H20.911L20.8683 28.906L20.8541 28.8886H20.8399L20.8256 28.8713L20.8114 28.8539V28.8365H20.7971L20.7829 28.8191H20.7544L20.669 28.8539L20.5125 28.9408L20.4698 28.9756L20.4413 29.0103L20.3986 29.0277L20.2989 29.0625L19.9573 29.2363H19.9431L19.9146 29.2537H19.9004L19.8719 29.271L19.8149 29.358L19.7865 29.3753L19.516 29.5665L19.4448 29.5839H19.4021L19.3879 29.5665L19.3737 29.5492L19.3594 29.5318H19.3452H19.3167H19.3025L19.1744 29.5492H19.1317L18.9893 29.5839L18.9609 29.5665H18.9324H18.9039L18.8754 29.5839L18.6477 29.7404L18.6335 29.7577H18.6192L18.5765 29.7751L18.5053 29.7925L18.4199 29.8099H18.3915L18.3772 29.8273L18.3345 29.8794L18.2918 29.9663L18.2776 29.9837V30.0011H18.2349L18.1779 29.9837L18.1068 29.9663H18.0783H18.0498L17.9217 30.0185L17.8648 30.0532L17.7509 30.1575L17.5658 30.2792L17.4947 30.314H17.4804H17.4377H17.3523H17.3238L17.2954 30.3313L17.2527 30.3661L17.2242 30.3835H17.1957L17.1388 30.3661L17.1103 30.3835L16.9395 30.4704L16.911 30.5052L16.7545 30.6095L16.7402 30.6268L16.6833 30.679L16.6406 30.7311L16.6263 30.7485H16.5979H16.5694H16.5552V30.7659V30.818V30.8354L16.5409 30.8702L16.5125 30.8876L16.4982 30.9049L16.2847 30.9745L16.1566 31.0614L16.1281 31.0788H16.1139L16.0996 31.0614L16.0854 31.044V31.0266V30.9745V30.9571L16.0712 30.9397V30.9223L16.0427 30.8876H16.0285L16.0142 30.8702H15.9858H15.9715L15.9573 30.8876L15.9146 30.9745L15.9004 30.9919L15.8719 31.0092L15.8149 31.0614L15.7865 31.0788H15.758L15.6584 31.0614L15.6441 31.044V31.0266L15.6299 31.0092V30.9919V30.9745L15.6157 30.9571H15.6014H15.5872H15.573L15.516 31.0092L15.4448 31.0614L15.4164 31.0788H15.3879H15.3737H15.3594L15.3452 31.0614H15.331L15.3167 31.044V31.0092V30.9919L15.331 30.9745L15.3452 30.9571L15.3737 30.9223L15.3879 30.8876L15.4021 30.8528L15.4164 30.8354L15.4021 30.818H15.3594L15.2455 30.8354H15.1886L15.1601 30.8702L15.1744 30.8876V30.9049L15.1886 30.9223L15.2313 30.9745V30.9919V31.0092L15.2455 31.0266L15.2313 31.0614L15.2171 31.0788L14.9751 31.27H14.9609V31.2873V31.3221V31.3395H14.9751L14.9893 31.3569H15.0036H15.0178H15.089H15.1317H15.1459H15.1601L15.1744 31.3743L15.1886 31.3916V31.409V31.4264V31.4612V31.4959V31.5655L15.1744 31.5828L15.1601 31.6176L15.1459 31.635L15.1317 31.6176L15.1032 31.6002H15.0747H15.0605V31.6176L15.0463 31.635L15.0605 31.6697V31.6871V31.7045L15.0747 31.7219V31.7393L15.0605 31.774V31.7914L15.032 31.8262H15.0178H15.0036H14.9893L14.9751 31.8088V31.7914L14.9609 31.774V31.7567L14.9466 31.7393H14.9181L14.9039 31.7567L14.8754 31.774L14.847 31.8262L14.8327 31.8436L14.8185 31.8783H14.79L14.7616 31.8436L14.7331 31.8262L14.7046 31.8088V31.7914L14.6904 31.774L14.6762 31.7393V31.7219L14.6477 31.7045L14.6335 31.7219V31.7393L14.605 31.774L14.5907 31.7914H14.5765L14.548 31.774H14.5196H14.4911V31.7914L14.4626 31.8262V31.8436L14.4342 31.8783L14.4057 31.8957L14.3772 31.9131L14.3488 31.9305L14.2776 31.9479L14.0498 32L13.9929 31.9826L13.9786 31.9652V31.9479V31.9305L13.9929 31.9131L14.0071 31.8957V31.8783V31.8609L13.9929 31.8436L13.9786 31.8262H13.9644L13.8648 31.8436L13.8505 31.8609H13.8363L13.8221 31.8783L13.8078 31.8957L13.7794 31.9131L13.7509 31.9305H13.7367L13.7082 31.9131L13.694 31.8957H13.6797L13.6655 31.9131L13.6512 31.9305L13.637 31.9479H13.6085H13.5801L13.5516 31.9305L13.5231 31.9131H13.4662L13.4377 31.8957H13.4235L13.4093 31.8783L13.395 31.8609L13.3808 31.8088L13.3666 31.774V31.7219V31.6871V31.6002V31.5828V31.5655L13.395 31.5133L13.3808 31.4785L13.3523 31.4438L13.1815 31.3221L13.1388 31.27L13.0534 31.2004V31.1831L13.0391 31.1483L13.0534 31.1309V31.1135H13.0676L13.0961 31.0788L13.2384 31.0266L13.2527 31.0092L13.2669 30.9919L13.2811 30.9571V30.9397L13.2384 30.8702L13.2242 30.8528L13.21 30.818V30.7659V30.7485L13.2242 30.7137H13.2384L13.2669 30.6964L13.2811 30.679V30.6616L13.2954 30.6268V30.6095H13.2811H13.2384H13.1957L13.1388 30.5921L13.1103 30.5747L12.9822 30.4704L12.9253 30.4356H12.8683L12.8541 30.4183L12.8399 30.4009V30.3661V30.314V30.2792L12.8256 30.2618H12.8114L12.7117 30.2444L12.5694 30.1749L12.5409 30.1401L12.5125 30.1228V30.088L12.5267 30.0185L12.5125 30.0011V29.9663L12.4128 29.8273L12.3986 29.8099L12.3843 29.7751L12.3986 29.6882L12.4982 29.3927L12.5552 29.2884L12.5979 29.2537L12.669 29.1668L12.6833 29.132V29.1146L12.6121 28.9929L12.5979 28.9756H12.5836L12.5694 28.9582H12.484H12.4555L12.4413 28.9408L12.427 28.9234L12.4128 28.8886L12.3986 28.8713L12.4128 28.8539L12.427 28.8365H12.484L12.4982 28.8191L12.5125 28.8017V28.7844L12.4982 28.767L12.484 28.7322V28.7148L12.4982 28.6974L12.5125 28.6627L12.5267 28.6453H12.5409H12.5552H12.5694H12.5836L12.6121 28.6279L12.6263 28.5932L12.6406 28.5758V28.5584L12.5836 28.4541L12.5125 28.2455V28.2108V28.1934L12.5409 28.1586L12.5552 28.1239V28.1065V28.0891L12.5409 28.0717V28.0543H12.5267L12.5125 28.0369L12.4982 28.0196L12.484 27.9674V27.9326V27.9153L12.4982 27.8979L12.5125 27.8805L12.5267 27.8457L12.5836 27.811L12.5979 27.7936V27.7414L12.6548 27.446L12.669 27.4112H12.6833L12.7544 27.4286H12.7687L12.7829 27.4112L12.7972 27.3938L12.8541 27.2026L12.8683 27.1852V27.1678H12.8826L12.911 27.1331L12.9253 27.1157V27.0983L12.911 27.0809V26.9766L12.9253 26.9245L12.9395 26.8897V26.8724H12.9537L12.9822 26.8376L12.9964 26.8202V26.8028H12.9822V26.7681L12.968 26.7507L12.9537 26.5769V26.5595L12.9395 26.5421L12.9253 26.5247L12.911 26.5073L12.8968 26.49H12.8826L12.8399 26.4726L12.8114 26.4552H12.7829H12.7687L12.7544 26.4726H12.726H12.7117H12.6975H12.6833L12.669 26.4378V26.4204L12.6548 26.3857H12.6406L12.5979 26.3683L12.5836 26.3509L12.5694 26.3161V26.2466H12.5552H12.5409H12.5267L12.4982 26.2814L12.4697 26.3335H12.4555L12.4413 26.3509L12.427 26.3335H12.4128L12.3559 26.2814L12.2847 26.2292L12.2135 26.2118L12.1993 26.1945H12.1851L12.1566 26.2118L12.0712 26.1945L12.0569 26.2118H12.0427V26.2292L12.0285 26.264L12.0142 26.2814L12 26.2988H11.9858L11.9715 26.3161H11.9431H11.9288L11.9146 26.3335L11.8861 26.3509L11.8719 26.3683H11.8576H11.8434L11.6157 26.403L11.573 26.3857L11.5445 26.3683V26.3509V26.3335V26.3161L11.5587 26.2292L11.573 26.2118L11.5587 26.1771V26.1597V26.1423L11.5018 26.038L11.4875 26.0033L11.4733 25.9164L11.4591 25.8816L11.4164 25.7252L11.3879 25.6209V25.5861H11.3594L11.3452 25.5687L11.3167 25.5513L11.1886 25.3428L11.1744 25.308L11.1601 25.2906V25.1863V25.1515L11.1032 24.9082V24.8734V24.8561V24.8387L11.1174 24.8039L11.1317 24.7865L11.1174 24.7692L11.089 24.7344L11.0605 24.6996L11.032 24.6301L11.0036 24.5953L10.9893 24.5779H10.9751H10.9466L10.9324 24.5606L10.9039 24.5258V24.5084L10.8897 24.4737L10.9182 24.4041L10.9324 24.126L10.9609 24.0565L11.0036 24.0217L11.0178 24.0043L11.032 23.987L11.0605 23.9174L11.0747 23.8653V23.8305L11.089 23.7436L11.1032 23.7262L11.1174 23.7089H11.1459L11.1744 23.6915L11.1886 23.6741L11.2171 23.6393V23.6046L11.2313 23.5698V23.5003V23.4829L11.1601 23.17L11.1459 23.1353L11.1317 23.1179L11.1174 23.1005V23.0831L11.1032 23.0657L10.8185 22.9093L10.79 22.8745L10.7189 22.7702L10.7046 22.7529V22.7181V22.7007L10.7189 22.6659V22.6138L10.7331 22.5269L10.7473 22.3009V22.2314L10.7616 22.1966V22.1793H10.7758L10.8185 22.1271L10.8327 22.1097V22.0923L10.847 22.0576L10.8612 22.0054V21.9707V21.9533V21.8838L10.8327 21.8142L10.8043 21.7273L10.6904 21.623L10.6619 21.5709L10.4626 21.3971H10.4199L10.3915 21.3797L10.3488 21.3449L10.2776 21.258V21.2406L10.2918 21.2233V21.1885V21.1537L10.3061 21.1363V21.1016L10.2918 21.0668L10.2776 21.0494L10.2206 20.9973L10.1922 20.9625L10.1495 20.9973L10.0783 21.0321L10.0214 21.0494L9.95018 21.0668L9.87901 21.0842L9.85054 21.1363L9.82206 21.1885L9.77936 21.2406L9.72242 21.258L9.66548 21.2233L9.59431 21.1016L9.53737 21.0321L9.49466 21.0147L9.12455 21.0321L9.09609 21.0494L9.06762 21.0842L9.05338 21.119L9.02491 21.1363V21.1711L9.05338 21.2406V21.3102L9.03915 21.3971L9.01067 21.484L8.96797 21.5187L8.9395 21.5361H8.91103H8.88257L8.85409 21.5187L8.83985 21.4666L8.82562 21.4318V21.3797V21.3449L8.79715 21.2928L8.76868 21.258L8.74022 21.2406L8.69751 21.2233V21.3971L8.68327 21.4666L8.6548 21.5361L8.64057 21.5535L8.59787 21.5709H8.58363L8.5694 21.5883L8.55516 21.623L8.54093 21.6404L8.49822 21.6752H8.46975H8.44128L8.35587 21.6057L8.242 21.5535L8.18505 21.5014L8.15658 21.4144L8.12811 21.3102L8.09965 21.2406L8.02847 21.1711L7.97153 21.2754L8.0427 21.5361L7.97153 21.623H7.92883L7.82918 21.5535L7.77224 21.5187H7.53025L7.40213 21.5535L7.33096 21.5709L7.30249 21.5883L7.27402 21.6057L7.04626 21.5709L6.98932 21.6057L6.88968 21.6926L6.84697 21.7099L6.79004 21.6926L6.61922 21.6578H6.57651L6.46264 21.6752H6.32029L6.24911 21.7273L6.22064 21.8142L6.19217 21.9185L6.1637 22.0228L6.121 22.0923V22.1271L6.13523 22.1619L6.14947 22.2314V22.4226L6.1637 22.4747L6.17794 22.579L6.19217 22.6312L6.17794 22.6659L6.09253 22.7529L6.04982 22.7181L5.9217 22.6486L5.89324 22.6138L5.879 22.3183L5.89324 21.9707L5.86477 21.7968L5.7936 21.6752L5.69395 21.6578L5.60854 21.7447L5.52313 22.0054L5.4662 22.1097L5.38078 22.214L5.28114 22.2662L5.1815 22.214L5.15303 22.1619L5.11032 22.0228L5.03915 21.9011L4.96798 21.7273L4.95373 21.6578L4.92526 21.484V21.3971L4.95373 21.2928V21.258L4.96798 21.2059L4.98221 21.1885H4.99644L5.09608 21.1363L5.11032 21.0668L5.08185 21.0321L5.02491 20.9973L4.96798 20.9799L4.8968 20.9973L4.69751 21.0494L4.64057 20.9973L4.38434 20.893L4.24199 20.8582H3.27402L2.88968 20.7887L1.96441 20.6323L1.89324 20.5801L1.79359 20.4237L1.72242 20.3368L1.63701 20.302H1.53736L1.43772 20.3368L1.33808 20.4063L1.28114 20.5454L1.06762 20.8061L1.01067 20.8408L0.939498 20.8756L0.441282 21.1016L0.384343 21.1363L0.213523 21.3102L0.0854101 21.5014Z" fill="#3A98FF"/>
</svg>
