<svg xmlns="http://www.w3.org/2000/svg" width="32" height="32" fill="none"><path fill="#3A98FF" d="m.085 21.501-.028-.278v-.47L0 20.199v-.105l.014-.104.071-.104.015-.087v-.243l.014-.018.028-.017H.2l.015-.018.042-.07-.014-.051-.043-.07-.028-.07.014-.086.029-.052.042-.018.057.018.029.017.042.052.029.018.014.017h.014l.015-.017.028-.035h.014l.043-.035-.043-.07-.085-.121v-.07l.071-.121.014-.087v-.087l.029-.07.028-.07.057-.051.1-.087.057-.052.014-.053.014-.104.043-.052.043-.017.056-.052.072-.105.057-.035.113.053h.072l.07-.035.058-.035.028-.052.071-.14.029-.034h.014v-.035l.014-.035v-.034l.015-.018-.015-.034v-.07l-.014-.052-.028-.052v-.104h.014l.071-.07.071-.104.356-.626.086-.052.085-.035.441-.104.071-.018.086-.07.057-.034.057-.035.07-.017.271.017.185.035.1-.017.598-.296.057-.017.043-.035.042-.035.043-.07h.014l.029-.017h.057l.014.018v.017l.014.018.043.139.028.07.1.138.043.07.042.035h.043l.043-.035.47-.574.085-.122.043-.052.056-.052.328-.156.2-.14.099.018.17.052.115.018.583-.035.712.035.185-.018.114.018.128.034.128.07.071.07.043.017v.017l.028.018h.129l.042-.018h.014l.015.018v.017l.014.017.014.018.029.017.028.017h.043l.1.018.085.035.014.017h.057l.057-.017.712-.47.042-.052.043-.07.043-.121.028-.052.057-.07.071-.052.342-.156.014-.018.014-.034.015-.018.014-.017h.028l.015-.018.014-.017.014-.035.014-.017.043-.017.029-.018.014-.017.028-.053.014-.017.043-.035.043-.017.014-.035h.014l.057-.017-.07-.174-.015-.087v-.087l-.014-.017-.029-.052-.014-.018-.014-.052v-.052l-.014-.035-.015-.052-.014-.035-.014-.087-.014-.034v-.087l.028-.035v-.069l.014-.035v-.018l.029-.034v-.018l.014-.07v-.034l.014-.018.014-.034.029-.052.028-.07.015-.017.028-.018.014-.017.015-.017.014-.018v-.261l-.014-.052-.029-.087-.014-.034-.029-.018-.028-.017-.1-.07-.014-.017h-.085l-.015-.017-.042-.035h-.057l-.043.017-.014.018h-.014l-.015.017-.028.035v.017h-.057l-.014-.017-.014-.018-.114-.156v-.035l-.015-.035v-.156l.015-.035v-.052l.014-.035.028-.07v-.034l.029-.087h.028l.043.035h.028l.015.017.014.018.014-.018h.029l.014-.017v-.018l-.014-.017v-.017l.014-.018.014-.017.014-.018h.014l.015-.052v-.017l-.014-.035v-.035l.014-.034.014-.035.014-.017.014-.018.015-.017h.042l.015-.018.028-.052.043-.034.014-.035v-.018l.014-.017-.014-.035v-.017h.028v-.052l.015-.018.028-.017v-.017l.014-.018h.015l.014-.017h.014v.017h.043l.014-.017.014-.018.015-.017.014-.07.014-.017.014-.017.043-.052.014-.018.014-.017h.057l.015-.018-.015-.034-.042-.07-.015-.017v-.052l.015-.018V10.1l.014-.018.014-.017.014-.017.029-.035.014-.017h.043l.014.017h.028l.015-.017h.014l.014-.018v-.122l-.028-.104-.029-.087-.014-.034-.014-.035-.014-.14-.015-.017-.014-.034-.028-.053-.015-.034-.057-.244-.042-.121-.014-.035-.043-.122-.014-.017-.029-.018h-.014v-.017l-.029-.052-.014-.017-.014-.018-.043-.017h-.014l-.014-.018-.014-.034-.015-.018-.014-.017-.028-.018-.057-.017-.057-.035-.029-.017-.085-.14-.014-.034-.029-.07v-.017h-.014v-.017l.057-.278V7.89l.114-.121.014-.018.028-.087.015-.017.014-.017v-.018l.014-.017.043-.104.071-.209v-.017l.014-.053-.043-.295v-.035l.015-.035.07-.19.015-.122.086-.053h.014l.071.018h.071v-.018l.029-.017.014-.035.028-.034.015-.018v-.017l.042-.035h.014l.015-.017.057-.157.014-.035h.014l.014-.017h.015l.014.017v.018h.014v.017h.029l.014.018h.057l.042-.035.029-.018.028-.017.015-.017h.014l.014-.018h.029l.128.018h.014l.014-.018.043-.017.014-.017h.085l.029-.018.057-.035.014-.017h.043L12 5.91l.014-.018v-.034l.014-.035L12 5.666l.014-.086v-.035L12 5.51l-.028-.104-.015-.035-.042-.47v-.034H11.9l-.014-.017-.071-.018H11.8l-.029-.035-.014-.017v-.017h-.014v-.018l-.029-.417.014-.035.015-.034.014-.018.014-.017.043-.052.028-.035.015-.035.042-.07.029-.034.028-.07v-.052l-.014-.052-.043-.104-.014-.07-.014-.017-.014-.018h-.043l-.057.018h-.014V3.58l.1-.591v-.018l.014-.034V2.92l.014-.017.014-.018.029-.034.014-.018.057-.017.028-.018.114-.017.071.017.072.018.028.017.285.174.057.035h.014l.028-.018h.029l.07-.07.058-.051v-.035l-.014-.087-.015-.104v-.122l-.014-.017-.028-.035-.015-.035V2.4l.043-.087.014-.018v-.052l-.014-.017-.043-.07v-.017l-.014-.017v-.105L12.754 2l.029-.07.142-.208.014-.018.029.018.043.017.057.052.227.14.043.052.057.052.085.121v.018l.015.034.057.21v.016h.028l.043.018h.171v.017l.056.052h.029l.128-.034h.071l.043.017.014.017.014-.017.043-.035.014-.035.029-.07.028-.034.072-.052.014.035v.035l.043.086v.122l.014.018.07.121v.087l-.042.052-.014.018-.043.156-.028.122-.057.156-.057.14-.029.051-.014.018-.014.07-.014.017v.034l.014.018.014.017h.029l.028-.017.029-.052.014-.018.028-.017.143-.087h.014l.014-.017.014-.018.029-.052.014-.017.014-.035.029-.07.014-.017.014-.017h.057l.157.017.042.017.214.035h.043l.1-.07.099-.121.028-.052.015-.07.014-.052v-.017l.057-.035.043-.035.042-.052.014-.017.015-.035.014-.017.028-.053.029-.034.028-.035v-.035l.015-.017.014-.018h.099l.015.018.042.017h.029l.071-.017.057-.035.114-.07.071-.086.043-.053.014-.017h.028l.043-.017.029-.018h.014l.028-.07.015-.017.014-.017.028-.035.015-.017.014-.052.014-.018.1-.104.014-.017v-.018l.014-.035.014-.017v-.017h.015l.028-.018h.1l.014-.017.043-.017h.071l.014.017.014-.017.057-.018.627-.434.07-.07v-.052l.015-.017.043-.087v-.07h.028l.029-.017.028-.018.299-.226.043-.07.057-.051.014-.018.014-.017.014-.017.043-.018.071-.07.086-.051.028-.018.043-.035.27-.104.171-.122.1-.017.028-.017.029-.018.057-.052.014-.017h.043l.042.017h.029l.028-.017h.014l.015.017.057.018h.028l.014-.018V.035l.015-.018.014-.017h.028l.029.035.028.035.043.034.028.018h.029l.028-.018.015.018h.014l.014.017h.043l.028-.017h.057l.029.017h.056l.043.035h.057l.043-.035h.014V.122l.014.017h.029l.043.035.056.052.015.017h.1l.028-.017h.028l.029.017h.014l.043.035.028.017h.014l.015-.017h.028l.014.017.029.018.028.035.043.017.014.017-.042.087-.057.087-.029.122-.043.156-.042.105-.015.07-.014.034-.028.122.014.052.014.017.014.052.015.018v.121l-.015.018v.034l.015.053v.017l.014.017.028.035.015.018.028.017.029.017.256.052.014.018.043.035.014.034.014.018.612.19.128-.051h.015l.014-.018.014-.034.014-.018.015-.035.042-.034.015-.018v-.017l.014-.052v-.018h.014l.014-.017.014-.017.3-.174.085-.018.057-.034h.014l.043-.018h.1l.042.018.086.017.056.035.128.035h.086l.128.07h.029l.042-.018.043.017.014.018.029.017.042.035.014.034.015.018.028.087.014.017.015.017.227.21.057.051.129.14.028.034.142.104.015.035.028.035.014.017.057.035.029.017.028.018h.029l.113-.035h.015l.014.017.043.053.1.034.07.07.029.035.028.052.043.017.086.087.355.209.057.034.072.035.142.035h.057l.042-.035h.029l.029.035.014.035.014.017.014.017.071.035.015.018.028.052.014.017v.017l.014.018h.015l.028.017.015-.017.07-.018.015-.017h.057l.071-.017h.043l.085.034h.029l.014-.017h.014l.029-.017.014-.018.1-.052.042-.035.014-.034h.015l.014-.018h.085l.015-.017h.014l.042-.035.854.956.4.452.084.8.029.104.085-.017.129.034.142.035h.014l.014.017.086.07.057-.017.128-.087.114-.035.07-.035.1-.104.029-.052.014-.018h.029l.014-.017.028-.017.015-.018h.042l.029.018.07.052.03.017h.056l.029-.017.057-.035h.057l.028.017.043.035.014.017.014.018.072.122h.014l.014.017.043-.017h.028l.057-.035.029-.018.085-.034h.014l.029.017.057.017.142.087.028.035.057.122.015.017h.057l.014-.017v-.018h.071v-.017l.057-.017.014-.018.029.018.227.121.086.035.07.017h.058l.043-.017h.014l.156-.017.029.017.014.017h.029l.014.053v.017l-.014.017v.018l.014.017v.017h.028l.043.018.014.017v.07l.014.017h.043l.029-.017h.042l.043.017.043.035.085.07.029.052.028.017.014.07.015.017.014.017.014.018.071.052.029.017h.071l.043-.017.07.035.015.034v.018l.014.034.029.053.014.034.043.035.014.017.014.018v.017l.014.052v.018l.043.07v.121l-.029.017-.028.018-.014.017-.014.035-.043.122-.014.052-.015.104v.087l-.028.104-.043.052-.014.035-.071.07-.043.052-.2.139-.213.4-.028.052.014.035v.069l-.014.017h-.057l-.029-.017h-.071l-.156.07-.015.017-.014.017-.014.018-.014.07v.034l-.014.017.014.122v.14l-.043.225v.017l.014.018v.035l.057.07.014.034.029.07v.104l-.029.017-.042.035-.014.017-.029.018v.017l-.014.035h-.014l-.043.017h-.285l-.1-.017-.07-.035h-.029l-.014.017-.015.053-.014.017-.057.07-.014.017v.017l-.014.035-.086.47-.042.156-.015.07v.051l.029.157.014.035-.014.034v.261l-.014.018h-.015l-.042.034h-.015v.018l-.028.052v.052l-.014.174v.139l.014.017.043.018h.028l.014-.018v-.017l.029-.07.014-.017v-.018h.014l.029-.017h.028l.015-.017h.028l.014.034v.018l-.014.035-.043.07v.017l-.014.017v.035l.014.017.015.018.014-.018h.014l.029-.017.014-.018h.014l.014.018.014.017.015.052.014.035v.052l-.043.122v.087l.014.087v.017l.015.017.042.018h.043l.014-.018h.1l.028.018.015.034.014.035.028.122.015.035.014.034.014.018.128.087.014.017.015.018.028.052v.034l.014.035.015.018.028.034.114.07.043.017.07.087.03.104.028.07v.087l-.014.087-.015.035-.014.017-.043.07-.014.034-.014.035-.014.017.014.07.057.156-.029-.017-.057-.035h-.014l-.014-.017-.029-.018v-.017h-.014l-.014-.017h-.128l-.014-.018-.015-.017-.014-.017v-.018l-.014-.017h-.086l-.028-.035-.142-.052h-.014l-.015-.018v-.017l-.014-.035v-.017h-.014l-.015.017-.028.018v.052l.014.07v.017l-.014.017-.014.018h-.057l-.014-.018-.015-.017-.056-.07h-.072l-.1.035h-.042l-.029.035-.128.087-.042.034-.043.018-.028-.018h-.043l-.086-.034h-.028l-.029.017-.042.035-.043.017-.043.035h-.042l-.015-.017-.028-.018-.014-.017h-.043l-.057.017-.028.018h-.029l-.014-.018h-.014l-.015-.017-.028-.035h-.029l-.014.018v.052l.014.017.385.452h.014v.052l.014.035v.104l-.014.018h-.185l-.029-.018-.028-.035-.014-.017-.043-.017-.014-.018-.029-.052h-.014l-.014-.017h-.086l-.028.017-.028.035-.185.208h-.114l-.015.018-.014.035-.028.052-.057.139-.057.087-.071.07v.017l-.015.034.015.053v.034l.028.052v.053l-.057.139.029.017h.014l.043-.035.085-.104.014.035.029.017.028.018.043.034.028.018.029.034.014.018.043.07v.017l.014.034.014.07-.014.052v.104l-.014.157-.029.191-.028.174v.052l.014.017v.018h.014l.015.017h.028l.157.018h.028l.014.017v.017l.014.018v.017l.015.017.028.244v.069l-.014.035-.014.035v.017l-.015.018-.028.034h-.014l-.043.018-.057.017-.313.017-.029-.017-.014-.017v-.035l-.014-.017h-.256l-.029.017-.028.017H28.1l-.015.018-.014.034v.018l-.014.017v.035l.014.017.043.035.028.07v.017l.015.018.042.017.029.017.028.018h.043l.028-.035.015-.017.028-.018h.071l.015.018.014.017h.014l.028.07v.017h.015l.014.017.043.018.014.017-.014.035v.069h.014l.028.018h.015l.014.017.014.017v.018l-.014.07-.057.12v.053l.014.035h.014l.029.017h.028l.015.018.142.173.014.035.043.07.014.017.014.104v.226l-.014.087v.035l.014.035h.014v.017l.015.017v.035l-.015.105v.139l-.014.017-.057.191-.014.052v.035l.014.035v.069l-.014.018-.014.017-.014.035-.029.035-.028.017-.015.017-.028-.017h-.028l-.057-.052h-.015l-.014.017-.014.035v.035l.014.017.043.105v.034l-.014.035-.086.122-.014.017h-.043l-.014.018-.029.034-.014.052-.028.018-.086.07h-.014l-.028.034-.015.104-.042.365v.087l-.015.209-.014.017-.014.018-.043.034-.014.018-.057.087-.028.017h-.086l-.014.017-.014.018-.029.052-.028.035v.017l-.014.017v.14l-.015.052-.056.243-.029.122v.087l-.071.208-.014.018-.015.017-.042.017-.043.035h-.085l-.798-.017-.042.017-.029.018-.014.017-.029.035v.017l-.042.174-.014.035-.029.017-.085.07-.057.034-.015.035-.028.035-.014.017v.087l.014.017.014.053.014.052.015.017.014.018.1.052-.043.174v.104l.014.017.029.087v.018l-.015.017-.014.017-.028.018-.014.017v.017l-.043.157-.015.035-.042.07v.034h.042l.029-.018.014-.017h.015l.014.017.014.018v.052l-.071.104-.015.035-.056.174-.029.035-.014.034h-.014l-.015.018.015.035v.017l.042.035-.028.035-.014.017-.015.017-.042.018h-.029l-.028.017-.029.087.015.035-.015.017-.042.104-.057.14-.015.017-.014.035-.028.017-.015.017h-.071l-.014-.017v-.017h-.028l-.057.017h-.086l-.014-.035h-.014l-.029.018-.014.034-.028.035-.029.018-.028.017-.015.017-.014.035.014.052v.035l.015.017h.014l.014.018h.057l.014.017v.035l-.014.07-.057.138-.028.052-.043.07-.014.035-.014.07-.015.034-.014.018-.029.034v.018l-.014.034v.087l.014.035v.035l-.014.035-.07.19-.015.07-.029.209-.156.139-.014.017-.043.105v.243l-.014.035v.017l-.128.26-.057.14-.015.104v.052h.057l.029.018.028.017h.043l.014-.017h.057l.029.017v.018h.014l.014.034.014.035.015.017-.015.053-.042.104-.029.017-.057.07-.028.017h-.043l-.043-.035h-.042l-.029.035-.028.035-.057.052-.157.052-.27.191-.356.157-.214.156-.384.191-.043.035-.1.104-.042.035-.185.018-.057.052-.029.052-.014.052-.028.07-.014.017-.072-.035h-.042l-.029.035-.028.052-.043.018v-.035l-.014-.018v-.052l.014-.017v-.017l.014-.018.015-.017v-.087h-.015l-.014-.018h-.142l-.043.018-.043-.018h-.028l-.015-.017-.028-.017-.014-.018h-.185l-.014-.017h-.072l-.07.017-.229.157-.042.017-.014.018h-.129l-.042.017-.043.017h-.043l-.014-.017h-.014l-.015-.017-.028-.035-.014-.018-.014.018-.029.017-.014.018h-.043l-.028-.018h-.043l-.028.035-.029.035h-.014l-.014-.018-.029-.017h-.043l-.056.035h-.029l-.043.017-.014-.017h-.014l-.014-.018-.015-.017v-.017h-.014l-.014-.018h-.029l-.085.035-.157.087-.042.035-.029.034-.042.018-.1.035-.342.173h-.014l-.028.018H19.9l-.028.017-.057.087-.029.017-.27.192-.071.017h-.043l-.014-.017-.014-.018-.015-.017h-.057l-.128.017h-.042l-.143.035-.028-.017h-.057l-.029.017-.227.156-.014.018h-.015l-.043.017-.07.018-.086.017h-.029l-.014.017-.043.052-.042.087-.014.018V30h-.043l-.057-.017-.071-.018h-.057l-.128.052-.057.035-.114.104-.185.122-.071.035h-.171l-.029.017-.042.035-.029.018h-.028l-.057-.018-.029.018-.17.086-.029.035-.157.105-.014.017-.057.052-.042.052-.015.017h-.071v.087l-.014.035-.029.018-.014.017-.213.07-.128.086-.029.018h-.014l-.014-.018-.015-.017v-.087l-.014-.017v-.018l-.028-.034h-.014l-.015-.018h-.042l-.015.018-.042.086-.015.018-.028.017-.057.052-.028.018h-.029l-.1-.018-.014-.017v-.017l-.014-.018v-.035l-.014-.017h-.043l-.057.052-.071.052-.029.018h-.057l-.014-.018h-.014l-.014-.017v-.052l.014-.018.014-.017.029-.035.014-.034.014-.035.014-.018-.014-.017h-.043l-.114.017h-.056l-.029.035.014.018v.017l.015.017.042.052v.035l.014.018-.014.034-.014.018-.242.191h-.014v.07h.014l.014.017h.171l.014.017.015.018v.174l-.015.017-.014.035-.014.017-.014-.017-.029-.018h-.042v.018l-.015.017.014.035v.034l.015.018v.017l-.014.035v.017l-.029.035h-.043l-.014-.017v-.018l-.014-.017v-.017l-.014-.018h-.029l-.014.018-.029.017-.028.052-.014.018-.014.034h-.029l-.028-.034-.029-.018-.028-.017v-.018l-.015-.017-.014-.035v-.017l-.028-.018-.014.018v.017l-.029.035-.014.017h-.014l-.029-.017h-.057v.017l-.028.035v.018l-.029.034-.028.018-.029.017-.028.017-.071.018-.228.052-.057-.017-.014-.018v-.035l.014-.017.014-.017v-.035l-.014-.017-.014-.018h-.015l-.1.018-.014.017h-.014l-.014.017-.014.018-.029.017-.028.017h-.014l-.029-.017-.014-.017h-.014l-.014.017-.015.017-.014.018h-.057l-.028-.018-.029-.017h-.057l-.028-.017h-.014l-.015-.018-.014-.017-.014-.052-.014-.035v-.208l.028-.053-.014-.035-.029-.034-.17-.122-.043-.052-.086-.07v-.017l-.014-.035.014-.017v-.018h.015l.028-.034.142-.052.015-.018.014-.017.014-.035v-.017l-.043-.07-.014-.017-.014-.035v-.069l.014-.035h.014l.029-.018.014-.017v-.017l.014-.035v-.017h-.099l-.057-.018-.029-.017-.128-.105-.057-.034h-.057l-.014-.018-.014-.017v-.122l-.014-.017h-.015l-.1-.018-.142-.07-.028-.034-.029-.017v-.035l.015-.07-.014-.017v-.035l-.1-.139-.014-.017-.015-.035.015-.087.1-.295.056-.105.043-.034.071-.087.014-.035v-.017l-.07-.122-.015-.017h-.014l-.015-.018h-.113l-.015-.017-.014-.018-.014-.034-.014-.018.014-.017.014-.017h.057l.014-.018.014-.017v-.018l-.014-.017-.014-.035v-.017l.014-.018.014-.034.015-.018h.057l.028-.017.014-.035.015-.017v-.018l-.057-.104-.072-.209v-.052l.029-.034.014-.035v-.035l-.014-.017v-.018h-.014l-.014-.017-.015-.017-.014-.053v-.052l.014-.017.014-.017.015-.035.057-.035.014-.017v-.053l.057-.295.014-.035h.014l.071.018h.015l.014-.018.014-.017.057-.191.014-.018v-.017h.015l.028-.035.014-.017v-.018l-.014-.017v-.104l.014-.053.014-.034v-.018h.015l.028-.034.014-.018v-.017h-.014v-.035l-.014-.017-.014-.174v-.018l-.014-.017-.015-.017-.014-.018-.014-.017h-.014l-.043-.017-.029-.018h-.042l-.015.018h-.071l-.014-.035v-.018l-.014-.034h-.014l-.043-.018-.014-.017-.015-.035v-.07h-.042l-.029.035-.028.053h-.014l-.015.017-.014-.017h-.014l-.057-.053-.071-.052-.072-.017-.014-.017h-.014l-.028.017-.086-.017-.014.017h-.014v.017l-.014.035-.015.017L12 26.3h-.014l-.014.017h-.043l-.014.018-.029.017-.014.017h-.029l-.227.035-.043-.017-.029-.018v-.052l.015-.087.014-.017-.014-.035v-.035l-.057-.104-.014-.035-.015-.087-.014-.034-.043-.157-.028-.104v-.035h-.029l-.014-.017-.028-.018-.128-.208-.015-.035-.014-.017v-.14l-.057-.243v-.069l.014-.035.015-.017-.015-.018-.028-.035-.029-.034-.028-.07-.028-.035-.015-.017h-.042l-.015-.017-.028-.035v-.018l-.014-.034.028-.07.014-.278.029-.07.043-.034.014-.018.014-.017.028-.07.015-.052v-.034l.014-.087.014-.018.014-.017h.029l.028-.017.015-.018.028-.035v-.034l.014-.035v-.087l-.07-.313-.015-.035-.014-.017-.015-.017v-.018l-.014-.017-.284-.157-.029-.034-.071-.105-.014-.017V22.7l.014-.035v-.052l.014-.087.014-.226v-.07l.015-.034v-.018h.014l.043-.052.014-.017v-.018l.014-.034.014-.053v-.122l-.028-.069-.029-.087-.114-.104-.028-.052-.2-.174h-.042l-.028-.017-.043-.035-.071-.087v-.017l.014-.018v-.069l.014-.018v-.034l-.014-.035-.014-.018-.057-.052-.029-.035-.043.035-.07.035-.058.017-.07.018-.072.017-.028.052-.029.053-.043.052-.057.017-.057-.035-.07-.121-.058-.07-.042-.017-.37.017-.029.017-.028.035-.015.035-.028.017v.035l.028.07v.07l-.014.086-.028.087-.043.035-.028.017h-.057l-.029-.017-.014-.052-.014-.035v-.087l-.029-.052-.028-.035-.029-.017-.042-.018v.174l-.015.07-.028.07-.014.017-.043.017h-.014l-.015.017-.014.035-.014.017-.043.035h-.057l-.085-.07-.114-.052-.057-.052-.028-.087-.029-.104-.028-.07-.072-.069-.056.104.07.261-.07.087h-.043l-.1-.07-.057-.034H7.53l-.128.035-.071.017-.029.017-.028.018-.228-.035-.057.035-.1.087-.042.017-.057-.017-.17-.035h-.043l-.114.017H6.32l-.07.052-.03.087-.028.105-.028.104-.043.07v.034l.014.035.014.07v.19l.015.053.014.104.014.052-.014.035-.085.087-.043-.035-.128-.07-.029-.034-.014-.296.014-.347-.028-.174-.071-.122-.1-.017-.085.087-.086.26-.057.105-.085.104-.1.052-.1-.052-.028-.052-.043-.14-.07-.12-.072-.175-.014-.07-.029-.173v-.087l.029-.104v-.035l.014-.052.014-.017h.014l.1-.053.014-.07-.028-.034-.057-.035-.057-.017-.071.017-.2.052-.056-.052-.257-.104-.142-.035h-.968l-.384-.07-.926-.156-.07-.052-.1-.156-.072-.087-.085-.035h-.1l-.1.035-.099.07-.057.138-.213.261-.057.035-.072.035-.498.226-.057.034-.17.174z"/></svg>