<svg width="160" height="77" viewBox="0 0 160 77" fill="none" xmlns="http://www.w3.org/2000/svg">
<path d="M69.507 34.4569C68.9567 33.4239 68.1603 32.6417 67.1177 32.1104C66.104 31.5495 64.9022 31.2691 63.512 31.2691C61.1082 31.2691 59.1823 32.0808 57.7343 33.7043C56.2862 35.2982 55.5622 37.4381 55.5622 40.1242C55.5622 42.9873 56.3152 45.2306 57.8211 46.854C59.3561 48.4479 61.4558 49.2448 64.1202 49.2448C65.9448 49.2448 67.4797 48.7726 68.725 47.828C69.9993 46.8835 70.9261 45.5257 71.5053 43.7547H62.0784V38.176H78.2388V45.2158C77.6885 47.1049 76.7473 48.8611 75.4151 50.4845C74.1118 52.108 72.4466 53.4214 70.4193 54.425C68.392 55.4286 66.104 55.9304 63.5555 55.9304C60.5435 55.9304 57.8501 55.2662 55.4753 53.938C53.1294 52.5802 51.2904 50.7059 49.9582 48.3151C48.6549 45.9242 48.0033 43.1939 48.0033 40.1242C48.0033 37.0544 48.6549 34.3241 49.9582 31.9333C51.2904 29.5129 53.1294 27.6386 55.4753 26.3103C57.8211 24.9525 60.5001 24.2737 63.512 24.2737C67.1611 24.2737 70.231 25.1739 72.7217 26.9744C75.2413 28.775 76.9066 31.2691 77.7175 34.4569H69.507Z" fill="#2A5687"/>
<path d="M73.0657 47.6192L72.9881 47.0033V45.9639L72.833 44.732V44.5011L72.8718 44.2701L73.0657 44.0391L73.1044 43.8466V43.3847V43.3077L73.1432 43.2692L73.2208 43.2307H73.3759L73.4146 43.1922L73.531 43.0382L73.4922 42.9227L73.3759 42.7688L73.2983 42.6148L73.3371 42.4223L73.4146 42.3068L73.531 42.2683L73.6861 42.3068L73.7636 42.3453L73.8799 42.4608L73.9575 42.4993L73.9963 42.5378H74.035L74.0738 42.4993L74.1514 42.4223H74.1901L74.3065 42.3453L74.1901 42.1913L73.9575 41.9218V41.7679L74.1514 41.4984L74.1901 41.3059V41.1134L74.2677 40.9594L74.3453 40.8055L74.5003 40.69L74.7718 40.4975L74.9269 40.382L74.9657 40.2665L75.0044 40.0356L75.1208 39.9201L75.2371 39.8816L75.3922 39.7661L75.586 39.5351L75.7412 39.4581L76.0514 39.5736H76.2452L76.4391 39.4966L76.5942 39.4196L76.6718 39.3041L76.8657 38.9962L76.9432 38.9192H76.982V38.8422L77.0207 38.7652V38.6882L77.0595 38.6497L77.0207 38.5727V38.4187L76.982 38.3033L76.9044 38.1878V38.1493V38.1108V38.0723V38.0338V37.9568H76.9432L77.1371 37.8028L77.3309 37.5718L78.3003 36.186L78.533 36.0705L78.7656 35.9935L79.9677 35.7625L80.1616 35.724L80.3942 35.57L80.5493 35.4931L80.7044 35.4161L80.8983 35.3776L81.635 35.4161L82.1391 35.4931L82.4105 35.4546L84.0391 34.8001L84.1942 34.7616L84.3105 34.6847L84.4269 34.6077L84.5432 34.4537H84.5819L84.6595 34.4152H84.737H84.7758H84.8146L84.8534 34.4537V34.4922L84.8921 34.5307L85.0085 34.8386L85.086 34.9926L85.3574 35.3006L85.4738 35.4546L85.5901 35.5316H85.7064L85.8228 35.4546L87.1023 34.1842L87.335 33.9147L87.4513 33.7993L87.6064 33.6838L88.4983 33.3373L89.0411 33.0293L89.3125 33.0678L89.7778 33.1833L90.088 33.2218L91.6778 33.1448L93.6166 33.2218L94.1207 33.1833L94.4309 33.2218L94.7799 33.2988L95.1288 33.4528L95.3227 33.6068L95.439 33.6453V33.6838L95.5166 33.7223H95.5941H95.788H95.8656L95.9819 33.6838H96.0207L96.0595 33.7223V33.7607L96.0982 33.7993L96.137 33.8377L96.2145 33.8763L96.2921 33.9147H96.4084L96.6799 33.9532L96.9125 34.0302L96.9513 34.0687H97.0288H97.1064L97.2615 34.0302L99.2003 32.9908L99.3166 32.8753L99.4329 32.7214L99.5492 32.4519L99.6268 32.3364L99.7819 32.1824L99.9758 32.0669L100.906 31.7205L100.945 31.682L100.984 31.605L101.023 31.5665L101.061 31.528H101.1H101.139L101.178 31.4895L101.217 31.451L101.255 31.374L101.294 31.3355L101.41 31.297L101.488 31.2585L101.527 31.22L101.604 31.1046L101.643 31.066L101.759 30.9891L101.876 30.9506L101.915 30.8736H101.953L102.108 30.8351L101.915 30.4501L101.876 30.2576V30.1037V30.0652L101.837 30.0267L101.759 29.9112L101.721 29.8727L101.682 29.7572V29.6417L101.643 29.5647L101.604 29.4492L101.566 29.3722L101.527 29.1798L101.488 29.1028V28.9873V28.9103L101.566 28.8333V28.7948V28.7563V28.6793L101.604 28.6023V28.5638L101.682 28.4868V28.4483L101.721 28.2944V28.2174L101.759 28.1789L101.798 28.1019L101.876 27.9864L101.953 27.8324L101.992 27.7939L102.07 27.7554L102.108 27.7169L102.147 27.6784L102.186 27.6399V27.6014V27.255V27.0625L102.147 26.947L102.07 26.7545L102.031 26.6775L101.953 26.639L101.876 26.6005L101.604 26.4466L101.566 26.4081H101.488H101.41H101.333L101.294 26.3696L101.178 26.2926H101.139H101.1H101.061H101.023L100.906 26.3311L100.868 26.3696H100.829L100.79 26.4081L100.713 26.4851V26.5236H100.674H100.596H100.557L100.519 26.4851L100.48 26.4466L100.17 26.1001V26.0231L100.131 25.9461V25.7152V25.5997L100.17 25.5227V25.4842V25.4072L100.208 25.3302L100.286 25.1762V25.0992L100.364 24.9067H100.402H100.441L100.557 24.9837H100.635L100.674 25.0222L100.713 25.0607L100.751 25.0222H100.79H100.829L100.868 24.9837V24.9452L100.829 24.9067V24.8682L100.868 24.8297L100.906 24.7912L100.945 24.7528H100.984L101.023 24.6373V24.5988L100.984 24.5218V24.4833V24.4448L101.023 24.3678L101.061 24.2908L101.1 24.2523L101.139 24.2138L101.178 24.1753H101.217H101.255H101.294L101.333 24.1368L101.41 24.0213L101.527 23.9443L101.566 23.8674V23.8289L101.604 23.7904L101.566 23.7134V23.6749H101.643V23.6364V23.5979V23.5594L101.682 23.5209L101.759 23.4824V23.4439L101.798 23.4054H101.837L101.876 23.3669H101.915V23.4054H101.953H101.992H102.031L102.07 23.3669L102.108 23.3284L102.147 23.2899L102.186 23.1359L102.225 23.0974L102.264 23.0589L102.38 22.9435L102.419 22.905L102.457 22.8665H102.535H102.612L102.651 22.828L102.612 22.751L102.496 22.597L102.457 22.5585V22.52V22.443L102.496 22.4045V22.366L102.535 22.3275L102.574 22.289L102.612 22.2505L102.69 22.1735L102.729 22.135H102.768H102.806H102.845L102.884 22.1735H102.923H102.961L103 22.135H103.039L103.078 22.0965V22.0581V21.9811V21.8271L103 21.5961L102.923 21.4036L102.884 21.3266L102.845 21.2496L102.806 20.9417L102.768 20.9032L102.729 20.8262L102.651 20.7107L102.612 20.6337L102.457 20.0948L102.341 19.8253L102.302 19.7483L102.186 19.4788L102.147 19.4403L102.07 19.4018H102.031V19.3634L101.953 19.2479L101.915 19.2094L101.876 19.1709L101.759 19.1324H101.721L101.682 19.0939L101.643 19.0169L101.604 18.9784L101.566 18.9399L101.488 18.9014L101.333 18.8629L101.178 18.7859L101.1 18.7474L100.868 18.4395L100.829 18.3625L100.751 18.2085V18.17H100.713V18.1315L100.868 17.5156V17.4771L101.178 17.2076L101.217 17.1691L101.294 16.9766L101.333 16.9381L101.372 16.8996V16.8611L101.41 16.8226L101.527 16.5917L101.721 16.1297V16.0912L101.759 15.9757L101.643 15.3213V15.2443L101.682 15.1673L101.876 14.7439L101.915 14.4744L102.147 14.3589H102.186L102.38 14.3974H102.419H102.457H102.535H102.574V14.3589L102.651 14.3204L102.69 14.2434L102.768 14.1664L102.806 14.1279V14.0894L102.923 14.0124H102.961L103 13.974L103.155 13.6275L103.194 13.5505H103.233L103.272 13.512H103.31L103.349 13.5505V13.589H103.388V13.6275H103.466L103.504 13.666H103.582H103.621H103.659L103.776 13.589L103.853 13.5505L103.931 13.512L103.97 13.4735H104.008L104.047 13.435H104.125L104.474 13.4735H104.512L104.551 13.435L104.668 13.3965L104.706 13.358H104.745H104.9H104.939L105.017 13.3195L105.172 13.2425L105.21 13.204H105.327L105.521 13.0885L105.559 13.05V12.9731L105.598 12.8961L105.521 12.5496L105.559 12.3571V12.2801L105.521 12.2031L105.443 11.9722L105.404 11.8952L105.288 10.8558V10.7788H105.249L105.21 10.7403L105.017 10.7018H104.978L104.9 10.6248L104.861 10.5863V10.5478H104.823V10.5093L104.745 9.58543L104.784 9.50845L104.823 9.43145L104.861 9.39296L104.9 9.35447L105.017 9.23897L105.094 9.16199L105.133 9.08499L105.249 8.93101L105.327 8.85402L105.404 8.70004V8.66154V8.58455L105.366 8.46906L105.249 8.23808L105.21 8.0841L105.172 8.0456L105.133 8.00712H105.094H105.017L104.861 8.0456H104.823V7.93012L105.094 6.62127V6.58277L105.133 6.50578V6.46729L105.172 6.42879L105.21 6.39029L105.288 6.3133L105.327 6.27481L105.482 6.23631L105.559 6.19781L105.87 6.15932L106.063 6.19781L106.257 6.23631L106.335 6.27481L107.11 6.65977L107.266 6.73675H107.304L107.382 6.69825H107.459L107.653 6.54427L107.808 6.42879V6.39029V6.35179L107.77 6.15932L107.731 5.92834V5.73586V5.69737V5.65888L107.692 5.62038L107.615 5.54338L107.576 5.4664V5.4279V5.3894V5.3509V5.31242L107.692 5.11994L107.731 5.08144V5.04294V5.00444V4.96595L107.692 4.92746L107.576 4.77347V4.73498L107.537 4.69648V4.5425V4.504V4.46551L107.576 4.42701L107.653 4.27303L108.041 3.81107L108.08 3.77259L108.157 3.81107L108.274 3.84957L108.429 3.96507L109.049 4.27303L109.166 4.38851L109.321 4.504L109.553 4.77347V4.81197L109.592 4.88896L109.747 5.3509V5.3894H109.825L109.941 5.4279H110.174H110.368H110.406V5.4664L110.561 5.58188H110.639L110.988 5.5049H111.104H111.182L111.298 5.54338L111.337 5.58188L111.376 5.54338L111.492 5.4664L111.531 5.3894L111.608 5.23542L111.686 5.15842L111.88 5.04294L111.919 5.11994V5.19692L112.035 5.3894V5.4279V5.62038V5.65888L112.074 5.69737L112.268 5.96684V6.00534V6.04383V6.08233V6.12082V6.15932L112.151 6.27481L112.112 6.3133L111.996 6.65977L111.919 6.92923L111.763 7.27569L111.608 7.58366L111.531 7.69915L111.492 7.73764L111.453 7.89162L111.414 7.93012V7.96862V8.00712L111.453 8.0456L111.492 8.0841H111.57L111.647 8.0456L111.725 7.93012L111.763 7.89162L111.841 7.85313L112.229 7.66065H112.268L112.306 7.62216L112.345 7.58366L112.423 7.46817L112.461 7.42968L112.5 7.35269L112.578 7.19871L112.617 7.16021L112.655 7.12171H112.733H112.81L113.237 7.16021L113.353 7.19871L113.935 7.27569H114.012H114.051L114.323 7.12171L114.594 6.85225L114.672 6.73675L114.71 6.58277L114.749 6.46729V6.42879L114.904 6.35179L115.021 6.27481L115.137 6.15932L115.176 6.12082L115.214 6.04383L115.253 6.00534L115.331 5.88985L115.408 5.81286L115.486 5.73586V5.69737V5.65888L115.525 5.62038L115.563 5.58188H115.757H115.796H115.835L115.874 5.62038L115.99 5.65888H116.068L116.261 5.62038L116.417 5.54338L116.727 5.3894L116.921 5.19692L117.037 5.08144L117.076 5.04294H117.153L117.27 5.00444L117.347 4.96595H117.386L117.463 4.81197L117.502 4.77347L117.541 4.73498L117.619 4.65799L117.657 4.61949L117.696 4.504L117.735 4.46551L118.006 4.23453L118.045 4.19603V4.15755L118.084 4.08055L118.123 4.04205V4.00355H118.161L118.239 3.96507H118.355H118.51L118.549 3.92657L118.665 3.88807H118.743H118.821H118.859L118.898 3.92657L118.937 3.88807L119.092 3.84957L120.798 2.88718L120.992 2.7332V2.6947V2.61772L121.031 2.57922L121.147 2.38674V2.30974V2.27125V2.23276H121.225L121.302 2.19426L121.38 2.15576L122.194 1.65532L122.31 1.50133L122.465 1.38585L122.504 1.34735L122.543 1.30885L122.582 1.27037L122.698 1.23187L122.892 1.07789L123.125 0.962393L123.202 0.923895L123.319 0.846911L124.055 0.615934L124.521 0.346459L124.792 0.307973L124.87 0.269475L124.947 0.230977L125.102 0.115494L125.141 0.0769962H125.18H125.257L125.374 0.115494H125.451L125.529 0.0769962H125.567L125.606 0.115494L125.761 0.153981H125.8H125.839L125.878 0.115494V0.0769962L125.916 0.0384981L125.955 0H125.994H126.033L126.11 0.0769962L126.188 0.153981L126.304 0.230977L126.382 0.269475H126.459L126.537 0.230977L126.576 0.269475H126.614L126.653 0.307973H126.731H126.77L126.847 0.269475H126.886H126.925H127.002L127.08 0.307973H127.157H127.235L127.351 0.384957H127.429H127.467H127.506L127.623 0.307973H127.661V0.269475L127.7 0.307973H127.778L127.894 0.384957L128.049 0.500451L128.088 0.538938H128.282H128.359L128.437 0.500451H128.476H128.514L128.592 0.538938H128.631L128.747 0.615934L128.825 0.654432H128.863L128.902 0.615934H128.98L129.019 0.654432L129.096 0.69293L129.174 0.769915L129.29 0.808413L129.329 0.846911L129.212 1.03939L129.057 1.23187L128.98 1.50133L128.863 1.8478L128.747 2.07877L128.708 2.23276L128.67 2.30974L128.592 2.57922L128.631 2.6947L128.67 2.7332L128.708 2.84868L128.747 2.88718V2.92568V3.04116V3.07966V3.11816V3.15665L128.708 3.19515V3.23364V3.27214L128.747 3.38763V3.42612L128.786 3.46462L128.863 3.54161L128.902 3.58011L128.98 3.6186L129.057 3.65709L129.755 3.77259L129.794 3.81107L129.91 3.88807L129.949 3.96507L129.988 4.00355L131.655 4.42701L132.004 4.31153H132.043L132.082 4.27303L132.121 4.19603L132.159 4.15755L132.198 4.08055L132.314 4.00355L132.353 3.96507V3.92657L132.392 3.81107V3.77259H132.431L132.47 3.73409L132.508 3.69559L133.323 3.31063L133.555 3.27214L133.71 3.19515H133.749L133.865 3.15665H134.137L134.253 3.19515L134.486 3.23364L134.641 3.31063L134.99 3.38763H135.067H135.145H135.223L135.572 3.54161H135.649L135.765 3.50311L135.882 3.54161L135.921 3.58011L135.998 3.6186L136.114 3.69559L136.153 3.77259L136.192 3.81107L136.269 4.00355L136.308 4.04205L136.347 4.08055L136.967 4.5425L137.123 4.65799L137.472 4.96595L137.549 5.04294L137.937 5.27392L137.976 5.3509L138.053 5.4279L138.092 5.4664L138.247 5.54338L138.325 5.58188L138.402 5.62038H138.48L138.79 5.54338H138.829L138.867 5.58188L138.984 5.69737L139.255 5.77436L139.449 5.92834L139.527 6.00534L139.604 6.12082L139.721 6.15932L139.953 6.35179L140.923 6.81375L141.078 6.89073L141.272 6.96773L141.659 7.04473H141.776H141.814L141.931 6.96773H141.969H142.008L142.086 7.04473L142.125 7.12171L142.163 7.16021L142.202 7.19871L142.396 7.27569L142.435 7.31419L142.512 7.42968L142.551 7.46817V7.50667L142.59 7.54516H142.629L142.706 7.58366L142.745 7.54516L142.939 7.50667L142.978 7.46817H143.055H143.133L143.327 7.42968H143.443L143.676 7.50667H143.753L143.792 7.46817H143.831L143.908 7.42968L143.947 7.39118L144.218 7.27569L144.335 7.19871L144.374 7.12171H144.412L144.451 7.08321H144.49H144.684L144.723 7.04473H144.761L144.878 6.96773L147.204 9.08499L148.29 10.0859L148.523 11.8567L148.6 12.0877L148.833 12.0492L149.182 12.1262L149.569 12.2031H149.608L149.647 12.2416L149.88 12.3956L150.035 12.3571L150.384 12.1647L150.694 12.0877L150.888 12.0107L151.159 11.7797L151.237 11.6642L151.276 11.6257H151.353L151.392 11.5872L151.469 11.5487L151.508 11.5102H151.547H151.625L151.702 11.5487L151.896 11.6642L151.974 11.7027H152.051H152.129L152.206 11.6642L152.361 11.5872H152.4H152.439H152.516L152.594 11.6257L152.71 11.7027L152.749 11.7412L152.788 11.7797L152.982 12.0492H153.02L153.059 12.0877L153.176 12.0492H153.253L153.408 11.9722L153.486 11.9337L153.718 11.8567H153.757L153.835 11.8952L153.99 11.9337L154.378 12.1262L154.455 12.2031L154.61 12.4726L154.649 12.5111H154.688H154.765H154.804L154.843 12.4726V12.4341H154.92H155.037V12.3956L155.192 12.3571L155.231 12.3186L155.308 12.3571L155.929 12.6266L156.161 12.7036L156.355 12.7421H156.51L156.627 12.7036H156.665L157.092 12.6651L157.169 12.7036L157.208 12.7421H157.286L157.325 12.8576V12.8961L157.286 12.9346V12.9731L157.325 13.0116V13.05H157.402L157.518 13.0885L157.557 13.127V13.1655V13.2425V13.281L157.596 13.3195H157.673H157.712L157.79 13.281H157.867H157.906L158.022 13.3195L158.139 13.3965L158.371 13.5505L158.449 13.666L158.527 13.7045L158.565 13.8585L158.604 13.897L158.643 13.9355L158.682 13.974L158.876 14.0894L158.953 14.1279H158.992H159.031H159.147L159.263 14.0894L159.457 14.1664L159.496 14.2434V14.2819L159.535 14.3589L159.612 14.4744L159.651 14.5514L159.767 14.6284L159.806 14.6669L159.845 14.7054V14.7439L159.884 14.8594V14.8979L160 15.0518V15.1288V15.1673V15.2443V15.3213L159.922 15.3598L159.845 15.3983L159.806 15.4368L159.767 15.5138L159.651 15.7832L159.612 15.8987L159.573 16.1297V16.2452V16.3222L159.496 16.5532L159.38 16.6687L159.341 16.7456L159.147 16.8996L159.031 17.0151L158.488 17.3231L157.906 18.2085L157.829 18.324L157.867 18.401V18.4395V18.5164V18.5549L157.829 18.5934H157.751H157.712H157.673L157.596 18.5549H157.48H157.402L156.976 18.7089L156.937 18.7474L156.898 18.7859L156.859 18.8244L156.82 18.9784V19.0554L156.782 19.0939L156.82 19.3634V19.6713L156.704 20.1718V20.2103L156.743 20.2488V20.2873V20.3258L156.898 20.4797L156.937 20.5567L157.014 20.7107V20.7877V20.8262V20.8647V20.9417L156.937 20.9802L156.82 21.0572L156.782 21.0957L156.704 21.1342V21.1727L156.665 21.2496H156.627L156.51 21.2881H156.355H155.735L155.463 21.2496L155.269 21.1727H155.231H155.192L155.153 21.2111L155.114 21.3266L155.076 21.3651L154.92 21.5191L154.882 21.5576V21.5961L154.843 21.6731L154.61 22.7125L154.494 23.0589L154.455 23.2129V23.3284L154.533 23.6749L154.571 23.7519L154.533 23.8289V23.9058V23.9828V24.0598V24.2523V24.2908V24.3678V24.4063L154.494 24.4448H154.455L154.339 24.5218H154.3V24.5603L154.222 24.6758V24.7912L154.184 25.1762V25.3687V25.4072V25.4842L154.222 25.5227L154.339 25.5612H154.378H154.416L154.455 25.5227V25.4842L154.533 25.3302L154.571 25.2917V25.2532H154.61L154.688 25.2147H154.765L154.804 25.1762H154.843H154.882L154.92 25.2532V25.2917L154.882 25.3687L154.765 25.5227V25.5612L154.727 25.5997V25.6382V25.6767L154.765 25.7152L154.804 25.7536L154.843 25.7152H154.882L154.959 25.6767L154.998 25.6382H155.037L155.076 25.6767L155.114 25.7152L155.153 25.8306L155.192 25.9076V25.9846V26.0231L155.076 26.2926V26.3696V26.4466V26.4851L155.114 26.6775V26.716L155.153 26.7545L155.269 26.793H155.308H155.386L155.425 26.7545H155.502H155.618H155.696L155.774 26.793L155.812 26.87L155.851 26.947L155.929 27.2165L155.967 27.2935L156.006 27.3705L156.045 27.409L156.394 27.6014L156.433 27.6399L156.471 27.6784L156.549 27.7939V27.8709L156.588 27.9479L156.627 27.9864L156.704 28.0634L157.014 28.2174L157.131 28.2559L157.325 28.4483L157.402 28.6793L157.48 28.8333V28.8718V28.9488V29.0258L157.441 29.2183L157.402 29.2953L157.363 29.3337L157.247 29.4877L157.208 29.5647L157.169 29.6417L157.131 29.6802L157.169 29.8342L157.325 30.1806L157.247 30.1422L157.092 30.0652H157.053L157.014 30.0267L156.937 29.9882V29.9497H156.898L156.859 29.9112H156.82H156.782H156.665H156.627H156.549H156.51L156.471 29.8727L156.433 29.8342L156.394 29.7957V29.7572L156.355 29.7187H156.316H156.161H156.122L156.045 29.6417L155.657 29.5262H155.618L155.58 29.4877V29.4492L155.541 29.3722V29.3337H155.502L155.463 29.3722L155.386 29.4107V29.4877V29.5262L155.425 29.6802V29.7187L155.386 29.7572L155.347 29.7957H155.308H155.231H155.192L155.153 29.7572L155.114 29.7187L154.959 29.5647H154.92H154.882H154.843H154.765L154.494 29.6417H154.378L154.3 29.7187L153.951 29.9112L153.835 29.9882L153.718 30.0267L153.641 29.9882H153.525L153.292 29.9112H153.253H153.214L153.137 29.9497L153.02 30.0267L152.904 30.0652L152.788 30.1422H152.749H152.71H152.671L152.633 30.1037L152.555 30.0652L152.516 30.0267H152.478H152.439H152.4L152.245 30.0652L152.167 30.1037H152.09L152.051 30.0652H152.012L151.974 30.0267L151.896 29.9497H151.857H151.818L151.78 29.9882V30.0652V30.1037L151.818 30.1422L152.865 31.143H152.904V31.22V31.2585L152.943 31.3355V31.4895V31.5665L152.904 31.605H152.788H152.749H152.633H152.439H152.4L152.322 31.5665L152.245 31.4895L152.206 31.451L152.09 31.4125L152.051 31.374L151.974 31.2585H151.935L151.896 31.22H151.857H151.818H151.741H151.702H151.663L151.586 31.2585L151.508 31.3355L151.004 31.7975H150.965H150.927H150.771H150.694L150.655 31.836L150.616 31.913L150.539 32.0284L150.384 32.3364L150.229 32.5289L150.035 32.6829V32.7214L149.996 32.7984L150.035 32.9139V32.9908L150.112 33.1063V33.2218L149.957 33.5298L150.035 33.5683H150.074L150.19 33.4913L150.422 33.2603L150.461 33.3373L150.539 33.3758L150.616 33.4143L150.733 33.4913L150.81 33.5298L150.888 33.6068L150.927 33.6453L151.043 33.7993V33.8377L151.082 33.9147L151.12 34.0687L151.082 34.1842V34.4152L151.043 34.7616L150.965 35.1851L150.888 35.57V35.6086V35.6855L150.927 35.724V35.7625H150.965L151.004 35.801H151.082L151.508 35.8395H151.547H151.586L151.625 35.878V35.9165L151.663 35.955V35.9935L151.702 36.032L151.78 36.571V36.6864V36.7249L151.741 36.8019L151.702 36.8789V36.9174L151.663 36.9559L151.586 37.0329H151.547L151.431 37.0714L151.276 37.1099L150.422 37.1484L150.345 37.1099L150.306 37.0714V37.0329V36.9944L150.267 36.9559H150.229H150.151H149.996H149.802H149.569L149.492 36.9944L149.414 37.0329H149.376L149.337 37.0714L149.298 37.1484V37.1869L149.259 37.2254V37.2639V37.3024L149.298 37.3409L149.414 37.4178L149.492 37.5718V37.6103L149.531 37.6488L149.647 37.6873L149.725 37.7258L149.802 37.7643H149.841H149.88H149.918L149.996 37.6873L150.035 37.6488L150.112 37.6103H150.151H150.19H150.267H150.306L150.345 37.6488L150.384 37.6873H150.422L150.5 37.8413V37.8798H150.539L150.578 37.9183L150.694 37.9568L150.733 37.9953L150.694 38.0723V38.1493V38.2263H150.733L150.81 38.2648H150.849L150.888 38.3033L150.927 38.3417V38.3802L150.888 38.5342L150.733 38.8037V38.8807V38.9192L150.771 38.9962H150.81L150.888 39.0347H150.965L151.004 39.0732L151.392 39.4581L151.431 39.5351L151.547 39.6891L151.586 39.7276L151.625 39.9586V40.228V40.459L151.586 40.6515V40.7285L151.625 40.8055H151.663V40.844L151.702 40.8825V40.9594L151.663 41.1904V41.4214V41.4984L151.625 41.5369L151.469 41.9604L151.431 42.0758V42.1528L151.469 42.2298V42.2683V42.3068V42.3838L151.431 42.4223L151.392 42.4608L151.353 42.5378L151.276 42.6148L151.198 42.6533L151.159 42.6918L151.082 42.6533H151.043H151.004L150.849 42.5378H150.81L150.771 42.5763L150.733 42.6533V42.6918V42.7303L150.771 42.7688L150.888 42.9997V43.0382V43.0767L150.849 43.1537L150.616 43.4232L150.578 43.4617H150.539H150.5H150.461L150.422 43.5002L150.345 43.5772L150.306 43.6927L150.229 43.7311L149.996 43.8851H149.957L149.88 43.9621L149.841 44.1931L149.725 45.0015V45.0785V45.194L149.686 45.6559L149.647 45.6944L149.608 45.7329L149.492 45.8099L149.453 45.8484L149.298 46.0409L149.22 46.0794H149.182H149.104H149.065H149.027H148.988L148.949 46.1179L148.91 46.1564L148.833 46.2719L148.755 46.3489V46.3874L148.716 46.4258V46.5413V46.7338L148.678 46.8493L148.523 47.3882L148.445 47.6577V47.7347V47.8117V47.8502L148.251 48.3121L148.212 48.3506L148.174 48.3891L148.057 48.4276L147.941 48.5046H147.708L145.537 48.4661L145.42 48.5046L145.343 48.5431L145.304 48.5816L145.227 48.6586V48.6971L145.11 49.0821L145.071 49.159L144.994 49.1975L144.761 49.3515L144.606 49.4285L144.567 49.5055L144.49 49.5825L144.451 49.621V49.6595V49.7365V49.8135L144.49 49.852L144.529 49.9675L144.567 50.0829L144.606 50.1214L144.645 50.1599L144.916 50.2754L144.8 50.6604V50.8913L144.839 50.9299L144.916 51.1223V51.1608L144.878 51.1993L144.839 51.2378L144.761 51.2763L144.723 51.3148V51.3533L144.606 51.6998L144.567 51.7768L144.451 51.9307V51.9692V52.0077H144.49H144.529H144.567L144.645 51.9692L144.684 51.9307H144.723L144.761 51.9692L144.8 52.0077V52.0462V52.1232L144.606 52.3542L144.567 52.4312L144.412 52.8161L144.335 52.8931L144.296 52.9701H144.257L144.218 53.0086L144.257 53.0856V53.1241L144.374 53.2011L144.296 53.2781L144.257 53.3166L144.218 53.3551L144.102 53.3936H144.025L143.947 53.4321L143.869 53.6246L143.908 53.7016L143.869 53.74L143.753 53.971L143.598 54.279L143.559 54.3175L143.52 54.3945L143.443 54.433L143.404 54.4715H143.365H143.327H143.249H143.21L143.172 54.433V54.3945H143.133H143.094L142.939 54.433H142.861H142.823H142.784H142.706L142.667 54.356H142.629L142.551 54.3945L142.512 54.4715L142.435 54.5484L142.357 54.5869L142.28 54.6254L142.241 54.6639L142.202 54.7409L142.241 54.8564V54.9334L142.28 54.9719H142.318L142.357 55.0104H142.396H142.512L142.551 55.0489V55.1259L142.512 55.2799L142.357 55.5878L142.28 55.7033L142.163 55.8573L142.125 55.9343L142.086 56.0883L142.047 56.1653L142.008 56.2038L141.931 56.2807V56.3193L141.892 56.3962V56.5117V56.5887L141.931 56.6657V56.7427L141.892 56.8197L141.698 57.2431L141.659 57.3971L141.582 57.8591L141.155 58.167L141.116 58.2055L141 58.4365V58.475V58.552V58.8215V58.9754L140.961 59.0524V59.091L140.612 59.6684L140.457 59.9764L140.418 60.2073V60.2843V60.3228H140.496H140.535H140.574L140.651 60.3613L140.729 60.3998H140.767H140.845L140.884 60.3613H140.923H140.961H141H141.039L141.116 60.3998V60.4383H141.155L141.194 60.5153L141.233 60.5923L141.272 60.6308L141.233 60.7463L141.116 60.9772L141.039 61.0157L140.884 61.1697L140.806 61.2082H140.69L140.574 61.1312H140.457L140.38 61.2082L140.302 61.2852L140.147 61.4007L139.721 61.5162L138.984 61.9396L138.014 62.2861L137.433 62.6325L136.386 63.056L136.269 63.133L135.998 63.364L135.882 63.441L135.378 63.4795L135.223 63.5949L135.145 63.7104L135.106 63.8259L135.029 63.9799L134.99 64.0184L134.796 63.9414H134.68L134.602 64.0184L134.525 64.1339L134.408 64.1724V64.0954L134.37 64.0569V64.0184V63.9799V63.9414L134.408 63.9029V63.8644L134.447 63.8259L134.486 63.7874V63.7489V63.7104V63.6334V63.5949H134.447L134.408 63.5564H134.214H134.021L133.904 63.5949L133.788 63.5564H133.71L133.672 63.518L133.594 63.4795L133.555 63.441H133.516H133.439H133.206H133.09H133.051L133.012 63.4025H132.974H132.935H132.818L132.625 63.441L132.004 63.7874L131.888 63.8259L131.849 63.8644H131.733H131.578H131.5L131.384 63.9029L131.267 63.9414H131.151L131.112 63.9029H131.074L131.035 63.8644L130.957 63.7874L130.918 63.7489L130.88 63.7874L130.802 63.8259L130.763 63.8644H130.725H130.647L130.57 63.8259H130.492H130.453L130.376 63.9029L130.298 63.9799H130.259L130.221 63.9414L130.143 63.9029H130.104H130.027L129.872 63.9799H129.794L129.678 64.0184L129.639 63.9799H129.6L129.561 63.9414L129.523 63.9029V63.8644H129.484L129.445 63.8259H129.367L129.135 63.9029L128.708 64.0954L128.592 64.1724L128.514 64.2494L128.398 64.2879L128.127 64.3648L127.196 64.7498H127.157L127.08 64.7883H127.041L126.963 64.8268L126.808 65.0193L126.731 65.0578L125.994 65.4812L125.8 65.5197H125.684L125.645 65.4812L125.606 65.4427L125.567 65.4042H125.529H125.451H125.412L125.063 65.4427H124.947L124.559 65.5197L124.482 65.4812H124.404H124.327L124.249 65.5197L123.629 65.8662L123.59 65.9047H123.551L123.435 65.9432L123.241 65.9817L123.008 66.0202H122.931L122.892 66.0587L122.776 66.1742L122.659 66.3666L122.621 66.4051V66.4436H122.504L122.349 66.4051L122.155 66.3666H122.078H122L121.651 66.4821L121.496 66.5591L121.186 66.7901L120.682 67.0595L120.488 67.1365H120.449H120.333H120.1H120.023L119.945 67.1751L119.829 67.252L119.751 67.2905H119.674L119.519 67.252L119.441 67.2905L118.976 67.483L118.898 67.56L118.472 67.791L118.433 67.8295L118.278 67.945L118.161 68.0605L118.123 68.0989H118.045H117.968H117.929V68.1374V68.2529V68.2914L117.89 68.3684L117.812 68.4069L117.774 68.4454L117.192 68.5994L116.843 68.7919L116.765 68.8304H116.727L116.688 68.7919L116.649 68.7534V68.7149V68.5994V68.5609L116.61 68.5224V68.4839L116.533 68.4069H116.494L116.455 68.3684H116.378H116.339L116.3 68.4069L116.184 68.5994L116.145 68.6379L116.068 68.6764L115.912 68.7919L115.835 68.8304H115.757L115.486 68.7919L115.447 68.7534V68.7149L115.408 68.6764V68.6379V68.5994L115.37 68.5609H115.331H115.292H115.253L115.098 68.6764L114.904 68.7919L114.827 68.8304H114.749H114.71H114.672L114.633 68.7919H114.594L114.555 68.7534V68.6764V68.6379L114.594 68.5994L114.633 68.5609L114.71 68.4839L114.749 68.4069L114.788 68.3299L114.827 68.2914L114.788 68.2529H114.672L114.361 68.2914H114.206L114.129 68.3684L114.168 68.4069V68.4454L114.206 68.4839L114.323 68.5994V68.6379V68.6764L114.361 68.7149L114.323 68.7919L114.284 68.8304L113.625 69.2538H113.586V69.2923V69.3693V69.4078H113.625L113.663 69.4463H113.702H113.741H113.935H114.051H114.09H114.129L114.168 69.4848L114.206 69.5233V69.5618V69.6003V69.6773V69.7542V69.9082L114.168 69.9467L114.129 70.0237L114.09 70.0622L114.051 70.0237L113.974 69.9852H113.896H113.857V70.0237L113.819 70.0622L113.857 70.1392V70.1777V70.2162L113.896 70.2547V70.2932L113.857 70.3702V70.4087L113.78 70.4857H113.741H113.702H113.663L113.625 70.4472V70.4087L113.586 70.3702V70.3317L113.547 70.2932H113.47L113.431 70.3317L113.353 70.3702L113.276 70.4857L113.237 70.5242L113.198 70.6012H113.121L113.043 70.5242L112.966 70.4857L112.888 70.4472V70.4087L112.849 70.3702L112.81 70.2932V70.2547L112.733 70.2162L112.694 70.2547V70.2932L112.617 70.3702L112.578 70.4087H112.539L112.461 70.3702H112.384H112.306V70.4087L112.229 70.4857V70.5242L112.151 70.6012L112.074 70.6397L111.996 70.6782L111.919 70.7166L111.725 70.7552L111.104 70.8706L110.949 70.8321L110.91 70.7936V70.7552V70.7166L110.949 70.6782L110.988 70.6397V70.6012V70.5627L110.949 70.5242L110.91 70.4857H110.872L110.6 70.5242L110.561 70.5627H110.523L110.484 70.6012L110.445 70.6397L110.368 70.6782L110.29 70.7166H110.251L110.174 70.6782L110.135 70.6397H110.096L110.057 70.6782L110.019 70.7166L109.98 70.7552H109.902H109.825L109.747 70.7166L109.67 70.6782H109.514L109.437 70.6397H109.398L109.359 70.6012L109.321 70.5627L109.282 70.4472L109.243 70.3702V70.2547V70.1777V69.9852V69.9467V69.9082L109.321 69.7928L109.282 69.7158L109.204 69.6388L108.739 69.3693L108.623 69.2538L108.39 69.0998V69.0613L108.351 68.9843L108.39 68.9458V68.9074H108.429L108.506 68.8304L108.894 68.7149L108.933 68.6764L108.972 68.6379L109.01 68.5609V68.5224L108.894 68.3684L108.855 68.3299L108.817 68.2529V68.1374V68.0989L108.855 68.0219H108.894L108.972 67.9835L109.01 67.945V67.9065L109.049 67.8295V67.791H109.01H108.894H108.778L108.623 67.7525L108.545 67.714L108.196 67.483L108.041 67.406H107.886L107.847 67.3675L107.808 67.329V67.252V67.1365V67.0595L107.77 67.0211H107.731L107.459 66.9826L107.072 66.8286L106.994 66.7516L106.917 66.7131V66.6361L106.955 66.4821L106.917 66.4436V66.3666L106.645 66.0587L106.606 66.0202L106.568 65.9432L106.606 65.7507L106.878 65.0963L107.033 64.8653L107.149 64.7883L107.343 64.5958L107.382 64.5188V64.4804L107.188 64.2109L107.149 64.1724H107.11L107.072 64.1339H106.839H106.761L106.723 64.0954L106.684 64.0569L106.645 63.9799L106.606 63.9414L106.645 63.9029L106.684 63.8644H106.839L106.878 63.8259L106.917 63.7874V63.7489L106.878 63.7104L106.839 63.6334V63.5949L106.878 63.5564L106.917 63.4795L106.955 63.441H106.994H107.033H107.072H107.11L107.188 63.4025L107.227 63.3255L107.266 63.287V63.2485L107.11 63.0175L106.917 62.5556V62.4786V62.4401L106.994 62.3631L107.033 62.2861V62.2476V62.2091L106.994 62.1706V62.1321H106.955L106.917 62.0936L106.878 62.0551L106.839 61.9396V61.8626V61.8241L106.878 61.7857L106.917 61.7471L106.955 61.6701L107.11 61.5932L107.149 61.5547V61.4392L107.304 60.7847L107.343 60.7078H107.382L107.576 60.7463H107.615L107.653 60.7078L107.692 60.6693L107.847 60.2458L107.886 60.2073V60.1688H107.925L108.002 60.0918L108.041 60.0533V60.0148L108.002 59.9764V59.7454L108.041 59.6299L108.08 59.5529V59.5144H108.119L108.196 59.4374L108.235 59.3989V59.3604H108.196V59.2834L108.157 59.2449L108.119 58.86V58.8215L108.08 58.783L108.041 58.7445L108.002 58.706L107.963 58.6675H107.925L107.808 58.629L107.731 58.5905H107.653H107.615L107.576 58.629H107.498H107.459H107.421H107.382L107.343 58.552V58.5135L107.304 58.4365H107.266L107.149 58.398L107.11 58.3595L107.072 58.2825V58.1286H107.033H106.994H106.955L106.878 58.2055L106.8 58.321H106.761L106.723 58.3595L106.684 58.321H106.645L106.49 58.2055L106.296 58.09L106.102 58.0516L106.063 58.0131H106.025L105.947 58.0516L105.715 58.0131L105.676 58.0516H105.637V58.09L105.598 58.167L105.559 58.2055L105.521 58.244H105.482L105.443 58.2825H105.366H105.327L105.288 58.321L105.21 58.3595L105.172 58.398H105.133H105.094L104.474 58.475L104.357 58.4365L104.28 58.398V58.3595V58.321V58.2825L104.319 58.09L104.357 58.0516L104.319 57.9746V57.9361V57.8976L104.163 57.6666L104.125 57.5896L104.086 57.3971L104.047 57.3201L103.931 56.9737L103.853 56.7427V56.6657H103.776L103.737 56.6272L103.659 56.5887L103.31 56.1268L103.272 56.0498L103.233 56.0113V55.7803V55.7033L103.078 55.1644V55.0874V55.0489V55.0104L103.117 54.9334L103.155 54.8949L103.117 54.8564L103.039 54.7794L102.961 54.7024L102.884 54.5484L102.806 54.4715L102.768 54.433H102.729H102.651L102.612 54.3945L102.535 54.3175V54.279L102.496 54.202L102.574 54.048L102.612 53.4321L102.69 53.2781L102.806 53.2011L102.845 53.1626L102.884 53.1241L102.961 52.9701L103 52.8546V52.7776L103.039 52.5852L103.078 52.5467L103.117 52.5082H103.194L103.272 52.4697L103.31 52.4312L103.388 52.3542V52.2772L103.427 52.2002V52.0462V52.0077L103.233 51.3148L103.194 51.2378L103.155 51.1993L103.117 51.1608V51.1223L103.078 51.0838L102.302 50.7374L102.225 50.6604L102.031 50.4294L101.992 50.3909V50.3139V50.2754L102.031 50.1984V50.0829L102.07 49.8905L102.108 49.39V49.236L102.147 49.159V49.1205H102.186L102.302 49.0051L102.341 48.9666V48.9281L102.38 48.8511L102.419 48.7356V48.6586V48.6201V48.4661L102.341 48.3121L102.264 48.1197L101.953 47.8887L101.876 47.7732L101.333 47.3882H101.217L101.139 47.3498L101.023 47.2728L100.829 47.0803V47.0418L100.868 47.0033V46.9263V46.8493L100.906 46.8108V46.7338L100.868 46.6568L100.829 46.6183L100.674 46.5028L100.596 46.4258L100.48 46.5028L100.286 46.5798L100.131 46.6183L99.937 46.6568L99.7431 46.6953L99.6656 46.8108L99.588 46.9263L99.4717 47.0418L99.3166 47.0803L99.1615 47.0033L98.9676 46.7338L98.8125 46.5798L98.6962 46.5413L97.688 46.5798L97.6105 46.6183L97.5329 46.6953L97.4941 46.7723L97.4166 46.8108V46.8878L97.4941 47.0418V47.1958L97.4554 47.3882L97.3778 47.5807L97.2615 47.6577L97.1839 47.6962H97.1064H97.0288L96.9513 47.6577L96.9125 47.5422L96.8737 47.4652V47.3498V47.2728L96.7962 47.1573L96.7186 47.0803L96.6411 47.0418L96.5247 47.0033V47.3882L96.486 47.5422L96.4084 47.6962L96.3697 47.7347L96.2533 47.7732H96.2145L96.1758 47.8117L96.137 47.8887L96.0982 47.9272L95.9819 48.0042H95.9043H95.8268L95.5941 47.8502L95.2839 47.7347L95.1288 47.6192L95.0513 47.4267L94.9737 47.1958L94.8962 47.0418L94.7023 46.8878L94.5472 47.1188L94.7411 47.6962L94.5472 47.8887H94.4309L94.1595 47.7347L94.0043 47.6577H93.3452L92.9962 47.7347L92.8023 47.7732L92.7248 47.8117L92.6472 47.8502L92.0268 47.7732L91.8717 47.8502L91.6003 48.0427L91.4839 48.0812L91.3289 48.0427L90.8635 47.9657H90.7472L90.437 48.0042H90.0493L89.8554 48.1197L89.7778 48.3121L89.7003 48.5431L89.6227 48.7741L89.5064 48.9281V49.0051L89.5452 49.0821L89.584 49.236V49.6595L89.6227 49.775L89.6615 50.0059L89.7003 50.1214L89.6615 50.1984L89.4289 50.3909L89.3125 50.3139L88.9635 50.1599L88.886 50.0829L88.8472 49.4285L88.886 48.6586L88.8085 48.2736L88.6146 48.0042L88.3432 47.9657L88.1105 48.1582L87.8778 48.7356L87.7228 48.9666L87.4901 49.1975L87.2187 49.313L86.9472 49.1975L86.8697 49.0821L86.7534 48.7741L86.5595 48.5046L86.3656 48.1197L86.3268 47.9657L86.2493 47.5807V47.3882L86.3268 47.1573V47.0803L86.3656 46.9648L86.4044 46.9263H86.4431L86.7146 46.8108L86.7534 46.6568L86.6758 46.5798L86.5207 46.5028L86.3656 46.4643L86.1717 46.5028L85.6289 46.6183L85.4738 46.5028L84.7758 46.2719L84.3881 46.1949H81.7513L80.7044 46.0409L78.184 45.6944L77.9901 45.5789L77.7187 45.2325L77.5248 45.04L77.2922 44.963H77.0207L76.7493 45.04L76.4779 45.194L76.3228 45.5019L75.7412 46.0794L75.586 46.1564L75.3922 46.2334L74.035 46.7338L73.8799 46.8108L73.4146 47.1958L73.0657 47.6192Z" fill="#72B5FF"/>
<path d="M131.138 17.2388L117.454 55.9303H105.694L92.0096 17.2388H102.012L111.574 46.4503L121.191 17.2388H131.138Z" fill="#1A62B2"/>
<path d="M90.6889 17.2388V55.9303H81.7961V17.2388H90.6889Z" fill="#1A62B2"/>
<path d="M46.2249 26.0323V55.9303H38.5738V38L31.549 55.9303H25.3744L18.3049 37.9574V55.9303H10.6537L0 26.0323H19.692L28.5064 46.7309L37.2315 26.0323H46.2249Z" fill="#2A5687"/>
<path d="M96.8326 60.3519C96.9617 60.4612 98.0741 60.5705 99.2833 60.5705C100.492 60.5705 101.669 60.658 101.895 60.7671C102.121 60.8984 102.411 61.3575 102.572 61.8164C102.733 62.2754 103.024 63.0188 103.233 63.4558C103.636 64.3522 103.701 64.6144 103.443 64.3958C103.153 64.1554 103.088 65.3578 103.346 66.5819C103.491 67.2377 103.604 67.9152 103.588 68.0684C103.572 68.2213 103.604 68.5054 103.685 68.724C103.749 68.9427 103.749 69.5767 103.701 70.1449C103.636 70.7133 103.588 71.3473 103.588 71.566C103.588 71.8719 103.491 71.9376 103.072 71.8501C102.121 71.6533 100.638 71.5003 97.9936 71.3692L95.3818 71.2162L95.3655 73.4895C95.3494 74.9761 95.3011 75.5663 95.2205 75.2165C95.1559 74.9104 95.0915 74.8011 95.0754 74.9322C95.0593 75.0854 94.8819 75.2165 94.6562 75.2165C94.3338 75.2165 94.2531 75.1072 94.2531 74.67C94.2531 74.0797 94.6723 73.905 95.027 74.3859C95.1722 74.5825 95.2205 74.4513 95.2043 73.7736C95.2043 73.3146 95.1559 73.0523 95.1077 73.1834C95.0754 73.3366 94.8497 73.4677 94.6402 73.4677C94.3338 73.4677 94.2531 73.3584 94.2531 72.9212C94.2531 72.331 94.6723 72.1562 95.027 72.6371C95.1722 72.8337 95.2205 72.7244 95.2205 72.0905C95.2205 71.3035 95.2043 71.2817 94.6562 71.2817H94.0758L94.1726 67.6093C94.221 65.5983 94.3177 63.5872 94.3983 63.1281C94.4789 62.6909 94.5111 62.1225 94.4627 61.882C94.4143 61.6416 94.4627 61.4448 94.5595 61.4448C94.6562 61.4448 94.7369 61.3136 94.7369 61.1389C94.7369 60.3737 96.2201 59.8271 96.8326 60.3519ZM95.8815 62.5379C95.8815 62.822 95.8977 62.822 96.0105 62.5379C96.0911 62.3629 96.2039 61.9695 96.2523 61.6634L96.3652 61.1168L96.1234 61.6634C95.9782 61.9695 95.8815 62.3629 95.8815 62.5379ZM95.7847 63.4558C95.6397 64.3085 95.3818 70.4292 95.4785 70.6478C95.5269 70.7571 96.2039 70.8444 97.0101 70.8444H98.4449V69.0083V67.1939L97.6389 67.0627C96.3169 66.8441 96.1717 66.6475 96.2201 65.2046L96.2685 63.9588L97.3486 63.8931C98.316 63.8276 98.4449 63.7838 98.4449 63.4122C98.4449 63.0188 98.3321 62.9749 97.1552 62.9749C95.9621 62.9749 95.8654 62.997 95.7847 63.4558ZM98.6061 63.5215C98.6061 63.7838 98.9125 63.8494 100.46 63.8494C101.508 63.8494 102.314 63.762 102.314 63.6526C102.314 63.3686 101.718 63.2592 100.009 63.2154C98.8641 63.1936 98.6061 63.2592 98.6061 63.5215ZM99.8153 64.4178C100.557 64.5708 101.798 64.5926 101.718 64.4397C101.686 64.3522 101.17 64.3085 100.573 64.3085C99.9765 64.3303 99.638 64.374 99.8153 64.4178ZM98.6222 68.9865L98.6061 70.626H99.4445C100.412 70.6478 102.346 70.9319 102.991 71.1724L103.443 71.3255V69.8608C103.443 68.5054 103.427 68.3963 103.12 68.5054C102.943 68.5711 102.798 68.5275 102.798 68.4181C102.798 67.8934 102.492 68.3088 102.411 68.9865C102.282 69.9265 101.992 69.9919 101.992 69.0738C101.992 68.7022 102.056 68.4618 102.153 68.5493C102.234 68.6147 102.314 68.5711 102.314 68.4618C102.314 68.3306 102.298 68.2213 102.266 68.1995C100.896 67.8279 99.106 67.3907 98.9125 67.3689C98.6868 67.347 98.6384 67.6311 98.6222 68.9865Z" fill="#1E73D0"/>
<path d="M100.707 68.4897C100.935 68.9908 100.957 69.5575 100.761 69.6882C100.696 69.7317 100.642 69.5575 100.631 69.296C100.62 69.0343 100.523 68.6422 100.425 68.4242C100.327 68.1845 100.295 68.0103 100.36 68.0103C100.425 68.0103 100.588 68.2282 100.707 68.4897Z" fill="#1E73D0"/>
<path d="M100.04 69.2684C100.505 69.4811 100.383 69.6939 99.8199 69.6939C99.5019 69.6939 99.3795 69.6491 99.5019 69.5483C99.6487 69.4363 99.5997 69.4363 99.3307 69.5483C98.8415 69.761 98.6213 69.7274 98.6213 69.4139C98.6213 69.2012 98.7435 69.134 99.1839 69.134C99.5019 69.134 99.8689 69.19 100.04 69.2684Z" fill="#1E73D0"/>
<path d="M86.6257 71.9891C86.6574 72.0276 86.6892 72.3729 86.6892 72.7182C86.6892 73.4666 86.3239 73.5241 86.2444 72.795C86.1809 72.2961 85.9267 72.3346 84.1476 73.0445L83.1151 73.4473L83.9411 73.5049C84.7671 73.5625 85.1325 73.9078 84.4176 73.9461C83.4009 74.0038 83.2739 74.0421 83.2263 74.3491C83.1786 74.6369 83.2898 74.6946 83.9728 74.6946C84.5923 74.6946 84.783 74.7712 84.783 74.9822C84.783 75.2317 84.1635 75.27 80.1763 75.27C76.1895 75.27 75.57 75.2317 75.57 74.9822C75.57 74.7712 75.7439 74.6946 76.2051 74.6946C76.7299 74.6946 76.8401 74.6369 76.8401 74.3108C76.8401 73.9846 76.7299 73.927 76.2051 73.927C75.3635 73.927 75.3946 73.5817 76.2361 73.4857C76.8401 73.4281 76.809 73.409 76.0141 73.3898L75.1089 73.3515L75.2051 74.0612C75.2672 74.5601 75.2517 74.7137 75.1244 74.6178C74.9986 74.5218 74.935 74.6369 74.935 74.8863C74.935 75.3277 74.6803 75.98 74.3946 76.3446C73.5841 77.323 72.0594 77.1888 71.2179 76.0568C70.8685 75.5962 70.4074 75.5387 70.2645 75.9417C70.1217 76.4212 69.1683 76.9969 68.5333 76.9969C67.8175 76.9969 67.0706 76.5748 66.8331 76.0376C66.6266 75.5579 66.1189 75.5387 65.8487 75.9991C65.4512 76.6708 64.8627 76.9969 64.1004 76.9969C63.4809 76.9969 63.2433 76.8818 62.7822 76.4021C62.3055 75.884 62.2263 75.6921 62.2263 74.9248C62.2263 74.0997 62.2108 74.0612 61.9717 74.4259C61.7496 74.7712 61.7341 74.752 61.8288 74.0612C61.8925 73.62 61.8614 73.3515 61.7496 73.3515C61.6704 73.3515 61.5912 73.6008 61.5912 73.927V74.5027H59.6054H57.6195V73.927C57.6195 73.5432 57.5403 73.3515 57.3819 73.3515C57.222 73.3515 57.1428 73.1403 57.1428 72.6799V72.0082L67.0241 71.9891C72.4724 71.9891 79.0803 71.9699 81.7331 71.9508C84.3858 71.9316 86.5939 71.9508 86.6257 71.9891ZM78.6196 73.4857C79.398 73.5241 80.637 73.5241 81.3995 73.4857C82.1779 73.4666 81.5425 73.4281 80.0175 73.4281C78.4926 73.4281 77.8571 73.4666 78.6196 73.4857ZM67.5163 74.1572C67.198 74.4835 67.2772 75.4043 67.6591 75.8457C68.4525 76.7282 70.0254 75.9032 69.7723 74.7329C69.5487 73.6585 68.3268 73.3515 67.5163 74.1572ZM71.9631 74.1572C71.488 74.6946 71.5036 75.3468 72.0113 75.8266C72.9801 76.7475 74.522 75.8266 74.1245 74.5601C73.8543 73.6776 72.5997 73.4281 71.9631 74.1572ZM63.116 74.1572C62.5601 75.1166 63.116 76.2293 64.133 76.2293C65.181 76.2293 65.7214 75.1358 65.1484 74.1572C64.959 73.8119 64.7525 73.7351 64.133 73.7351C63.5135 73.7351 63.307 73.8119 63.116 74.1572ZM77.3488 74.3491C77.3013 74.6752 77.5077 74.6946 80.0017 74.6946C82.6386 74.6946 82.7179 74.6752 82.7179 74.2916C82.7179 73.9078 82.6544 73.9078 80.0652 73.9655C77.6824 74.0229 77.3964 74.0612 77.3488 74.3491Z" fill="#1A62B2"/>
<path d="M39.3618 71.6826C39.3935 71.7211 39.4253 72.0664 39.4253 72.4117C39.4253 73.1601 39.0599 73.2176 38.9804 72.4885C38.9169 71.9896 38.6628 72.0281 36.8837 72.738L35.8512 73.1408L36.6772 73.1984C37.5032 73.2561 37.8686 73.6014 37.1537 73.6397C36.137 73.6973 36.01 73.7356 35.9624 74.0426C35.9147 74.3304 36.0259 74.3881 36.7089 74.3881C37.3284 74.3881 37.5191 74.4647 37.5191 74.6757C37.5191 74.9253 36.8995 74.9636 32.9124 74.9636C28.9256 74.9636 28.3061 74.9253 28.3061 74.6757C28.3061 74.4647 28.48 74.3881 28.9411 74.3881C29.4659 74.3881 29.5762 74.3304 29.5762 74.0043C29.5762 73.6782 29.4659 73.6205 28.9411 73.6205C28.0996 73.6205 28.1306 73.2752 28.9722 73.1793C29.5762 73.1216 29.5451 73.1025 28.7502 73.0833L27.8449 73.045L27.9412 73.7548C28.0033 74.2536 27.9878 74.4072 27.8605 74.3113C27.7347 74.2153 27.671 74.3304 27.671 74.5798C27.671 75.0212 27.4164 75.6735 27.1307 76.0381C26.3202 77.0166 24.7955 76.8823 23.9539 75.7503C23.6046 75.2897 23.1434 75.2323 23.0006 75.6352C22.8578 76.1147 21.9044 76.6904 21.2694 76.6904C20.5536 76.6904 19.8067 76.2683 19.5692 75.7311C19.3627 75.2514 18.8549 75.2323 18.5848 75.6926C18.1873 76.3643 17.5988 76.6904 16.8365 76.6904C16.2169 76.6904 15.9794 76.5753 15.5182 76.0956C15.0416 75.5775 14.9624 75.3857 14.9624 74.6183C14.9624 73.7932 14.9469 73.7548 14.7077 74.1194C14.4857 74.4647 14.4702 74.4455 14.5649 73.7548C14.6285 73.3135 14.5975 73.045 14.4857 73.045C14.4065 73.045 14.3273 73.2944 14.3273 73.6205V74.1962H12.3415H10.3556V73.6205C10.3556 73.2367 10.2764 73.045 10.118 73.045C9.9581 73.045 9.87891 72.8338 9.87891 72.3734V71.7018L19.7602 71.6826C25.2085 71.6826 31.8164 71.6635 34.4691 71.6443C37.1219 71.6252 39.33 71.6443 39.3618 71.6826ZM31.3557 73.1793C32.1341 73.2176 33.3731 73.2176 34.1356 73.1793C34.914 73.1601 34.2786 73.1216 32.7536 73.1216C31.2287 73.1216 30.5932 73.1601 31.3557 73.1793ZM20.2524 73.8507C19.9341 74.177 20.0132 75.0978 20.3952 75.5392C21.1886 76.4217 22.7615 75.5967 22.5084 74.4264C22.2848 73.352 21.0628 73.045 20.2524 73.8507ZM24.6992 73.8507C24.2241 74.3881 24.2396 75.0404 24.7474 75.5201C25.7162 76.4411 27.258 75.5201 26.8606 74.2536C26.5904 73.3712 25.3358 73.1216 24.6992 73.8507ZM15.8521 73.8507C15.2962 74.8102 15.8521 75.9228 16.8691 75.9228C17.9171 75.9228 18.4575 74.8293 17.8845 73.8507C17.6951 73.5054 17.4886 73.4286 16.8691 73.4286C16.2495 73.4286 16.043 73.5054 15.8521 73.8507ZM30.0848 74.0426C30.0373 74.3687 30.2438 74.3881 32.7377 74.3881C35.3747 74.3881 35.454 74.3687 35.454 73.9851C35.454 73.6014 35.3905 73.6014 32.8013 73.659C30.4185 73.7164 30.1325 73.7548 30.0848 74.0426Z" fill="#1A62B2"/>
<path d="M66.0971 74.0494C65.9747 74.3403 65.8101 74.7283 65.7279 74.9224C65.5854 75.3346 64.7424 75.4558 64.5578 75.1163C64.4956 74.9708 64.5377 74.9466 64.6601 75.0437C64.7846 75.1163 64.907 74.9708 64.9471 74.6799C64.9893 74.389 65.2763 74.0494 65.6656 73.8553C66.3239 73.516 66.3239 73.5402 66.0971 74.0494Z" fill="#1A62B2"/>
<path d="M70.5574 73.8693C70.2618 74.0139 70.1536 74.3026 70.2618 74.7117C70.341 75.1931 70.2618 75.3134 69.829 75.3134C69.5044 75.3134 69.1797 75.1931 69.1006 75.0727C68.9924 74.9284 68.8287 74.8801 68.7205 74.9284C68.615 75.0004 68.5067 74.9041 68.5067 74.7117C68.5067 74.5193 68.615 74.423 68.7496 74.495C68.8578 74.5673 68.966 74.471 68.966 74.2786C68.966 74.0379 69.1533 73.9656 69.478 74.0379C69.7472 74.11 70.0718 74.0379 70.1536 73.8936C70.2618 73.7492 70.5046 73.6288 70.6656 73.6288C70.8556 73.6288 70.8002 73.7492 70.5574 73.8693Z" fill="#1A62B2"/>
<path d="M60.2376 73.829C60.3601 74.0669 60.6901 74.1967 61.1427 74.2183C61.665 74.2183 61.8045 74.2833 61.5952 74.4131C61.4574 74.5212 61.1784 74.8024 61.0049 75.0187C60.7429 75.3432 60.5864 75.3864 60.3261 75.2135C60.0471 75.0187 60.0113 74.8889 60.1509 74.5644C60.2733 74.2833 60.2563 74.1317 60.1168 74.0885C60.0114 74.0451 59.9603 73.8938 59.9943 73.7424C60.0471 73.5692 60.1168 73.591 60.2376 73.829Z" fill="#1A62B2"/>
<path d="M91.6075 71.4218C92.4506 72.0467 92.9395 73.0342 92.9395 74.0623C92.9395 74.6871 92.9225 74.7072 92.3494 74.6265C91.9785 74.5863 91.7425 74.6467 91.6919 74.808C91.5233 75.2916 90.5118 75.8763 89.8207 75.8763C89.1462 75.8763 88.5057 75.5133 88.0842 74.8887C87.9494 74.6871 87.6627 74.6064 87.2919 74.6467C86.6175 74.7072 86.5501 74.4451 86.8872 73.2358C87.5111 71.039 89.8881 70.1117 91.6075 71.4218ZM88.9271 72.7723C88.101 73.4575 88.7755 75.0699 89.9049 75.0699C90.4275 75.0699 91.2536 74.2437 91.2536 73.7398C91.2536 73.5382 91.085 73.1755 90.8827 72.9133C90.4444 72.3692 89.5003 72.2885 88.9271 72.7723Z" fill="#1A62B2"/>
<path d="M90.471 73.0055C90.3121 73.5731 90.5768 73.673 91.0533 73.1723C91.265 72.9388 91.2914 72.9388 91.1328 73.206C91.0003 73.4062 90.9475 73.8066 91.0267 74.0734C91.2122 74.641 90.3385 75.5084 89.8622 75.2749C89.3856 75.0414 89.4386 74.0068 89.9152 73.5061C90.1268 73.2726 90.2327 72.9722 90.1532 72.8053C90.0738 72.6384 90.1532 72.5051 90.3121 72.5051C90.4973 72.5051 90.5768 72.7386 90.471 73.0055Z" fill="#1A62B2"/>
<path d="M98.4485 72.1165C98.4978 72.2222 98.695 72.3277 98.8592 72.3277C99.0398 72.3277 99.4176 72.6026 99.6969 72.9197C100.124 73.4058 100.239 73.7229 100.305 74.6107C100.354 75.4139 100.321 75.7097 100.173 75.7097C100.058 75.7097 99.7133 75.9846 99.4012 76.3439C98.6621 77.1893 97.693 77.2104 96.8718 76.4496C96.5597 76.1536 96.182 75.8578 96.0177 75.7943C95.7713 75.6675 95.7386 75.4983 95.8206 74.674C95.9685 73.3423 96.3626 72.7083 97.3153 72.2855C98.3008 71.8627 98.3172 71.8627 98.4485 72.1165ZM97.0524 73.8073C96.6254 74.3569 96.6419 74.8854 97.069 75.5829C97.7423 76.7032 99.3519 76.0903 99.3519 74.7162C99.3519 73.8497 98.9249 73.3847 98.0873 73.3847C97.5944 73.3847 97.2825 73.5115 97.0524 73.8073Z" fill="#1A62B2"/>
<path d="M102.599 72.7857C102.599 73.6279 102.586 73.6279 101.893 73.6279C101.241 73.6279 101.187 73.5718 101.041 72.7857L100.894 71.9433H101.747H102.599V72.7857Z" fill="#1E73D0"/>
<path d="M103.684 73.1003C103.684 73.5982 103.289 73.7791 102.894 73.485C102.501 73.2135 102.501 72.806 102.894 72.5797C103.486 72.3762 103.881 72.6023 103.684 73.1003Z" fill="#1E73D0"/>
<path d="M102.599 74.4713C102.599 75.3134 102.583 75.3134 101.754 75.3134H100.894L100.974 74.4713C101.038 73.6569 101.069 73.6288 101.818 73.6288C102.583 73.6288 102.599 73.6569 102.599 74.4713Z" fill="#1E73D0"/>
<path d="M14.879 59.3781H87.0096C89.7711 59.3781 92.0096 61.6167 92.0096 64.3781V65.1045C92.0096 67.8659 89.7711 70.1045 87.0096 70.1045H14.8789C12.1175 70.1045 9.87894 67.8659 9.87894 65.1045V64.3781C9.87894 61.6167 12.1175 59.3781 14.879 59.3781Z" fill="#72B5FF"/>
<path d="M15.5676 62.1986H16.8159V66.5581H15.5676V62.1986Z" fill="#2A5687"/>
<path d="M20.2751 62.1986H21.5163V66.5581H20.554L18.8316 64.3659V66.5581H17.5834V62.1986H18.5527L20.2751 64.3908V62.1986Z" fill="#2A5687"/>
<path d="M23.9573 66.6515C23.4413 66.6515 23.0136 66.5539 22.6742 66.3588C22.3348 66.1637 22.0977 65.9 21.9629 65.5679L23.0298 65.0136C23.2111 65.3997 23.5319 65.5928 23.9922 65.5928C24.3734 65.5928 24.564 65.4952 24.564 65.3001C24.564 65.1713 24.4547 65.0675 24.2362 64.9887C24.1432 64.9554 23.9387 64.8994 23.6226 64.8205C23.1763 64.7043 22.823 64.5423 22.5626 64.3347C22.3023 64.123 22.1721 63.8303 22.1721 63.4566C22.1721 63.0539 22.3325 62.7279 22.6533 62.4788C22.9787 62.2297 23.3831 62.1052 23.8666 62.1052C24.2757 62.1052 24.6384 62.1903 24.9545 62.3605C25.2706 62.5307 25.5123 62.7778 25.6797 63.1016L24.6337 63.6497C24.4803 63.3258 24.2269 63.1639 23.8736 63.1639C23.7248 63.1639 23.6109 63.1909 23.5319 63.2449C23.4575 63.2988 23.4203 63.3673 23.4203 63.4504C23.4203 63.5459 23.4761 63.6268 23.5877 63.6933C23.7039 63.7597 23.9271 63.8365 24.2571 63.9237C24.4942 63.986 24.6848 64.0441 24.829 64.0981C24.9731 64.1521 25.1311 64.2309 25.3031 64.3347C25.4752 64.4344 25.603 64.5652 25.6867 64.7271C25.7704 64.8849 25.8122 65.0717 25.8122 65.2876C25.8122 65.7152 25.6425 66.0495 25.3031 66.2903C24.9638 66.5311 24.5152 66.6515 23.9573 66.6515Z" fill="#2A5687"/>
<path d="M28.1628 62.1986C28.6556 62.1986 29.0693 62.3418 29.404 62.6283C29.7387 62.9148 29.9061 63.2801 29.9061 63.7244C29.9061 64.1687 29.7387 64.534 29.404 64.8205C29.0693 65.107 28.6556 65.2502 28.1628 65.2502H27.5142V66.5581H26.266V62.1986H28.1628ZM28.1628 64.1915C28.3022 64.1915 28.4185 64.1479 28.5114 64.0607C28.6091 63.9735 28.6579 63.8614 28.6579 63.7244C28.6579 63.5874 28.6091 63.4774 28.5114 63.3943C28.4185 63.3071 28.3022 63.2635 28.1628 63.2635H27.5142V64.1915H28.1628Z" fill="#2A5687"/>
<path d="M31.6411 65.5118H33.5308V66.5581H30.3928V62.1986H33.496V63.2386H31.6411V63.8427H33.3216V64.8703H31.6411V65.5118Z" fill="#2A5687"/>
<path d="M36.4476 65.5616C36.6754 65.5616 36.88 65.518 37.0613 65.4308C37.2472 65.3395 37.3867 65.2149 37.4797 65.0572L38.5605 65.6177C38.3885 65.8751 38.1607 66.091 37.8772 66.2654C37.5982 66.4356 37.2891 66.5498 36.9497 66.6079V66.8446C37.052 66.8736 37.1449 66.9276 37.2286 67.0065C37.3123 67.0854 37.3541 67.1913 37.3541 67.3241C37.3541 67.7891 36.8102 67.9926 35.7224 67.9344V67.2556C36.164 67.2847 36.3849 67.2556 36.3849 67.1684C36.3849 67.1061 36.2617 67.0646 36.0153 67.0439V66.6204C35.3923 66.5373 34.8833 66.2882 34.4881 65.873C34.0976 65.4537 33.9023 64.9554 33.9023 64.3783C33.9023 63.7306 34.1418 63.1909 34.6206 62.7591C35.1041 62.3231 35.7131 62.1052 36.4476 62.1052C36.8893 62.1052 37.2984 62.1986 37.6749 62.3854C38.0515 62.5722 38.3467 62.8234 38.5605 63.139L37.4797 63.6933C37.3867 63.5396 37.2472 63.4192 37.0613 63.332C36.88 63.2407 36.6754 63.195 36.4476 63.195C36.0571 63.195 35.741 63.3051 35.4992 63.5251C35.2621 63.741 35.1436 64.0254 35.1436 64.3783C35.1436 64.7312 35.2621 65.0177 35.4992 65.2378C35.741 65.4537 36.0571 65.5616 36.4476 65.5616Z" fill="#2A5687"/>
<path d="M40.8832 61.7751C40.7716 61.7086 40.688 61.6817 40.6322 61.6941C40.5764 61.7024 40.5485 61.7709 40.5485 61.8996H39.7117C39.7117 61.6962 39.7373 61.5218 39.7884 61.3765C39.8442 61.2312 39.9162 61.1232 40.0046 61.0526C40.0929 60.9779 40.1952 60.9281 40.3114 60.9032C40.4276 60.8741 40.5462 60.87 40.667 60.8907C40.7879 60.9115 40.9111 60.9509 41.0366 61.0091C41.1482 61.0755 41.2319 61.1045 41.2877 61.0962C41.3481 61.0879 41.3783 61.0194 41.3783 60.8907H42.2151C42.2151 61.0942 42.1872 61.2706 42.1314 61.4201C42.0803 61.5654 42.0106 61.6754 41.9222 61.7502C41.8339 61.8208 41.7316 61.8685 41.6154 61.8934C41.4992 61.9183 41.3783 61.9204 41.2528 61.8996C41.1319 61.8747 41.0087 61.8332 40.8832 61.7751ZM41.985 66.5581L41.7758 65.9291H40.151L39.9418 66.5581H38.589L40.1998 62.1986H41.72L43.3309 66.5581H41.985ZM40.4718 64.97H41.455L40.9599 63.4877L40.4718 64.97Z" fill="#2A5687"/>
<path d="M47.6928 65.9976C47.2 66.4335 46.5956 66.6515 45.8797 66.6515C45.1638 66.6515 44.5571 66.4335 44.0596 65.9976C43.5668 65.5575 43.3205 65.0177 43.3205 64.3783C43.3205 63.7389 43.5668 63.2013 44.0596 62.7653C44.5571 62.3252 45.1638 62.1052 45.8797 62.1052C46.5956 62.1052 47.2 62.3252 47.6928 62.7653C48.1902 63.2013 48.4389 63.7389 48.4389 64.3783C48.4389 65.0177 48.1902 65.5575 47.6928 65.9976ZM44.9383 65.2316C45.1893 65.4516 45.5031 65.5616 45.8797 65.5616C46.2562 65.5616 46.57 65.4516 46.8211 65.2316C47.0721 65.0073 47.1976 64.7229 47.1976 64.3783C47.1976 64.0337 47.0721 63.7514 46.8211 63.5313C46.57 63.3071 46.2562 63.195 45.8797 63.195C45.5031 63.195 45.1893 63.3071 44.9383 63.5313C44.6872 63.7514 44.5617 64.0337 44.5617 64.3783C44.5617 64.7229 44.6872 65.0073 44.9383 65.2316Z" fill="#2A5687"/>
<path d="M55.1977 66.8761L53.6217 62.5166H54.9885L55.9369 65.5184L56.8922 62.5166H58.259L56.683 66.8761H55.1977Z" fill="white"/>
<path d="M59.891 65.8298H61.7808V66.8761H58.6428V62.5166H61.7459V63.5567H59.891V64.1608H61.5716V65.1884H59.891V65.8298Z" fill="white"/>
<path d="M62.3746 62.5166H63.6229V66.8761H62.3746V62.5166Z" fill="white"/>
<path d="M66.7474 66.9695C66.0128 66.9695 65.4038 66.7536 64.9203 66.3218C64.4415 65.8859 64.2021 65.3441 64.2021 64.6964C64.2021 64.0487 64.4415 63.5089 64.9203 63.0771C65.4038 62.6412 66.0128 62.4232 66.7474 62.4232C67.189 62.4232 67.5981 62.5166 67.9747 62.7034C68.3512 62.8903 68.6464 63.1415 68.8603 63.457L67.7794 64.0113C67.6864 63.8577 67.547 63.7373 67.361 63.6501C67.1797 63.5587 66.9752 63.5131 66.7474 63.5131C66.3569 63.5131 66.0407 63.6231 65.799 63.8431C65.5619 64.059 65.4433 64.3434 65.4433 64.6964C65.4433 65.0493 65.5619 65.3358 65.799 65.5558C66.0407 65.7717 66.3569 65.8797 66.7474 65.8797C66.9752 65.8797 67.1797 65.8361 67.361 65.7489C67.547 65.6575 67.6864 65.533 67.7794 65.3752L68.8603 65.9357C68.6464 66.2554 68.3512 66.5087 67.9747 66.6955C67.6028 66.8782 67.1937 66.9695 66.7474 66.9695Z" fill="white"/>
<path d="M72.5913 66.5523C72.2333 66.8304 71.7707 66.9695 71.2036 66.9695C70.6364 66.9695 70.1715 66.8304 69.8089 66.5523C69.4509 66.2741 69.2719 65.9046 69.2719 65.4437V62.5166H70.5202V65.3378C70.5202 65.7032 70.748 65.8859 71.2036 65.8859C71.6592 65.8859 71.8869 65.7032 71.8869 65.3378V62.5166H73.1352V65.4437C73.1352 65.9046 72.9539 66.2741 72.5913 66.5523Z" fill="white"/>
<path d="M75.1044 65.7987H76.785V66.8761H73.8562V62.5166H75.1044V65.7987Z" fill="white"/>
<path d="M80.3545 66.8761L80.1453 66.2471H78.5205L78.3113 66.8761H76.9585L78.5693 62.5166H80.0895L81.7004 66.8761H80.3545ZM78.8413 65.288H79.8245L79.3294 63.8058L78.8413 65.288Z" fill="white"/>
<path d="M84.6006 66.8761L83.7498 65.4686H83.3035V66.8761H82.0553V62.5166H84.0078C84.5053 62.5166 84.9214 62.6598 85.2561 62.9463C85.5954 63.2287 85.7651 63.5878 85.7651 64.0238C85.7651 64.2853 85.6908 64.5261 85.542 64.7462C85.3932 64.9621 85.191 65.1344 84.9353 65.2631L85.9395 66.8761H84.6006ZM83.3035 63.5442V64.522H83.9939C84.1473 64.5261 84.2728 64.4825 84.3705 64.3912C84.4681 64.2999 84.5169 64.1815 84.5169 64.0362C84.5169 63.8909 84.4681 63.7726 84.3705 63.6812C84.2728 63.5899 84.1473 63.5442 83.9939 63.5442H83.3035Z" fill="white"/>
<rect x="39.7838" y="71.6958" width="16.2712" height="0.691986" rx="0.345993" fill="#1A62B2"/>
</svg>
